<svg width="100" height="100" viewBox="0 0 100 100" fill="none" xmlns="http://www.w3.org/2000/svg">
<g id="optera logo witte achtergrond">
<circle id="Ellipse 16" cx="50" cy="50" r="50" fill="white"/>
<circle id="Ellipse 15" cx="50" cy="50" r="48" stroke="url(#paint0_linear_42_22)" stroke-width="4"/>
<g id="Optera">
<mask id="path-3-outside-1_42_22" maskUnits="userSpaceOnUse" x="12" y="38" width="75" height="24" fill="black">
<rect fill="white" x="12" y="38" width="75" height="24"/>
<path d="M22.4402 57.288C21.1282 57.288 19.9042 57.056 18.7682 56.592C17.6322 56.128 16.6402 55.48 15.7922 54.648C14.9442 53.816 14.2802 52.84 13.8002 51.72C13.3362 50.584 13.1042 49.36 13.1042 48.048C13.1042 46.72 13.3362 45.496 13.8002 44.376C14.2642 43.256 14.9202 42.28 15.7682 41.448C16.6162 40.616 17.6082 39.976 18.7442 39.528C19.8802 39.064 21.1122 38.832 22.4402 38.832C23.7682 38.832 25.0002 39.064 26.1362 39.528C27.2722 39.992 28.2642 40.64 29.1122 41.472C29.9602 42.288 30.6162 43.256 31.0802 44.376C31.5602 45.496 31.8002 46.72 31.8002 48.048C31.8002 49.36 31.5602 50.584 31.0802 51.72C30.6002 52.84 29.9362 53.816 29.0882 54.648C28.2402 55.48 27.2482 56.128 26.1122 56.592C24.9922 57.056 23.7682 57.288 22.4402 57.288ZM22.4402 54.312C23.3202 54.312 24.1282 54.16 24.8642 53.856C25.6002 53.536 26.2402 53.096 26.7842 52.536C27.3442 51.976 27.7682 51.312 28.0562 50.544C28.3602 49.776 28.5122 48.944 28.5122 48.048C28.5122 47.152 28.3602 46.328 28.0562 45.576C27.7682 44.808 27.3442 44.144 26.7842 43.584C26.2402 43.008 25.6002 42.568 24.8642 42.264C24.1282 41.96 23.3202 41.808 22.4402 41.808C21.5762 41.808 20.7762 41.96 20.0402 42.264C19.3042 42.568 18.6562 43.008 18.0962 43.584C17.5522 44.144 17.1282 44.808 16.8242 45.576C16.5202 46.328 16.3682 47.152 16.3682 48.048C16.3682 48.944 16.5202 49.776 16.8242 50.544C17.1282 51.312 17.5522 51.976 18.0962 52.536C18.6562 53.096 19.3042 53.536 20.0402 53.856C20.7762 54.16 21.5762 54.312 22.4402 54.312ZM32.7585 61.8V43.944H35.7105V46.536L35.4225 45.888C35.8705 45.184 36.4785 44.64 37.2465 44.256C38.0145 43.856 38.9025 43.656 39.9105 43.656C41.1425 43.656 42.2545 43.96 43.2465 44.568C44.2385 45.176 45.0225 45.992 45.5985 47.016C46.1905 48.04 46.4865 49.192 46.4865 50.472C46.4865 51.736 46.1985 52.888 45.6225 53.928C45.0465 54.968 44.2625 55.792 43.2705 56.4C42.2785 56.992 41.1505 57.288 39.8865 57.288C38.9425 57.288 38.0705 57.104 37.2705 56.736C36.4865 56.352 35.8625 55.808 35.3985 55.104L35.9025 54.48V61.8H32.7585ZM39.5265 54.408C40.2465 54.408 40.8865 54.24 41.4465 53.904C42.0065 53.568 42.4385 53.104 42.7425 52.512C43.0625 51.92 43.2225 51.24 43.2225 50.472C43.2225 49.704 43.0625 49.032 42.7425 48.456C42.4385 47.864 42.0065 47.4 41.4465 47.064C40.8865 46.712 40.2465 46.536 39.5265 46.536C38.8385 46.536 38.2145 46.704 37.6545 47.04C37.1105 47.376 36.6785 47.848 36.3585 48.456C36.0545 49.048 35.9025 49.72 35.9025 50.472C35.9025 51.24 36.0545 51.92 36.3585 52.512C36.6785 53.104 37.1105 53.568 37.6545 53.904C38.2145 54.24 38.8385 54.408 39.5265 54.408ZM52.9212 57.144C51.4492 57.144 50.3052 56.744 49.4892 55.944C48.6892 55.128 48.2892 53.984 48.2892 52.512V46.752H46.0332V43.944H46.2732C46.9132 43.944 47.4092 43.776 47.7612 43.44C48.1132 43.104 48.2892 42.616 48.2892 41.976V40.968H51.4332V43.944H54.4332V46.752H51.4332V52.344C51.4332 52.776 51.5052 53.144 51.6492 53.448C51.8092 53.752 52.0492 53.984 52.3692 54.144C52.7052 54.304 53.1292 54.384 53.6412 54.384C53.7532 54.384 53.8812 54.376 54.0252 54.36C54.1852 54.344 54.3372 54.328 54.4812 54.312V57C54.2572 57.032 54.0012 57.064 53.7132 57.096C53.4252 57.128 53.1612 57.144 52.9212 57.144ZM61.278 57.288C59.934 57.288 58.758 56.984 57.75 56.376C56.742 55.768 55.958 54.944 55.398 53.904C54.838 52.864 54.558 51.712 54.558 50.448C54.558 49.136 54.838 47.976 55.398 46.968C55.974 45.944 56.75 45.136 57.726 44.544C58.718 43.952 59.822 43.656 61.038 43.656C62.062 43.656 62.958 43.824 63.726 44.16C64.51 44.496 65.174 44.96 65.718 45.552C66.262 46.144 66.678 46.824 66.966 47.592C67.254 48.344 67.398 49.16 67.398 50.04C67.398 50.264 67.382 50.496 67.35 50.736C67.334 50.976 67.294 51.184 67.23 51.36H57.15V48.96H65.454L63.966 50.088C64.11 49.352 64.07 48.696 63.846 48.12C63.638 47.544 63.286 47.088 62.79 46.752C62.31 46.416 61.726 46.248 61.038 46.248C60.382 46.248 59.798 46.416 59.286 46.752C58.774 47.072 58.382 47.552 58.11 48.192C57.854 48.816 57.758 49.576 57.822 50.472C57.758 51.272 57.862 51.984 58.134 52.608C58.422 53.216 58.838 53.688 59.382 54.024C59.942 54.36 60.582 54.528 61.302 54.528C62.022 54.528 62.63 54.376 63.126 54.072C63.638 53.768 64.038 53.36 64.326 52.848L66.87 54.096C66.614 54.72 66.214 55.272 65.67 55.752C65.126 56.232 64.478 56.608 63.726 56.88C62.99 57.152 62.174 57.288 61.278 57.288ZM68.1013 57V43.944H71.0533V46.848L70.8133 46.416C71.1173 45.44 71.5893 44.76 72.2293 44.376C72.8853 43.992 73.6693 43.8 74.5813 43.8H75.3493V46.584H74.2213C73.3253 46.584 72.6053 46.864 72.0613 47.424C71.5173 47.968 71.2453 48.736 71.2453 49.728V57H68.1013ZM79.5979 57.288C78.6859 57.288 77.8939 57.136 77.2219 56.832C76.5499 56.528 76.0299 56.096 75.6619 55.536C75.2939 54.96 75.1099 54.296 75.1099 53.544C75.1099 52.824 75.2699 52.184 75.5899 51.624C75.9099 51.048 76.4059 50.568 77.0779 50.184C77.7499 49.8 78.5979 49.528 79.6219 49.368L83.8939 48.672V51.072L80.2219 51.696C79.5979 51.808 79.1339 52.008 78.8299 52.296C78.5259 52.584 78.3739 52.96 78.3739 53.424C78.3739 53.872 78.5419 54.232 78.8779 54.504C79.2299 54.76 79.6619 54.888 80.1739 54.888C80.8299 54.888 81.4059 54.752 81.9019 54.48C82.4139 54.192 82.8059 53.8 83.0779 53.304C83.3659 52.808 83.5099 52.264 83.5099 51.672V48.312C83.5099 47.752 83.2859 47.288 82.8379 46.92C82.4059 46.536 81.8299 46.344 81.1099 46.344C80.4379 46.344 79.8379 46.528 79.3099 46.896C78.7979 47.248 78.4219 47.72 78.1819 48.312L75.6139 47.064C75.8699 46.376 76.2699 45.784 76.8139 45.288C77.3739 44.776 78.0299 44.376 78.7819 44.088C79.5339 43.8 80.3499 43.656 81.2299 43.656C82.3019 43.656 83.2459 43.856 84.0619 44.256C84.8779 44.64 85.5099 45.184 85.9579 45.888C86.4219 46.576 86.6539 47.384 86.6539 48.312V57H83.6779V54.768L84.3499 54.72C84.0139 55.28 83.6139 55.752 83.1499 56.136C82.6859 56.504 82.1579 56.792 81.5659 57C80.9739 57.192 80.3179 57.288 79.5979 57.288Z"/>
</mask>
<path d="M22.4402 57.288C21.1282 57.288 19.9042 57.056 18.7682 56.592C17.6322 56.128 16.6402 55.48 15.7922 54.648C14.9442 53.816 14.2802 52.84 13.8002 51.72C13.3362 50.584 13.1042 49.36 13.1042 48.048C13.1042 46.72 13.3362 45.496 13.8002 44.376C14.2642 43.256 14.9202 42.28 15.7682 41.448C16.6162 40.616 17.6082 39.976 18.7442 39.528C19.8802 39.064 21.1122 38.832 22.4402 38.832C23.7682 38.832 25.0002 39.064 26.1362 39.528C27.2722 39.992 28.2642 40.64 29.1122 41.472C29.9602 42.288 30.6162 43.256 31.0802 44.376C31.5602 45.496 31.8002 46.72 31.8002 48.048C31.8002 49.36 31.5602 50.584 31.0802 51.72C30.6002 52.84 29.9362 53.816 29.0882 54.648C28.2402 55.48 27.2482 56.128 26.1122 56.592C24.9922 57.056 23.7682 57.288 22.4402 57.288ZM22.4402 54.312C23.3202 54.312 24.1282 54.16 24.8642 53.856C25.6002 53.536 26.2402 53.096 26.7842 52.536C27.3442 51.976 27.7682 51.312 28.0562 50.544C28.3602 49.776 28.5122 48.944 28.5122 48.048C28.5122 47.152 28.3602 46.328 28.0562 45.576C27.7682 44.808 27.3442 44.144 26.7842 43.584C26.2402 43.008 25.6002 42.568 24.8642 42.264C24.1282 41.96 23.3202 41.808 22.4402 41.808C21.5762 41.808 20.7762 41.96 20.0402 42.264C19.3042 42.568 18.6562 43.008 18.0962 43.584C17.5522 44.144 17.1282 44.808 16.8242 45.576C16.5202 46.328 16.3682 47.152 16.3682 48.048C16.3682 48.944 16.5202 49.776 16.8242 50.544C17.1282 51.312 17.5522 51.976 18.0962 52.536C18.6562 53.096 19.3042 53.536 20.0402 53.856C20.7762 54.16 21.5762 54.312 22.4402 54.312ZM32.7585 61.8V43.944H35.7105V46.536L35.4225 45.888C35.8705 45.184 36.4785 44.64 37.2465 44.256C38.0145 43.856 38.9025 43.656 39.9105 43.656C41.1425 43.656 42.2545 43.96 43.2465 44.568C44.2385 45.176 45.0225 45.992 45.5985 47.016C46.1905 48.04 46.4865 49.192 46.4865 50.472C46.4865 51.736 46.1985 52.888 45.6225 53.928C45.0465 54.968 44.2625 55.792 43.2705 56.4C42.2785 56.992 41.1505 57.288 39.8865 57.288C38.9425 57.288 38.0705 57.104 37.2705 56.736C36.4865 56.352 35.8625 55.808 35.3985 55.104L35.9025 54.48V61.8H32.7585ZM39.5265 54.408C40.2465 54.408 40.8865 54.24 41.4465 53.904C42.0065 53.568 42.4385 53.104 42.7425 52.512C43.0625 51.92 43.2225 51.24 43.2225 50.472C43.2225 49.704 43.0625 49.032 42.7425 48.456C42.4385 47.864 42.0065 47.4 41.4465 47.064C40.8865 46.712 40.2465 46.536 39.5265 46.536C38.8385 46.536 38.2145 46.704 37.6545 47.04C37.1105 47.376 36.6785 47.848 36.3585 48.456C36.0545 49.048 35.9025 49.72 35.9025 50.472C35.9025 51.24 36.0545 51.92 36.3585 52.512C36.6785 53.104 37.1105 53.568 37.6545 53.904C38.2145 54.24 38.8385 54.408 39.5265 54.408ZM52.9212 57.144C51.4492 57.144 50.3052 56.744 49.4892 55.944C48.6892 55.128 48.2892 53.984 48.2892 52.512V46.752H46.0332V43.944H46.2732C46.9132 43.944 47.4092 43.776 47.7612 43.44C48.1132 43.104 48.2892 42.616 48.2892 41.976V40.968H51.4332V43.944H54.4332V46.752H51.4332V52.344C51.4332 52.776 51.5052 53.144 51.6492 53.448C51.8092 53.752 52.0492 53.984 52.3692 54.144C52.7052 54.304 53.1292 54.384 53.6412 54.384C53.7532 54.384 53.8812 54.376 54.0252 54.36C54.1852 54.344 54.3372 54.328 54.4812 54.312V57C54.2572 57.032 54.0012 57.064 53.7132 57.096C53.4252 57.128 53.1612 57.144 52.9212 57.144ZM61.278 57.288C59.934 57.288 58.758 56.984 57.75 56.376C56.742 55.768 55.958 54.944 55.398 53.904C54.838 52.864 54.558 51.712 54.558 50.448C54.558 49.136 54.838 47.976 55.398 46.968C55.974 45.944 56.75 45.136 57.726 44.544C58.718 43.952 59.822 43.656 61.038 43.656C62.062 43.656 62.958 43.824 63.726 44.16C64.51 44.496 65.174 44.96 65.718 45.552C66.262 46.144 66.678 46.824 66.966 47.592C67.254 48.344 67.398 49.16 67.398 50.04C67.398 50.264 67.382 50.496 67.35 50.736C67.334 50.976 67.294 51.184 67.23 51.36H57.15V48.96H65.454L63.966 50.088C64.11 49.352 64.07 48.696 63.846 48.12C63.638 47.544 63.286 47.088 62.79 46.752C62.31 46.416 61.726 46.248 61.038 46.248C60.382 46.248 59.798 46.416 59.286 46.752C58.774 47.072 58.382 47.552 58.11 48.192C57.854 48.816 57.758 49.576 57.822 50.472C57.758 51.272 57.862 51.984 58.134 52.608C58.422 53.216 58.838 53.688 59.382 54.024C59.942 54.36 60.582 54.528 61.302 54.528C62.022 54.528 62.63 54.376 63.126 54.072C63.638 53.768 64.038 53.36 64.326 52.848L66.87 54.096C66.614 54.72 66.214 55.272 65.67 55.752C65.126 56.232 64.478 56.608 63.726 56.88C62.99 57.152 62.174 57.288 61.278 57.288ZM68.1013 57V43.944H71.0533V46.848L70.8133 46.416C71.1173 45.44 71.5893 44.76 72.2293 44.376C72.8853 43.992 73.6693 43.8 74.5813 43.8H75.3493V46.584H74.2213C73.3253 46.584 72.6053 46.864 72.0613 47.424C71.5173 47.968 71.2453 48.736 71.2453 49.728V57H68.1013ZM79.5979 57.288C78.6859 57.288 77.8939 57.136 77.2219 56.832C76.5499 56.528 76.0299 56.096 75.6619 55.536C75.2939 54.96 75.1099 54.296 75.1099 53.544C75.1099 52.824 75.2699 52.184 75.5899 51.624C75.9099 51.048 76.4059 50.568 77.0779 50.184C77.7499 49.8 78.5979 49.528 79.6219 49.368L83.8939 48.672V51.072L80.2219 51.696C79.5979 51.808 79.1339 52.008 78.8299 52.296C78.5259 52.584 78.3739 52.96 78.3739 53.424C78.3739 53.872 78.5419 54.232 78.8779 54.504C79.2299 54.76 79.6619 54.888 80.1739 54.888C80.8299 54.888 81.4059 54.752 81.9019 54.48C82.4139 54.192 82.8059 53.8 83.0779 53.304C83.3659 52.808 83.5099 52.264 83.5099 51.672V48.312C83.5099 47.752 83.2859 47.288 82.8379 46.92C82.4059 46.536 81.8299 46.344 81.1099 46.344C80.4379 46.344 79.8379 46.528 79.3099 46.896C78.7979 47.248 78.4219 47.72 78.1819 48.312L75.6139 47.064C75.8699 46.376 76.2699 45.784 76.8139 45.288C77.3739 44.776 78.0299 44.376 78.7819 44.088C79.5339 43.8 80.3499 43.656 81.2299 43.656C82.3019 43.656 83.2459 43.856 84.0619 44.256C84.8779 44.64 85.5099 45.184 85.9579 45.888C86.4219 46.576 86.6539 47.384 86.6539 48.312V57H83.6779V54.768L84.3499 54.72C84.0139 55.28 83.6139 55.752 83.1499 56.136C82.6859 56.504 82.1579 56.792 81.5659 57C80.9739 57.192 80.3179 57.288 79.5979 57.288Z" fill="#36322F"/>
<path d="M18.7682 56.592L18.7228 56.7031L18.7228 56.7031L18.7682 56.592ZM15.7922 54.648L15.7082 54.7337L15.7082 54.7337L15.7922 54.648ZM13.8002 51.72L13.6891 51.7654L13.6899 51.7673L13.8002 51.72ZM13.8002 44.376L13.9111 44.4219L13.9111 44.4219L13.8002 44.376ZM15.7682 41.448L15.8523 41.5337L15.8523 41.5337L15.7682 41.448ZM18.7442 39.528L18.7882 39.6396L18.7896 39.6391L18.7442 39.528ZM26.1362 39.528L26.1816 39.4169L26.1816 39.4169L26.1362 39.528ZM29.1122 41.472L29.0282 41.5577L29.029 41.5585L29.1122 41.472ZM31.0802 44.376L30.9694 44.4219L30.9699 44.4233L31.0802 44.376ZM31.0802 51.72L31.1905 51.7673L31.1908 51.7667L31.0802 51.72ZM29.0882 54.648L29.0042 54.5623L29.0042 54.5623L29.0882 54.648ZM26.1122 56.592L26.0668 56.4809L26.0663 56.4811L26.1122 56.592ZM24.8642 53.856L24.91 53.9669L24.9121 53.966L24.8642 53.856ZM26.7842 52.536L26.6994 52.4511L26.6981 52.4524L26.7842 52.536ZM28.0562 50.544L27.9446 50.4998L27.9439 50.5019L28.0562 50.544ZM28.0562 45.576L27.9438 45.6181L27.945 45.621L28.0562 45.576ZM26.7842 43.584L26.6969 43.6664L26.6994 43.6689L26.7842 43.584ZM18.0962 43.584L18.0102 43.5004L18.0101 43.5004L18.0962 43.584ZM16.8242 45.576L16.9355 45.621L16.9358 45.6202L16.8242 45.576ZM16.8242 50.544L16.9358 50.4998L16.9358 50.4998L16.8242 50.544ZM18.0962 52.536L18.0101 52.6196L18.0114 52.6209L18.0962 52.536ZM20.0402 53.856L19.9924 53.9661L19.9944 53.9669L20.0402 53.856ZM22.4402 57.168C21.1427 57.168 19.9342 56.9386 18.8136 56.4809L18.7228 56.7031C19.8742 57.1734 21.1137 57.408 22.4402 57.408V57.168ZM18.8136 56.4809C17.6915 56.0226 16.7128 55.3831 15.8763 54.5623L15.7082 54.7337C16.5677 55.5769 17.5729 56.2334 18.7228 56.7031L18.8136 56.4809ZM15.8763 54.5623C15.0397 53.7416 14.3845 52.7787 13.9105 51.6727L13.6899 51.7673C14.1759 52.9013 14.8487 53.8904 15.7082 54.7337L15.8763 54.5623ZM13.9113 51.6746C13.4536 50.554 13.2242 49.3455 13.2242 48.048H12.9842C12.9842 49.3745 13.2188 50.614 13.6891 51.7654L13.9113 51.6746ZM13.2242 48.048C13.2242 46.7342 13.4537 45.526 13.9111 44.4219L13.6894 44.3301C13.2188 45.466 12.9842 46.7057 12.9842 48.048H13.2242ZM13.9111 44.4219C14.369 43.3165 15.016 42.3541 15.8523 41.5337L15.6842 41.3623C14.8244 42.2059 14.1594 43.1955 13.6894 44.3301L13.9111 44.4219ZM15.8523 41.5337C16.6885 40.7132 17.6668 40.0819 18.7882 39.6396L18.7002 39.4164C17.5497 39.8701 16.544 40.5188 15.6842 41.3623L15.8523 41.5337ZM18.7896 39.6391C19.91 39.1814 21.1265 38.952 22.4402 38.952V38.712C21.098 38.712 19.8504 38.9466 18.6988 39.4169L18.7896 39.6391ZM22.4402 38.952C23.754 38.952 24.9704 39.1814 26.0908 39.6391L26.1816 39.4169C25.03 38.9466 23.7825 38.712 22.4402 38.712V38.952ZM26.0908 39.6391C27.2129 40.0974 28.1917 40.7369 29.0282 41.5577L29.1963 41.3863C28.3368 40.5431 27.3315 39.8866 26.1816 39.4169L26.0908 39.6391ZM29.029 41.5585C29.8647 42.3627 30.5115 43.3167 30.9694 44.4219L31.1911 44.3301C30.721 43.1953 30.0557 42.2133 29.1954 41.3855L29.029 41.5585ZM30.9699 44.4233C31.443 45.527 31.6802 46.7348 31.6802 48.048H31.9202C31.9202 46.7052 31.6775 45.465 31.1905 44.3287L30.9699 44.4233ZM31.6802 48.048C31.6802 49.345 31.443 50.553 30.9697 51.6733L31.1908 51.7667C31.6774 50.615 31.9202 49.375 31.9202 48.048H31.6802ZM30.9699 51.6727C30.4959 52.7787 29.8407 53.7416 29.0042 54.5623L29.1723 54.7337C30.0317 53.8904 30.7045 52.9013 31.1905 51.7673L30.9699 51.6727ZM29.0042 54.5623C28.1677 55.3831 27.1889 56.0226 26.0668 56.4809L26.1576 56.7031C27.3075 56.2334 28.3128 55.5769 29.1723 54.7337L29.0042 54.5623ZM26.0663 56.4811C24.9622 56.9386 23.754 57.168 22.4402 57.168V57.408C23.7825 57.408 25.0223 57.1734 26.1581 56.7029L26.0663 56.4811ZM22.4402 54.432C23.3343 54.432 24.158 54.2775 24.91 53.9669L24.8184 53.7451C24.0984 54.0425 23.3062 54.192 22.4402 54.192V54.432ZM24.9121 53.966C25.662 53.64 26.3151 53.1911 26.8703 52.6196L26.6981 52.4524C26.1654 53.0009 25.5384 53.432 24.8164 53.746L24.9121 53.966ZM26.8691 52.6209C27.4416 52.0483 27.8748 51.3696 28.1686 50.5861L27.9439 50.5019C27.6617 51.2544 27.2468 51.9037 26.6994 52.4511L26.8691 52.6209ZM28.1678 50.5882C28.4778 49.805 28.6322 48.9578 28.6322 48.048H28.3922C28.3922 48.9302 28.2426 49.747 27.9446 50.4998L28.1678 50.5882ZM28.6322 48.048C28.6322 47.1382 28.4778 46.2987 28.1675 45.531L27.945 45.621C28.2426 46.3573 28.3922 47.1658 28.3922 48.048H28.6322ZM28.1686 45.5339C27.8748 44.7504 27.4416 44.0717 26.8691 43.4991L26.6994 43.6689C27.2468 44.2163 27.6617 44.8656 27.9439 45.6181L28.1686 45.5339ZM26.8715 43.5016C26.3158 42.9132 25.6616 42.4635 24.91 42.1531L24.8184 42.3749C25.5388 42.6725 26.1647 43.1028 26.697 43.6664L26.8715 43.5016ZM24.91 42.1531C24.158 41.8425 23.3343 41.688 22.4402 41.688V41.928C23.3062 41.928 24.0984 42.0775 24.8184 42.3749L24.91 42.1531ZM22.4402 41.688C21.5618 41.688 20.7461 41.8426 19.9944 42.1531L20.086 42.3749C20.8063 42.0774 21.5906 41.928 22.4402 41.928V41.688ZM19.9944 42.1531C19.2431 42.4634 18.5815 42.9127 18.0102 43.5004L18.1823 43.6676C18.731 43.1033 19.3653 42.6726 20.086 42.3749L19.9944 42.1531ZM18.0101 43.5004C17.4545 44.0724 17.0221 44.75 16.7126 45.5318L16.9358 45.6202C17.2343 44.866 17.6499 44.2156 18.1823 43.6676L18.0101 43.5004ZM16.713 45.531C16.4026 46.2987 16.2482 47.1382 16.2482 48.048H16.4882C16.4882 47.1658 16.6378 46.3573 16.9355 45.621L16.713 45.531ZM16.2482 48.048C16.2482 48.9578 16.4026 49.805 16.7126 50.5882L16.9358 50.4998C16.6378 49.747 16.4882 48.9302 16.4882 48.048H16.2482ZM16.7126 50.5882C17.0221 51.37 17.4545 52.0476 18.0101 52.6196L18.1823 52.4524C17.6499 51.9044 17.2343 51.254 16.9358 50.4998L16.7126 50.5882ZM18.0114 52.6209C18.5822 53.1916 19.2428 53.6401 19.9924 53.966L20.0881 53.746C19.3657 53.4319 18.7303 53.0004 18.1811 52.4511L18.0114 52.6209ZM19.9944 53.9669C20.7461 54.2774 21.5618 54.432 22.4402 54.432V54.192C21.5906 54.192 20.8063 54.0426 20.086 53.7451L19.9944 53.9669ZM32.7585 61.8H32.6385V61.92H32.7585V61.8ZM32.7585 43.944V43.824H32.6385V43.944H32.7585ZM35.7105 43.944H35.8305V43.824H35.7105V43.944ZM35.7105 46.536L35.6009 46.5847L35.8305 46.536H35.7105ZM35.4225 45.888L35.3213 45.8236L35.2867 45.8779L35.3129 45.9367L35.4225 45.888ZM37.2465 44.256L37.3002 44.3633L37.302 44.3624L37.2465 44.256ZM43.2465 44.568L43.1838 44.6703L43.1838 44.6703L43.2465 44.568ZM45.5985 47.016L45.4939 47.0748L45.4946 47.0761L45.5985 47.016ZM45.6225 53.928L45.5176 53.8699L45.5176 53.8699L45.6225 53.928ZM43.2705 56.4L43.332 56.5031L43.3332 56.5023L43.2705 56.4ZM37.2705 56.736L37.2177 56.8438L37.2204 56.845L37.2705 56.736ZM35.3985 55.104L35.3052 55.0286L35.2501 55.0968L35.2983 55.17L35.3985 55.104ZM35.9025 54.48H36.0225V54.1404L35.8092 54.4046L35.9025 54.48ZM35.9025 61.8V61.92H36.0225V61.8H35.9025ZM41.4465 53.904L41.3848 53.8011L41.3848 53.8011L41.4465 53.904ZM42.7425 52.512L42.6369 52.4549L42.6358 52.4572L42.7425 52.512ZM42.7425 48.456L42.6357 48.5108L42.6376 48.5143L42.7425 48.456ZM41.4465 47.064L41.3827 47.1656L41.3848 47.1669L41.4465 47.064ZM37.6545 47.04L37.5928 46.9371L37.5915 46.9379L37.6545 47.04ZM36.3585 48.456L36.2523 48.4001L36.2518 48.4012L36.3585 48.456ZM36.3585 52.512L36.2518 52.5668L36.253 52.5691L36.3585 52.512ZM37.6545 53.904L37.5915 54.0061L37.5928 54.0069L37.6545 53.904ZM32.8785 61.8V43.944H32.6385V61.8H32.8785ZM32.7585 44.064H35.7105V43.824H32.7585V44.064ZM35.5905 43.944V46.536H35.8305V43.944H35.5905ZM35.8202 46.4873L35.5322 45.8393L35.3129 45.9367L35.6009 46.5847L35.8202 46.4873ZM35.5238 45.9524C35.9597 45.2673 36.5511 44.7379 37.3002 44.3633L37.1929 44.1487C36.406 44.5421 35.7813 45.1007 35.3213 45.8236L35.5238 45.9524ZM37.302 44.3624C38.0502 43.9727 38.9187 43.776 39.9105 43.776V43.536C38.8864 43.536 37.9788 43.7393 37.1911 44.1496L37.302 44.3624ZM39.9105 43.776C41.1218 43.776 42.2118 44.0746 43.1838 44.6703L43.3092 44.4657C42.2972 43.8454 41.1633 43.536 39.9105 43.536V43.776ZM43.1838 44.6703C44.1582 45.2675 44.9279 46.0685 45.4939 47.0748L45.7031 46.9572C45.1172 45.9155 44.3189 45.0845 43.3092 44.4657L43.1838 44.6703ZM45.4946 47.0761C46.0752 48.0803 46.3665 49.2113 46.3665 50.472H46.6065C46.6065 49.1727 46.3058 47.9997 45.7024 46.9559L45.4946 47.0761ZM46.3665 50.472C46.3665 51.717 46.0831 52.8488 45.5176 53.8699L45.7275 53.9861C46.314 52.9272 46.6065 51.755 46.6065 50.472H46.3665ZM45.5176 53.8699C44.9514 54.8921 44.1818 55.7008 43.2078 56.2977L43.3332 56.5023C44.3433 55.8832 45.1417 55.0439 45.7275 53.9861L45.5176 53.8699ZM43.209 56.297C42.2374 56.8768 41.131 57.168 39.8865 57.168V57.408C41.1701 57.408 42.3197 57.1072 43.332 56.503L43.209 56.297ZM39.8865 57.168C38.9586 57.168 38.1038 56.9872 37.3207 56.627L37.2204 56.845C38.0372 57.2208 38.9265 57.408 39.8865 57.408V57.168ZM37.3233 56.6282C36.5579 56.2533 35.9505 55.7234 35.4987 55.038L35.2983 55.17C35.7746 55.8926 36.4152 56.4507 37.2177 56.8438L37.3233 56.6282ZM35.4919 55.1794L35.9959 54.5554L35.8092 54.4046L35.3052 55.0286L35.4919 55.1794ZM35.7825 54.48V61.8H36.0225V54.48H35.7825ZM35.9025 61.68H32.7585V61.92H35.9025V61.68ZM39.5265 54.528C40.266 54.528 40.9277 54.3552 41.5083 54.0069L41.3848 53.8011C40.8453 54.1248 40.2271 54.288 39.5265 54.288V54.528ZM41.5083 54.0069C42.0878 53.6592 42.5353 53.1783 42.8493 52.5668L42.6358 52.4572C42.3418 53.0297 41.9252 53.4768 41.3848 53.8011L41.5083 54.0069ZM42.8481 52.5691C43.1788 51.9572 43.3425 51.2571 43.3425 50.472H43.1025C43.1025 51.2229 42.9462 51.8828 42.637 52.4549L42.8481 52.5691ZM43.3425 50.472C43.3425 49.687 43.1789 48.9943 42.8474 48.3977L42.6376 48.5143C42.9462 49.0697 43.1025 49.721 43.1025 50.472H43.3425ZM42.8493 48.4012C42.5353 47.7897 42.0878 47.3088 41.5083 46.9611L41.3848 47.1669C41.9252 47.4912 42.3418 47.9383 42.6358 48.5108L42.8493 48.4012ZM41.5104 46.9624C40.9296 46.5973 40.2671 46.416 39.5265 46.416V46.656C40.226 46.656 40.8435 46.8267 41.3827 47.1656L41.5104 46.9624ZM39.5265 46.416C38.818 46.416 38.1725 46.5893 37.5928 46.9371L37.7163 47.1429C38.2566 46.8187 38.8591 46.656 39.5265 46.656V46.416ZM37.5915 46.9379C37.0279 47.286 36.5816 47.7746 36.2523 48.4001L36.4647 48.5119C36.7755 47.9214 37.1932 47.466 37.7176 47.1421L37.5915 46.9379ZM36.2518 48.4012C35.938 49.0122 35.7825 49.7034 35.7825 50.472H36.0225C36.0225 49.7366 36.1711 49.0838 36.4653 48.5108L36.2518 48.4012ZM35.7825 50.472C35.7825 51.2561 35.9378 51.9554 36.2518 52.5668L36.4653 52.4572C36.1712 51.8846 36.0225 51.2239 36.0225 50.472H35.7825ZM36.253 52.5691C36.5824 53.1785 37.0287 53.6585 37.5915 54.0061L37.7176 53.8019C37.1924 53.4775 36.7747 53.0295 36.4641 52.4549L36.253 52.5691ZM37.5928 54.0069C38.1725 54.3547 38.818 54.528 39.5265 54.528V54.288C38.8591 54.288 38.2566 54.1253 37.7163 53.8011L37.5928 54.0069ZM49.4892 55.944L49.4035 56.028L49.4051 56.0297L49.4892 55.944ZM48.2892 46.752H48.4092V46.632H48.2892V46.752ZM46.0332 46.752H45.9132V46.872H46.0332V46.752ZM46.0332 43.944V43.824H45.9132V43.944H46.0332ZM47.7612 43.44L47.844 43.5268L47.844 43.5268L47.7612 43.44ZM48.2892 40.968V40.848H48.1692V40.968H48.2892ZM51.4332 40.968H51.5532V40.848H51.4332V40.968ZM51.4332 43.944H51.3132V44.064H51.4332V43.944ZM54.4332 43.944H54.5532V43.824H54.4332V43.944ZM54.4332 46.752V46.872H54.5532V46.752H54.4332ZM51.4332 46.752V46.632H51.3132V46.752H51.4332ZM51.6492 53.448L51.5406 53.4994L51.543 53.5039L51.6492 53.448ZM52.3692 54.144L52.3155 54.2514L52.3176 54.2523L52.3692 54.144ZM54.0252 54.36L54.0132 54.2406L54.0119 54.2407L54.0252 54.36ZM54.4812 54.312H54.6012V54.1779L54.4679 54.1927L54.4812 54.312ZM54.4812 57L54.4981 57.1188L54.6012 57.1041V57H54.4812ZM53.7132 57.096L53.7264 57.2153L53.7132 57.096ZM52.9212 57.024C51.4711 57.024 50.3608 56.6305 49.5732 55.8583L49.4051 56.0297C50.2495 56.8575 51.4272 57.264 52.9212 57.264V57.024ZM49.5748 55.86C48.8027 55.0724 48.4092 53.962 48.4092 52.512H48.1692C48.1692 54.006 48.5757 55.1836 49.4035 56.028L49.5748 55.86ZM48.4092 52.512V46.752H48.1692V52.512H48.4092ZM48.2892 46.632H46.0332V46.872H48.2892V46.632ZM46.1532 46.752V43.944H45.9132V46.752H46.1532ZM46.0332 44.064H46.2732V43.824H46.0332V44.064ZM46.2732 44.064C46.934 44.064 47.4634 43.8902 47.844 43.5268L47.6783 43.3532C47.355 43.6618 46.8923 43.824 46.2732 43.824V44.064ZM47.844 43.5268C48.2266 43.1616 48.4092 42.638 48.4092 41.976H48.1692C48.1692 42.594 47.9998 43.0464 47.6783 43.3532L47.844 43.5268ZM48.4092 41.976V40.968H48.1692V41.976H48.4092ZM48.2892 41.088H51.4332V40.848H48.2892V41.088ZM51.3132 40.968V43.944H51.5532V40.968H51.3132ZM51.4332 44.064H54.4332V43.824H51.4332V44.064ZM54.3132 43.944V46.752H54.5532V43.944H54.3132ZM54.4332 46.632H51.4332V46.872H54.4332V46.632ZM51.3132 46.752V52.344H51.5532V46.752H51.3132ZM51.3132 52.344C51.3132 52.7889 51.3873 53.1754 51.5407 53.4994L51.7576 53.3966C51.6231 53.1126 51.5532 52.7631 51.5532 52.344H51.3132ZM51.543 53.5039C51.7152 53.8311 51.974 54.0806 52.3155 54.2513L52.4228 54.0367C52.1243 53.8874 51.9031 53.6729 51.7553 53.3921L51.543 53.5039ZM52.3176 54.2523C52.6746 54.4223 53.1176 54.504 53.6412 54.504V54.264C53.1407 54.264 52.7358 54.1857 52.4207 54.0357L52.3176 54.2523ZM53.6412 54.504C53.7586 54.504 53.8912 54.4956 54.0384 54.4793L54.0119 54.2407C53.8711 54.2564 53.7477 54.264 53.6412 54.264V54.504ZM54.0371 54.4794C54.1975 54.4634 54.3499 54.4473 54.4944 54.4313L54.4679 54.1927C54.3244 54.2087 54.1728 54.2246 54.0132 54.2406L54.0371 54.4794ZM54.3612 54.312V57H54.6012V54.312H54.3612ZM54.4642 56.8812C54.2417 56.913 53.987 56.9448 53.6999 56.9767L53.7264 57.2153C54.0153 57.1832 54.2726 57.151 54.4981 57.1188L54.4642 56.8812ZM53.6999 56.9767C53.4154 57.0083 53.1559 57.024 52.9212 57.024V57.264C53.1664 57.264 53.4349 57.2477 53.7264 57.2153L53.6999 56.9767ZM57.75 56.376L57.6881 56.4788L57.6881 56.4788L57.75 56.376ZM55.398 53.904L55.5037 53.8471L55.398 53.904ZM55.398 46.968L55.2934 46.9092L55.2931 46.9097L55.398 46.968ZM57.726 44.544L57.6645 44.441L57.6638 44.4414L57.726 44.544ZM63.726 44.16L63.6779 44.2699L63.6788 44.2703L63.726 44.16ZM65.718 45.552L65.6297 45.6332L65.6297 45.6332L65.718 45.552ZM66.966 47.592L66.8537 47.6341L66.854 47.6349L66.966 47.592ZM67.35 50.736L67.2308 50.7201L67.2303 50.728L67.35 50.736ZM67.23 51.36V51.48H67.3141L67.3428 51.401L67.23 51.36ZM57.15 51.36H57.03V51.48H57.15V51.36ZM57.15 48.96V48.84H57.03V48.96H57.15ZM65.454 48.96L65.5265 49.0556L65.811 48.84H65.454V48.96ZM63.966 50.088L63.8483 50.065L63.7879 50.3736L64.0385 50.1836L63.966 50.088ZM63.846 48.12L63.7331 48.1608L63.7342 48.1635L63.846 48.12ZM62.79 46.752L62.7212 46.8503L62.7227 46.8513L62.79 46.752ZM59.286 46.752L59.3496 46.8538L59.3519 46.8523L59.286 46.752ZM58.11 48.192L57.9996 48.1451L57.999 48.1465L58.11 48.192ZM57.822 50.472L57.9417 50.4816L57.9424 50.4725L57.9417 50.4634L57.822 50.472ZM58.134 52.608L58.024 52.656L58.0256 52.6594L58.134 52.608ZM59.382 54.024L59.319 54.1261L59.3203 54.1269L59.382 54.024ZM63.126 54.072L63.0648 53.9688L63.0633 53.9697L63.126 54.072ZM64.326 52.848L64.3789 52.7403L64.2771 52.6903L64.2214 52.7892L64.326 52.848ZM66.87 54.096L66.9811 54.1415L67.0237 54.0377L66.9229 53.9883L66.87 54.096ZM65.67 55.752L65.7494 55.842L65.7494 55.842L65.67 55.752ZM63.726 56.88L63.6852 56.7672L63.6844 56.7674L63.726 56.88ZM61.278 57.168C59.9527 57.168 58.7988 56.8684 57.812 56.2732L57.6881 56.4788C58.7173 57.0996 59.9153 57.408 61.278 57.408V57.168ZM57.812 56.2732C56.8225 55.6764 56.0535 54.8683 55.5037 53.8471L55.2924 53.9609C55.8625 55.0197 56.6616 55.8596 57.6881 56.4788L57.812 56.2732ZM55.5037 53.8471C54.9538 52.8258 54.678 51.6936 54.678 50.448H54.438C54.438 51.7304 54.7223 52.9022 55.2924 53.9609L55.5037 53.8471ZM54.678 50.448C54.678 49.1535 54.9541 48.0141 55.5029 47.0263L55.2931 46.9097C54.7219 47.9379 54.438 49.1185 54.438 50.448H54.678ZM55.5026 47.0268C56.0688 46.0203 56.8304 45.2276 57.7883 44.6466L57.6638 44.4414C56.6696 45.0444 55.8793 45.8677 55.2934 46.9092L55.5026 47.0268ZM57.7875 44.647C58.7599 44.0667 59.8425 43.776 61.038 43.776V43.536C59.8016 43.536 58.6761 43.8373 57.6645 44.441L57.7875 44.647ZM61.038 43.776C62.0491 43.776 62.9281 43.9419 63.6779 44.2699L63.7741 44.0501C62.988 43.7061 62.075 43.536 61.038 43.536V43.776ZM63.6788 44.2703C64.4481 44.6 65.0978 45.0544 65.6297 45.6332L65.8064 45.4708C65.2502 44.8656 64.5719 44.392 63.7733 44.0497L63.6788 44.2703ZM65.6297 45.6332C66.163 46.2136 66.571 46.8803 66.8537 47.6341L67.0784 47.5499C66.7851 46.7677 66.361 46.0744 65.8064 45.4708L65.6297 45.6332ZM66.854 47.6349C67.1363 48.372 67.278 49.1733 67.278 50.04H67.518C67.518 49.1467 67.3718 48.316 67.0781 47.5491L66.854 47.6349ZM67.278 50.04C67.278 50.2583 67.2624 50.485 67.2311 50.7201L67.469 50.7519C67.5016 50.507 67.518 50.2697 67.518 50.04H67.278ZM67.2303 50.728C67.2148 50.9598 67.1765 51.1561 67.1173 51.319L67.3428 51.401C67.4116 51.2119 67.4532 50.9922 67.4698 50.744L67.2303 50.728ZM67.23 51.24H57.15V51.48H67.23V51.24ZM57.27 51.36V48.96H57.03V51.36H57.27ZM57.15 49.08H65.454V48.84H57.15V49.08ZM65.3815 48.8644L63.8935 49.9924L64.0385 50.1836L65.5265 49.0556L65.3815 48.8644ZM64.0838 50.111C64.2312 49.3575 64.1917 48.6778 63.9579 48.0765L63.7342 48.1635C63.9484 48.7142 63.9888 49.3465 63.8483 50.065L64.0838 50.111ZM63.9589 48.0792C63.7425 47.48 63.3748 47.0032 62.8573 46.6526L62.7227 46.8513C63.1972 47.1728 63.5336 47.608 63.7332 48.1608L63.9589 48.0792ZM62.8588 46.6537C62.3553 46.3012 61.7462 46.128 61.038 46.128V46.368C61.7058 46.368 62.2647 46.5308 62.7212 46.8503L62.8588 46.6537ZM61.038 46.128C60.3604 46.128 59.7532 46.3019 59.2202 46.6517L59.3519 46.8523C59.8429 46.5301 60.4037 46.368 61.038 46.368V46.128ZM59.2224 46.6502C58.6865 46.9852 58.2797 47.486 57.9996 48.1451L58.2205 48.2389C58.4844 47.618 58.8615 47.1588 59.3496 46.8538L59.2224 46.6502ZM57.999 48.1465C57.7341 48.7923 57.6374 49.5719 57.7023 50.4805L57.9417 50.4634C57.8786 49.5801 57.974 48.8397 58.2211 48.2375L57.999 48.1465ZM57.7024 50.4624C57.6371 51.2786 57.7428 52.0109 58.024 52.6559L58.244 52.56C57.9812 51.9571 57.8789 51.2654 57.9417 50.4816L57.7024 50.4624ZM58.0256 52.6594C58.323 53.2872 58.7542 53.7773 59.319 54.1261L59.4451 53.9219C58.9219 53.5987 58.5211 53.1448 58.2425 52.5566L58.0256 52.6594ZM59.3203 54.1269C59.9008 54.4752 60.5626 54.648 61.302 54.648V54.408C60.6015 54.408 59.9832 54.2448 59.4438 53.9211L59.3203 54.1269ZM61.302 54.648C62.0389 54.648 62.6698 54.4923 63.1887 54.1743L63.0633 53.9697C62.5902 54.2597 62.0051 54.408 61.302 54.408V54.648ZM63.1873 54.1752C63.7171 53.8606 64.1322 53.4374 64.4306 52.9068L64.2214 52.7892C63.9439 53.2826 63.5589 53.6754 63.0648 53.9688L63.1873 54.1752ZM64.2732 52.9557L66.8172 54.2037L66.9229 53.9883L64.3789 52.7403L64.2732 52.9557ZM66.759 54.0505C66.5105 54.6561 66.1219 55.1933 65.5906 55.662L65.7494 55.842C66.3062 55.3507 66.7175 54.7839 66.9811 54.1415L66.759 54.0505ZM65.5906 55.662C65.059 56.1311 64.4245 56.4998 63.6852 56.7672L63.7668 56.9928C64.5316 56.7162 65.193 56.3329 65.7494 55.842L65.5906 55.662ZM63.6844 56.7674C62.9635 57.0339 62.1618 57.168 61.278 57.168V57.408C62.1862 57.408 63.0166 57.2701 63.7676 56.9926L63.6844 56.7674ZM68.1013 57H67.9813V57.12H68.1013V57ZM68.1013 43.944V43.824H67.9813V43.944H68.1013ZM71.0533 43.944H71.1733V43.824H71.0533V43.944ZM71.0533 46.848L70.9484 46.9063L71.1733 47.3111V46.848H71.0533ZM70.8133 46.416L70.6988 46.3803L70.6835 46.4294L70.7084 46.4743L70.8133 46.416ZM72.2293 44.376L72.1687 44.2724L72.1676 44.2731L72.2293 44.376ZM75.3493 43.8H75.4693V43.68H75.3493V43.8ZM75.3493 46.584V46.704H75.4693V46.584H75.3493ZM72.0613 47.424L72.1462 47.5089L72.1474 47.5076L72.0613 47.424ZM71.2453 57V57.12H71.3653V57H71.2453ZM68.2213 57V43.944H67.9813V57H68.2213ZM68.1013 44.064H71.0533V43.824H68.1013V44.064ZM70.9333 43.944V46.848H71.1733V43.944H70.9333ZM71.1582 46.7897L70.9182 46.3577L70.7084 46.4743L70.9484 46.9063L71.1582 46.7897ZM70.9279 46.4517C71.2264 45.4934 71.6844 44.8429 72.2911 44.4789L72.1676 44.2731C71.4943 44.6771 71.0083 45.3866 70.6988 46.3803L70.9279 46.4517ZM72.29 44.4796C72.9242 44.1083 73.6864 43.92 74.5813 43.92V43.68C73.6523 43.68 72.8465 43.8757 72.1687 44.2724L72.29 44.4796ZM74.5813 43.92H75.3493V43.68H74.5813V43.92ZM75.2293 43.8V46.584H75.4693V43.8H75.2293ZM75.3493 46.464H74.2213V46.704H75.3493V46.464ZM74.2213 46.464C73.2981 46.464 72.5453 46.7536 71.9753 47.3404L72.1474 47.5076C72.6654 46.9744 73.3526 46.704 74.2213 46.704V46.464ZM71.9765 47.3391C71.404 47.9117 71.1253 48.7138 71.1253 49.728H71.3653C71.3653 48.7582 71.6307 48.0243 72.1462 47.5089L71.9765 47.3391ZM71.1253 49.728V57H71.3653V49.728H71.1253ZM71.2453 56.88H68.1013V57.12H71.2453V56.88ZM77.2219 56.832L77.1724 56.9413L77.1724 56.9413L77.2219 56.832ZM75.6619 55.536L75.5608 55.6006L75.5616 55.6019L75.6619 55.536ZM75.5899 51.624L75.6941 51.6835L75.6948 51.6823L75.5899 51.624ZM77.0779 50.184L77.1374 50.2882L77.1374 50.2882L77.0779 50.184ZM79.6219 49.368L79.6404 49.4866L79.6412 49.4864L79.6219 49.368ZM83.8939 48.672H84.0139V48.5309L83.8746 48.5536L83.8939 48.672ZM83.8939 51.072L83.914 51.1903L84.0139 51.1733V51.072H83.8939ZM80.2219 51.696L80.2018 51.5777L80.2007 51.5779L80.2219 51.696ZM78.8299 52.296L78.7474 52.2089L78.7474 52.2089L78.8299 52.296ZM78.8779 54.504L78.8023 54.5974L78.8073 54.601L78.8779 54.504ZM81.9019 54.48L81.9596 54.5852L81.9607 54.5846L81.9019 54.48ZM83.0779 53.304L82.9741 53.2437L82.9727 53.2463L83.0779 53.304ZM82.8379 46.92L82.7581 47.0098L82.7617 47.0127L82.8379 46.92ZM79.3099 46.896L79.3779 46.9949L79.3785 46.9944L79.3099 46.896ZM78.1819 48.312L78.1295 48.4199L78.2449 48.476L78.2931 48.3571L78.1819 48.312ZM75.6139 47.064L75.5014 47.0222L75.4634 47.1243L75.5615 47.1719L75.6139 47.064ZM76.8139 45.288L76.8948 45.3767L76.8949 45.3766L76.8139 45.288ZM78.7819 44.088L78.739 43.9759L78.739 43.9759L78.7819 44.088ZM84.0619 44.256L84.0091 44.3638L84.0108 44.3646L84.0619 44.256ZM85.9579 45.888L85.8566 45.9524L85.8584 45.9551L85.9579 45.888ZM86.6539 57V57.12H86.7739V57H86.6539ZM83.6779 57H83.5579V57.12H83.6779V57ZM83.6779 54.768L83.6694 54.6483L83.5579 54.6563V54.768H83.6779ZM84.3499 54.72L84.4528 54.7817L84.5715 54.5839L84.3414 54.6003L84.3499 54.72ZM83.1499 56.136L83.2245 56.23L83.2264 56.2284L83.1499 56.136ZM81.5659 57L81.6029 57.1142L81.6057 57.1132L81.5659 57ZM79.5979 57.168C78.699 57.168 77.9246 57.0182 77.2714 56.7227L77.1724 56.9413C77.8632 57.2538 78.6728 57.408 79.5979 57.408V57.168ZM77.2714 56.7227C76.6179 56.4271 76.1165 56.0092 75.7622 55.4701L75.5616 55.6019C75.9434 56.1828 76.4819 56.6289 77.1724 56.9413L77.2714 56.7227ZM75.763 55.4714C75.4086 54.9166 75.2299 54.2755 75.2299 53.544H74.9899C74.9899 54.3165 75.1792 55.0034 75.5608 55.6006L75.763 55.4714ZM75.2299 53.544C75.2299 52.8424 75.3856 52.2234 75.6941 51.6835L75.4857 51.5645C75.1542 52.1446 74.9899 52.8056 74.9899 53.544H75.2299ZM75.6948 51.6823C76.0024 51.1286 76.4811 50.6632 77.1374 50.2882L77.0184 50.0798C76.3307 50.4728 75.8174 50.9674 75.485 51.5657L75.6948 51.6823ZM77.1374 50.2882C77.7933 49.9134 78.6263 49.645 79.6404 49.4866L79.6034 49.2494C78.5696 49.411 77.7065 49.6866 77.0184 50.0798L77.1374 50.2882ZM79.6412 49.4864L83.9132 48.7904L83.8746 48.5536L79.6026 49.2496L79.6412 49.4864ZM83.7739 48.672V51.072H84.0139V48.672H83.7739ZM83.8738 50.9537L80.2018 51.5777L80.242 51.8143L83.914 51.1903L83.8738 50.9537ZM80.2007 51.5779C79.5647 51.692 79.075 51.8985 78.7474 52.2089L78.9124 52.3831C79.1928 52.1175 79.6311 51.924 80.2431 51.8141L80.2007 51.5779ZM78.7474 52.2089C78.4167 52.5221 78.2539 52.931 78.2539 53.424H78.4939C78.4939 52.989 78.6351 52.6459 78.9124 52.3831L78.7474 52.2089ZM78.2539 53.424C78.2539 53.9067 78.4371 54.3015 78.8024 54.5973L78.9534 54.4107C78.6467 54.1625 78.4939 53.8373 78.4939 53.424H78.2539ZM78.8073 54.601C79.1833 54.8745 79.6412 55.008 80.1739 55.008V54.768C79.6827 54.768 79.2765 54.6455 78.9485 54.407L78.8073 54.601ZM80.1739 55.008C80.8468 55.008 81.4433 54.8684 81.9596 54.5852L81.8442 54.3748C81.3685 54.6356 80.813 54.768 80.1739 54.768V55.008ZM81.9607 54.5846C82.4915 54.286 82.8999 53.8781 83.1831 53.3617L82.9727 53.2463C82.7119 53.7219 82.3363 54.098 81.8431 54.3754L81.9607 54.5846ZM83.1817 53.3643C83.4807 52.8493 83.6299 52.2845 83.6299 51.672H83.3899C83.3899 52.2435 83.2512 52.7667 82.9741 53.2437L83.1817 53.3643ZM83.6299 51.672V48.312H83.3899V51.672H83.6299ZM83.6299 48.312C83.6299 47.7147 83.3887 47.2171 82.9141 46.8273L82.7617 47.0127C83.1831 47.3589 83.3899 47.7893 83.3899 48.312H83.6299ZM82.9176 46.8303C82.4586 46.4223 81.8518 46.224 81.1099 46.224V46.464C81.808 46.464 82.3532 46.6497 82.7582 47.0097L82.9176 46.8303ZM81.1099 46.224C80.4145 46.224 79.7903 46.4149 79.2413 46.7976L79.3785 46.9944C79.8855 46.6411 80.4613 46.464 81.1099 46.464V46.224ZM79.2419 46.7971C78.71 47.1628 78.3193 47.6538 78.0707 48.2669L78.2931 48.3571C78.5246 47.7862 78.8858 47.3332 79.3779 46.9949L79.2419 46.7971ZM78.2344 48.2041L75.6664 46.9561L75.5615 47.1719L78.1295 48.4199L78.2344 48.2041ZM75.7264 47.1058C75.9757 46.4358 76.3648 45.8598 76.8948 45.3767L76.7331 45.1993C76.175 45.7082 75.7641 46.3162 75.5014 47.0222L75.7264 47.1058ZM76.8949 45.3766C77.4431 44.8753 78.086 44.483 78.8248 44.2001L78.739 43.9759C77.9738 44.269 77.3047 44.6767 76.7329 45.1994L76.8949 45.3766ZM78.8248 44.2001C79.5619 43.9178 80.3632 43.776 81.2299 43.776V43.536C80.3366 43.536 79.5059 43.6822 78.739 43.9759L78.8248 44.2001ZM81.2299 43.776C82.2869 43.776 83.2122 43.9731 84.0091 44.3638L84.1147 44.1482C83.2796 43.7389 82.317 43.536 81.2299 43.536V43.776ZM84.0108 44.3646C84.808 44.7397 85.4219 45.2691 85.8567 45.9524L86.0591 45.8236C85.598 45.0989 84.9478 44.5403 84.113 44.1474L84.0108 44.3646ZM85.8584 45.9551C86.3075 46.621 86.5339 47.405 86.5339 48.312H86.7739C86.7739 47.363 86.5363 46.531 86.0574 45.8209L85.8584 45.9551ZM86.5339 48.312V57H86.7739V48.312H86.5339ZM86.6539 56.88H83.6779V57.12H86.6539V56.88ZM83.7979 57V54.768H83.5579V57H83.7979ZM83.6865 54.8877L84.3585 54.8397L84.3414 54.6003L83.6694 54.6483L83.6865 54.8877ZM84.247 54.6583C83.9174 55.2076 83.5261 55.6689 83.0734 56.0436L83.2264 56.2284C83.7017 55.8351 84.1104 55.3524 84.4528 54.7817L84.247 54.6583ZM83.0753 56.042C82.6224 56.4012 82.1063 56.6829 81.5261 56.8868L81.6057 57.1132C82.2095 56.9011 82.7494 56.6068 83.2245 56.23L83.0753 56.042ZM81.5289 56.8859C80.9506 57.0734 80.3073 57.168 79.5979 57.168V57.408C80.3285 57.408 80.9973 57.3106 81.6029 57.1141L81.5289 56.8859Z" fill="#36322F" mask="url(#path-3-outside-1_42_22)"/>
</g>
<g id="Intersect">
<path fill-rule="evenodd" clip-rule="evenodd" d="M49.4892 55.944C50.3052 56.744 51.4492 57.144 52.9212 57.144C53.1612 57.144 53.4252 57.128 53.7132 57.096C54.0012 57.064 54.2572 57.032 54.4812 57V54.312C54.3372 54.328 54.1852 54.344 54.0252 54.36C53.8812 54.376 53.7532 54.384 53.6412 54.384C53.1292 54.384 52.7052 54.304 52.3692 54.144C52.0492 53.984 51.8092 53.752 51.6492 53.448C51.5052 53.144 51.4332 52.776 51.4332 52.344V50.7368C51.2801 50.6467 51.1351 50.5676 51 50.5C49.7922 49.8961 48.9164 49.9569 48.2892 50.4923V52.512C48.2892 53.984 48.6892 55.128 49.4892 55.944Z" fill="url(#paint1_linear_42_22)"/>
<path d="M49.4892 55.944L49.4463 55.986L49.4471 55.9868L49.4892 55.944ZM53.7132 57.096L53.7198 57.1556L53.7198 57.1556L53.7132 57.096ZM54.4812 57L54.4896 57.0594L54.5412 57.052V57H54.4812ZM54.4812 54.312H54.5412V54.245L54.4745 54.2524L54.4812 54.312ZM54.0252 54.36L54.0192 54.3003L54.0185 54.3004L54.0252 54.36ZM52.3692 54.144L52.3423 54.1977L52.3434 54.1982L52.3692 54.144ZM51.6492 53.448L51.5949 53.4737L51.5961 53.4759L51.6492 53.448ZM51.4332 50.7368H51.4932V50.7025L51.4636 50.6851L51.4332 50.7368ZM51 50.5L51.0268 50.4463L51.0268 50.4463L51 50.5ZM48.2892 50.4923L48.2502 50.4466L48.2292 50.4646V50.4923H48.2892ZM52.9212 57.084C51.4601 57.084 50.333 56.6872 49.5312 55.9012L49.4471 55.9868C50.2773 56.8008 51.4382 57.204 52.9212 57.204V57.084ZM53.7065 57.0364C53.4203 57.0682 53.1585 57.084 52.9212 57.084V57.204C53.1638 57.204 53.43 57.1878 53.7198 57.1556L53.7065 57.0364ZM54.4727 56.9406C54.2494 56.9725 53.9941 57.0044 53.7065 57.0364L53.7198 57.1556C54.0082 57.1236 54.2649 57.0915 54.4896 57.0594L54.4727 56.9406ZM54.4212 54.312V57H54.5412V54.312H54.4212ZM54.0311 54.4197C54.1913 54.4037 54.3435 54.3877 54.4878 54.3716L54.4745 54.2524C54.3308 54.2683 54.179 54.2843 54.0192 54.3003L54.0311 54.4197ZM53.6412 54.444C53.7559 54.444 53.8862 54.4358 54.0318 54.4196L54.0185 54.3004C53.8761 54.3162 53.7504 54.324 53.6412 54.324V54.444ZM52.3434 54.1982C52.6899 54.3632 53.1234 54.444 53.6412 54.444V54.324C53.1349 54.324 52.7205 54.2448 52.3949 54.0898L52.3434 54.1982ZM51.5961 53.4759C51.7622 53.7915 52.0116 54.0323 52.3423 54.1977L52.396 54.0903C52.0867 53.9357 51.8561 53.7125 51.7022 53.4201L51.5961 53.4759ZM51.3732 52.344C51.3732 52.7824 51.4462 53.1597 51.5949 53.4737L51.7034 53.4223C51.5641 53.1283 51.4932 52.7696 51.4932 52.344H51.3732ZM51.3732 50.7368V52.344H51.4932V50.7368H51.3732ZM51.4636 50.6851C51.3095 50.5944 51.1634 50.5146 51.0268 50.4463L50.9732 50.5537C51.1069 50.6206 51.2507 50.699 51.4027 50.7885L51.4636 50.6851ZM51.0268 50.4463C50.4175 50.1417 49.8869 50.0021 49.426 50.0089C48.9636 50.0158 48.5744 50.1699 48.2502 50.4466L48.3281 50.5379C48.6311 50.2792 48.9935 50.1353 49.4277 50.1289C49.8634 50.1225 50.3747 50.2544 50.9732 50.5537L51.0268 50.4463ZM48.3492 52.512V50.4923H48.2292V52.512H48.3492ZM49.532 55.902C48.7459 55.1002 48.3492 53.973 48.3492 52.512H48.2292C48.2292 53.995 48.6324 55.1558 49.4463 55.986L49.532 55.902Z" fill="#36322F"/>
</g>
<g id="Intersect_2">
<path fill-rule="evenodd" clip-rule="evenodd" d="M18.7682 56.592C19.9042 57.056 21.1282 57.288 22.4402 57.288C23.7682 57.288 24.9922 57.056 26.1122 56.592C27.1655 56.1618 28.0949 55.5734 28.9006 54.8269C27.903 54.5145 26.9197 54.2025 25.9585 53.8974C25.721 53.8221 25.4848 53.7471 25.2501 53.6727C25.1245 53.7376 24.9959 53.7987 24.8642 53.856C24.1282 54.16 23.3202 54.312 22.4402 54.312C21.5762 54.312 20.7762 54.16 20.0402 53.856C19.3042 53.536 18.6562 53.096 18.0962 52.536C17.9321 52.367 17.7788 52.1885 17.6365 52.0006C16.4425 52.0698 15.3448 52.3555 14.3454 52.7985C14.7464 53.4786 15.2287 54.0951 15.7922 54.648C16.6402 55.48 17.6322 56.128 18.7682 56.592ZM68.1013 51.0745C69.1447 50.8272 70.1974 50.6275 71.2453 50.4716V57H68.1013V51.0745ZM32.7585 56.0072C33.8044 56.3175 34.8552 56.6195 35.9025 56.9063V61.8H32.7585V56.0072ZM57.4087 56.156C58.199 55.4733 59.0552 54.8566 59.9621 54.3016C60.3728 54.4525 60.8195 54.528 61.302 54.528C62.022 54.528 62.63 54.376 63.126 54.072C63.638 53.768 64.038 53.36 64.326 52.848L66.87 54.096C66.614 54.72 66.214 55.272 65.67 55.752C65.126 56.232 64.478 56.608 63.726 56.88C62.99 57.152 62.174 57.288 61.278 57.288C59.934 57.288 58.758 56.984 57.75 56.376C57.6333 56.3055 57.5195 56.2322 57.4087 56.156ZM66.9804 51.36C67.0717 51.3351 67.1632 51.3105 67.2548 51.2864C67.247 51.3115 67.2387 51.336 67.23 51.36H66.9804ZM77.3716 50.0288C79.6607 50.0364 81.7679 50.2421 83.5099 50.5943C83.64 50.6206 83.768 50.6477 83.8939 50.6756C84.9151 50.902 85.7973 51.1806 86.5 51.5C86.5517 51.5235 86.603 51.5469 86.6539 51.5701V57H83.6779V55.6308C83.5122 55.8134 83.3362 55.9818 83.1499 56.136C82.6859 56.504 82.1579 56.792 81.5659 57C80.9739 57.192 80.3179 57.288 79.5979 57.288C78.6859 57.288 77.8939 57.136 77.2219 56.832C76.5499 56.528 76.0299 56.096 75.6619 55.536C75.2939 54.96 75.1099 54.296 75.1099 53.544C75.1099 52.824 75.2699 52.184 75.5899 51.624C75.9099 51.048 76.4059 50.568 77.0779 50.184C77.1723 50.13 77.2702 50.0783 77.3716 50.0288ZM83.5099 51.1372L80.2219 51.696C79.5979 51.808 79.1339 52.008 78.8299 52.296C78.5259 52.584 78.3739 52.96 78.3739 53.424C78.3739 53.872 78.5419 54.232 78.8779 54.504C79.2299 54.76 79.6619 54.888 80.1739 54.888C80.8299 54.888 81.4059 54.752 81.9019 54.48C82.4139 54.192 82.8059 53.8 83.0779 53.304C83.3659 52.808 83.5099 52.264 83.5099 51.672V51.1372Z" fill="url(#paint2_linear_42_22)"/>
<path d="M18.7682 56.592L18.7455 56.6475L18.7455 56.6475L18.7682 56.592ZM26.1122 56.592L26.0895 56.5364L26.0893 56.5366L26.1122 56.592ZM28.9006 54.8269L28.9414 54.8709L29.0173 54.8006L28.9185 54.7697L28.9006 54.8269ZM25.9585 53.8974L25.9403 53.9546L25.9403 53.9546L25.9585 53.8974ZM25.2501 53.6727L25.2682 53.6155L25.2446 53.608L25.2225 53.6194L25.2501 53.6727ZM24.8642 53.856L24.8871 53.9115L24.8882 53.911L24.8642 53.856ZM20.0402 53.856L20.0163 53.911L20.0173 53.9114L20.0402 53.856ZM18.0962 52.536L18.0532 52.5778L18.0538 52.5784L18.0962 52.536ZM17.6365 52.0006L17.6844 51.9644L17.665 51.9389L17.6331 51.9407L17.6365 52.0006ZM14.3454 52.7985L14.3211 52.7437L14.2595 52.771L14.2937 52.829L14.3454 52.7985ZM15.7922 54.648L15.8342 54.6052L15.8342 54.6052L15.7922 54.648ZM71.2453 50.4716H71.3053V50.402L71.2365 50.4122L71.2453 50.4716ZM68.1013 51.0745L68.0875 51.0162L68.0413 51.0271V51.0745H68.1013ZM71.2453 57V57.06H71.3053V57H71.2453ZM68.1013 57H68.0413V57.06H68.1013V57ZM35.9025 56.9063H35.9625V56.8605L35.9184 56.8485L35.9025 56.9063ZM32.7585 56.0072L32.7756 55.9497L32.6985 55.9269V56.0072H32.7585ZM35.9025 61.8V61.86H35.9625V61.8H35.9025ZM32.7585 61.8H32.6985V61.86H32.7585V61.8ZM59.9621 54.3016L59.9828 54.2453L59.9555 54.2352L59.9308 54.2504L59.9621 54.3016ZM57.4087 56.156L57.3695 56.1106L57.3107 56.1613L57.3747 56.2054L57.4087 56.156ZM63.126 54.072L63.0954 54.0204L63.0947 54.0208L63.126 54.072ZM64.326 52.848L64.3525 52.7941L64.3015 52.7691L64.2737 52.8186L64.326 52.848ZM66.87 54.096L66.9256 54.1188L66.9469 54.0668L66.8965 54.0421L66.87 54.096ZM65.67 55.752L65.7097 55.797L65.7097 55.797L65.67 55.752ZM63.726 56.88L63.7056 56.8236L63.7052 56.8237L63.726 56.88ZM57.75 56.376L57.719 56.4274L57.719 56.4274L57.75 56.376ZM67.2548 51.2864L67.3121 51.3042L67.3443 51.2007L67.2395 51.2284L67.2548 51.2864ZM66.9804 51.36L66.9646 51.3021L66.9804 51.42V51.36ZM67.23 51.36V51.42H67.2721L67.2864 51.3805L67.23 51.36ZM83.5099 50.5943L83.5218 50.5355L83.5218 50.5355L83.5099 50.5943ZM77.3716 50.0288L77.3718 49.9688L77.3578 49.9687L77.3452 49.9749L77.3716 50.0288ZM83.8939 50.6756L83.9069 50.6171L83.9069 50.6171L83.8939 50.6756ZM86.5 51.5L86.5248 51.4453L86.5248 51.4453L86.5 51.5ZM86.6539 51.5701H86.7139V51.5316L86.6789 51.5156L86.6539 51.5701ZM86.6539 57V57.06H86.7139V57H86.6539ZM83.6779 57H83.6179V57.06H83.6779V57ZM83.6779 55.6308H83.7379V55.4754L83.6335 55.5905L83.6779 55.6308ZM83.1499 56.136L83.1872 56.183L83.1882 56.1822L83.1499 56.136ZM81.5659 57L81.5844 57.0571L81.5858 57.0566L81.5659 57ZM77.2219 56.832L77.1972 56.8867L77.1972 56.8867L77.2219 56.832ZM75.6619 55.536L75.6113 55.5683L75.6118 55.5689L75.6619 55.536ZM75.5899 51.624L75.642 51.6538L75.6424 51.6531L75.5899 51.624ZM77.0779 50.184L77.1077 50.2361L77.1077 50.2361L77.0779 50.184ZM83.5099 51.1372H83.5699V51.0662L83.4999 51.0781L83.5099 51.1372ZM80.2219 51.696L80.2119 51.6368L80.2113 51.6369L80.2219 51.696ZM78.8299 52.296L78.7886 52.2524L78.7886 52.2524L78.8299 52.296ZM78.8779 54.504L78.8401 54.5507L78.8426 54.5525L78.8779 54.504ZM81.9019 54.48L81.9308 54.5326L81.9313 54.5323L81.9019 54.48ZM83.0779 53.304L83.026 53.2739L83.0253 53.2751L83.0779 53.304ZM22.4402 57.228C21.1355 57.228 19.9192 56.9973 18.7909 56.5364L18.7455 56.6475C19.8892 57.1147 21.121 57.348 22.4402 57.348V57.228ZM26.0893 56.5366C24.9772 56.9973 23.7611 57.228 22.4402 57.228V57.348C23.7754 57.348 25.0072 57.1147 26.1352 56.6474L26.0893 56.5366ZM28.8598 54.7829C28.0596 55.5244 27.1363 56.1089 26.0895 56.5364L26.1349 56.6475C27.1946 56.2147 28.1302 55.6225 28.9414 54.8709L28.8598 54.7829ZM28.9185 54.7697C27.921 54.4572 26.9379 54.1453 25.9766 53.8402L25.9403 53.9546C26.9016 54.2596 27.8849 54.5717 28.8826 54.8842L28.9185 54.7697ZM25.9766 53.8402C25.7391 53.7649 25.5029 53.6899 25.2682 53.6155L25.232 53.7299C25.4667 53.8043 25.7028 53.8792 25.9403 53.9546L25.9766 53.8402ZM24.8882 53.911C25.0211 53.8532 25.1509 53.7916 25.2777 53.726L25.2225 53.6194C25.0982 53.6837 24.9708 53.7442 24.8403 53.801L24.8882 53.911ZM22.4402 54.372C23.3273 54.372 24.1431 54.2187 24.8871 53.9114L24.8413 53.8005C24.1133 54.1012 23.3132 54.252 22.4402 54.252V54.372ZM20.0173 53.9114C20.7612 54.2187 21.569 54.372 22.4402 54.372V54.252C21.5834 54.252 20.7913 54.1013 20.0631 53.8005L20.0173 53.9114ZM18.0538 52.5784C18.6192 53.1438 19.2735 53.5881 20.0163 53.911L20.0642 53.801C19.335 53.4839 18.6933 53.0482 18.1387 52.4936L18.0538 52.5784ZM17.5887 52.0368C17.7325 52.2267 17.8873 52.407 18.0532 52.5778L18.1393 52.4942C17.9768 52.327 17.8252 52.1504 17.6844 51.9644L17.5887 52.0368ZM17.6331 51.9407C16.4315 52.0103 15.3267 52.2978 14.3211 52.7437L14.3697 52.8534C15.3628 52.4131 16.4535 52.1293 17.64 52.0605L17.6331 51.9407ZM15.8342 54.6052C15.2745 54.0559 14.7954 53.4436 14.3971 52.768L14.2937 52.829C14.6974 53.5136 15.1829 54.1342 15.7502 54.6908L15.8342 54.6052ZM18.7909 56.5364C17.6619 56.0753 16.6765 55.4315 15.8342 54.6052L15.7502 54.6908C16.6039 55.5285 17.6026 56.1807 18.7455 56.6475L18.7909 56.5364ZM71.2365 50.4122C70.187 50.5684 69.1326 50.7684 68.0875 51.0162L68.1152 51.1329C69.1568 50.886 70.2078 50.6866 71.2542 50.5309L71.2365 50.4122ZM71.1853 50.4716V57H71.3053V50.4716H71.1853ZM71.2453 56.94H68.1013V57.06H71.2453V56.94ZM68.1613 57V51.0745H68.0413V57H68.1613ZM35.9184 56.8485C34.8715 56.5618 33.8212 56.2599 32.7756 55.9497L32.7415 56.0648C33.7877 56.3751 34.8388 56.6773 35.8867 56.9642L35.9184 56.8485ZM35.8425 56.9063V61.8H35.9625V56.9063H35.8425ZM35.9025 61.74H32.7585V61.86H35.9025V61.74ZM32.8185 61.8V56.0072H32.6985V61.8H32.8185ZM59.9308 54.2504C59.0214 54.807 58.1625 55.4256 57.3695 56.1106L57.4479 56.2014C58.2356 55.521 59.0891 54.9062 59.9934 54.3527L59.9308 54.2504ZM59.9414 54.3579C60.3594 54.5115 60.8131 54.588 61.302 54.588V54.468C60.8258 54.468 60.3862 54.3935 59.9828 54.2453L59.9414 54.3579ZM61.302 54.588C62.0305 54.588 62.6499 54.4342 63.1574 54.1231L63.0947 54.0208C62.6101 54.3178 62.0136 54.468 61.302 54.468V54.588ZM63.1567 54.1236C63.6776 53.8143 64.0851 53.3987 64.3783 52.8774L64.2737 52.8186C63.991 53.3213 63.5985 53.7217 63.0954 54.0204L63.1567 54.1236ZM64.2996 52.9019L66.8436 54.1499L66.8965 54.0421L64.3525 52.7941L64.2996 52.9019ZM66.8145 54.0732C66.5623 54.6881 66.168 55.2326 65.6303 55.707L65.7097 55.797C66.2601 55.3114 66.6658 54.7519 66.9256 54.1188L66.8145 54.0732ZM65.6303 55.707C65.0925 56.1815 64.4513 56.5539 63.7056 56.8236L63.7464 56.9364C64.5048 56.6621 65.1595 56.2825 65.7097 55.797L65.6303 55.707ZM63.7052 56.8237C62.9768 57.0929 62.1679 57.228 61.278 57.228V57.348C62.1801 57.348 63.0033 57.2111 63.7468 56.9363L63.7052 56.8237ZM61.278 57.228C59.9434 57.228 58.7784 56.9262 57.781 56.3246L57.719 56.4274C58.7377 57.0418 59.9247 57.348 61.278 57.348V57.228ZM57.781 56.3246C57.6653 56.2548 57.5525 56.1821 57.4427 56.1065L57.3747 56.2054C57.4865 56.2823 57.6012 56.3563 57.719 56.4274L57.781 56.3246ZM67.2395 51.2284C67.1478 51.2526 67.0561 51.2771 66.9646 51.3021L66.9961 51.4179C67.0874 51.393 67.1787 51.3685 67.2701 51.3444L67.2395 51.2284ZM67.1975 51.2686C67.19 51.2928 67.182 51.3165 67.1736 51.3395L67.2864 51.3805C67.2955 51.3556 67.304 51.3302 67.3121 51.3042L67.1975 51.2686ZM67.23 51.3H66.9804V51.42H67.23V51.3ZM83.5218 50.5355C81.7753 50.1824 79.6641 49.9764 77.3718 49.9688L77.3714 50.0888C79.6573 50.0964 81.7605 50.3018 83.498 50.6531L83.5218 50.5355ZM83.9069 50.6171C83.7806 50.5891 83.6522 50.5619 83.5218 50.5355L83.498 50.6531C83.6277 50.6794 83.7554 50.7064 83.8809 50.7342L83.9069 50.6171ZM86.5248 51.4453C85.8172 51.1237 84.9307 50.844 83.9069 50.6171L83.8809 50.7342C84.8994 50.9599 85.7774 51.2374 86.4752 51.5546L86.5248 51.4453ZM86.6789 51.5156C86.6279 51.4923 86.5766 51.4689 86.5248 51.4453L86.4752 51.5546C86.5269 51.5781 86.5781 51.6014 86.629 51.6247L86.6789 51.5156ZM86.5939 51.5701V57H86.7139V51.5701H86.5939ZM86.6539 56.94H83.6779V57.06H86.6539V56.94ZM83.7379 57V55.6308H83.6179V57H83.7379ZM83.6335 55.5905C83.4697 55.771 83.2957 55.9374 83.1117 56.0898L83.1882 56.1822C83.3767 56.0262 83.5548 55.8558 83.7223 55.6712L83.6335 55.5905ZM83.1126 56.089C82.6542 56.4526 82.1321 56.7375 81.546 56.9434L81.5858 57.0566C82.1837 56.8465 82.7177 56.5554 83.1872 56.183L83.1126 56.089ZM81.5474 56.9429C80.9622 57.1327 80.3126 57.228 79.5979 57.228V57.348C80.3232 57.348 80.9856 57.2513 81.5844 57.0571L81.5474 56.9429ZM79.5979 57.228C78.6925 57.228 77.9093 57.0771 77.2466 56.7773L77.1972 56.8867C77.8786 57.1949 78.6793 57.348 79.5979 57.348V57.228ZM77.2466 56.7773C76.5839 56.4775 76.0732 56.0526 75.7121 55.503L75.6118 55.5689C75.9866 56.1394 76.5159 56.5785 77.1972 56.8867L77.2466 56.7773ZM75.7125 55.5037C75.3512 54.9383 75.1699 54.2857 75.1699 53.544H75.0499C75.0499 54.3062 75.2366 54.9817 75.6114 55.5683L75.7125 55.5037ZM75.1699 53.544C75.1699 52.8332 75.3278 52.2037 75.642 51.6538L75.5378 51.5942C75.2121 52.1643 75.0499 52.8148 75.0499 53.544H75.1699ZM75.6424 51.6531C75.9562 51.0883 76.4435 50.6156 77.1077 50.2361L77.0481 50.1319C76.3683 50.5204 75.8637 51.0077 75.5375 51.5948L75.6424 51.6531ZM77.1077 50.2361C77.2009 50.1828 77.2977 50.1317 77.3979 50.0827L77.3452 49.9749C77.2427 50.0249 77.1437 50.0773 77.0481 50.1319L77.1077 50.2361ZM83.4999 51.0781L80.2119 51.6368L80.232 51.7551L83.52 51.1964L83.4999 51.0781ZM80.2113 51.6369C79.5813 51.75 79.1045 51.9532 78.7886 52.2524L78.8712 52.3395C79.1634 52.0627 79.6145 51.866 80.2325 51.755L80.2113 51.6369ZM78.7886 52.2524C78.4713 52.553 78.3139 52.9455 78.3139 53.424H78.4339C78.4339 52.9745 78.5805 52.6149 78.8712 52.3395L78.7886 52.2524ZM78.3139 53.424C78.3139 53.8893 78.4895 54.2668 78.8402 54.5506L78.9157 54.4574C78.5943 54.1972 78.4339 53.8546 78.4339 53.424H78.3139ZM78.8426 54.5525C79.2066 54.8172 79.6515 54.948 80.1739 54.948V54.828C79.6723 54.828 79.2532 54.7028 78.9132 54.4555L78.8426 54.5525ZM80.1739 54.948C80.8384 54.948 81.4246 54.8102 81.9308 54.5326L81.8731 54.4274C81.3872 54.6938 80.8214 54.828 80.1739 54.828V54.948ZM81.9313 54.5323C82.4527 54.239 82.8529 53.8391 83.1305 53.3328L83.0253 53.2751C82.7589 53.7609 82.3751 54.145 81.8725 54.4277L81.9313 54.5323ZM83.1298 53.3341C83.4233 52.8287 83.5699 52.2742 83.5699 51.672H83.4499C83.4499 52.2538 83.3085 52.7873 83.026 53.2739L83.1298 53.3341ZM83.5699 51.672V51.1372H83.4499V51.672H83.5699Z" fill="#36322F"/>
</g>
</g>
<defs>
<linearGradient id="paint0_linear_42_22" x1="50" y1="1.49012e-06" x2="100" y2="100" gradientUnits="userSpaceOnUse">
<stop offset="0.2" stop-color="#36322F"/>
<stop offset="1" stop-color="#2DD4E0"/>
</linearGradient>
<linearGradient id="paint1_linear_42_22" x1="51.4173" y1="43.7795" x2="63.1656" y2="52.4767" gradientUnits="userSpaceOnUse">
<stop offset="0.2" stop-color="#36322F"/>
<stop offset="1" stop-color="#E0762D"/>
</linearGradient>
<linearGradient id="paint2_linear_42_22" x1="50" y1="8.04975e-06" x2="100" y2="100" gradientUnits="userSpaceOnUse">
<stop offset="0.2" stop-color="#36322F"/>
<stop offset="1" stop-color="#2DD4E0"/>
</linearGradient>
</defs>
</svg>
