<svg xmlns="http://www.w3.org/2000/svg" viewBox="0 0 550 550">
  <defs>
    <linearGradient id="circleGradient" x1="0%" y1="0%" x2="100%" y2="100%">
      <stop offset="20%" style="stop-color:#36322F"/>
      <stop offset="100%" style="stop-color:#2DD4E0"/>
    </linearGradient>
    
    <!-- Wave filter -->
    <filter id="wave" x="-50%" y="-50%" width="200%" height="200%">
      <feTurbulence type="fractalNoise" baseFrequency=".02 0.02" numOctaves="1" result="noise" stitchTiles="noStitch">
        <animate 
          attributeName="baseFrequency" 
          values="0 0; 0 0 ;0.2 0.2;.02 0.07;0 00"
          dur="10s"
          repeatCount="indefinite"
          keyTimes="0 ;.6;.61;0.85;1"
        />
      </feTurbulence>
      <feDisplacementMap in="SourceGraphic" in2="noise" scale="20"/>
    </filter>
  </defs>

  <!-- Main circle -->
  <circle cx="275" cy="275" r="250" 
    fill="#ffffff" 
    stroke="url(#circleGradient)" 
    stroke-width="25"
    filter="url(#wave)"
  />


  <!-- Flowing water particles
  <circle cx="0" cy="0" r="2" fill="#2DD4BF" opacity="0.3">
    <animateMotion 
      path="M100,5 A95,95 0 1,1 100,195 A95,95 0 1,1 100,5"
      dur="7s"
      repeatCount="indefinite"
    />
  </circle>
  <circle cx="0" cy="0" r="2" fill="#2DD4BF" opacity="0.3">
    <animateMotion 
      path="M100,5 A95,95 0 1,1 100,195 A95,95 0 1,1 100,5"
      dur="7s"
      begin="2.3s"
      repeatCount="indefinite"
    />
  </circle>
  <circle cx="0" cy="0" r="2" fill="#2DD4BF" opacity="0.3">
    <animateMotion 
      path="M100,5 A95,95 0 1,1 100,195 A95,95 0 1,1 100,5"
      dur="7s"
      begin="4.6s"
      repeatCount="indefinite"
    />
  </circle> -->


<g id="optera logo vergroot zonder cirkel">
<g id="Optera">
<mask id="path-1-outside-1_74_56" maskUnits="userSpaceOnUse" x="88" y="214" width="372" height="117" fill="black">
<rect fill="white" x="88" y="214" width="372" height="117"/>
<path d="M136.053 307.452C129.438 307.452 123.267 306.282 117.54 303.943C111.812 301.604 106.811 298.337 102.536 294.142C98.2604 289.947 94.9128 285.027 92.4928 279.38C90.1534 273.653 88.9838 267.482 88.9838 260.867C88.9838 254.172 90.1534 248.001 92.4928 242.354C94.8321 236.707 98.1394 231.787 102.415 227.592C106.69 223.397 111.691 220.171 117.419 217.912C123.146 215.573 129.357 214.403 136.053 214.403C142.748 214.403 148.959 215.573 154.687 217.912C160.414 220.251 165.415 223.518 169.691 227.713C173.966 231.827 177.273 236.707 179.613 242.354C182.033 248.001 183.243 254.172 183.243 260.867C183.243 267.482 182.033 273.653 179.613 279.38C177.193 285.027 173.845 289.947 169.57 294.142C165.294 298.337 160.293 301.604 154.566 303.943C148.919 306.282 142.748 307.452 136.053 307.452ZM136.053 292.448C140.489 292.448 144.563 291.682 148.274 290.149C151.984 288.536 155.211 286.317 157.954 283.494C160.777 280.671 162.915 277.323 164.367 273.451C165.899 269.579 166.666 265.384 166.666 260.867C166.666 256.35 165.899 252.195 164.367 248.404C162.915 244.532 160.777 241.184 157.954 238.361C155.211 235.457 151.984 233.239 148.274 231.706C144.563 230.173 140.489 229.407 136.053 229.407C131.697 229.407 127.663 230.173 123.953 231.706C120.242 233.239 116.975 235.457 114.152 238.361C111.409 241.184 109.271 244.532 107.739 248.404C106.206 252.195 105.44 256.35 105.44 260.867C105.44 265.384 106.206 269.579 107.739 273.451C109.271 277.323 111.409 280.671 114.152 283.494C116.975 286.317 120.242 288.536 123.953 290.149C127.663 291.682 131.697 292.448 136.053 292.448ZM188.074 330.2V240.176H202.957V253.244L201.505 249.977C203.764 246.428 206.829 243.685 210.701 241.749C214.573 239.732 219.05 238.724 224.132 238.724C230.344 238.724 235.95 240.257 240.951 243.322C245.953 246.387 249.905 250.501 252.809 255.664C255.794 260.827 257.286 266.635 257.286 273.088C257.286 279.461 255.834 285.269 252.93 290.512C250.026 295.755 246.074 299.91 241.072 302.975C236.071 305.96 230.384 307.452 224.011 307.452C219.252 307.452 214.856 306.524 210.822 304.669C206.87 302.733 203.724 299.99 201.384 296.441L203.925 293.295V330.2H188.074ZM222.196 292.932C225.826 292.932 229.053 292.085 231.876 290.391C234.7 288.697 236.878 286.358 238.41 283.373C240.024 280.388 240.83 276.96 240.83 273.088C240.83 269.216 240.024 265.828 238.41 262.924C236.878 259.939 234.7 257.6 231.876 255.906C229.053 254.131 225.826 253.244 222.196 253.244C218.728 253.244 215.582 254.091 212.758 255.785C210.016 257.479 207.838 259.859 206.224 262.924C204.692 265.909 203.925 269.297 203.925 273.088C203.925 276.96 204.692 280.388 206.224 283.373C207.838 286.358 210.016 288.697 212.758 290.391C215.582 292.085 218.728 292.932 222.196 292.932ZM289.728 306.726C282.306 306.726 276.539 304.709 272.425 300.676C268.391 296.562 266.375 290.794 266.375 283.373V254.333H255.001V240.176H256.211C259.437 240.176 261.938 239.329 263.713 237.635C265.487 235.941 266.375 233.481 266.375 230.254V225.172H282.226V240.176H297.351V254.333H282.226V282.526C282.226 284.704 282.589 286.559 283.315 288.092C284.121 289.625 285.331 290.794 286.945 291.601C288.639 292.408 290.776 292.811 293.358 292.811C293.922 292.811 294.568 292.771 295.294 292.69C296.1 292.609 296.867 292.529 297.593 292.448V306C296.463 306.161 295.173 306.323 293.721 306.484C292.269 306.645 290.938 306.726 289.728 306.726ZM331.86 307.452C325.084 307.452 319.155 305.919 314.073 302.854C308.991 299.789 305.038 295.634 302.215 290.391C299.392 285.148 297.98 279.34 297.98 272.967C297.98 266.352 299.392 260.504 302.215 255.422C305.119 250.259 309.031 246.186 313.952 243.201C318.953 240.216 324.519 238.724 330.65 238.724C335.813 238.724 340.33 239.571 344.202 241.265C348.155 242.959 351.502 245.298 354.245 248.283C356.988 251.268 359.085 254.696 360.537 258.568C361.989 262.359 362.715 266.473 362.715 270.91C362.715 272.039 362.634 273.209 362.473 274.419C362.392 275.629 362.191 276.678 361.868 277.565H311.048V265.465H352.914L345.412 271.152C346.138 267.441 345.936 264.134 344.807 261.23C343.758 258.326 341.984 256.027 339.483 254.333C337.063 252.639 334.119 251.792 330.65 251.792C327.343 251.792 324.398 252.639 321.817 254.333C319.236 255.946 317.259 258.366 315.888 261.593C314.597 264.739 314.113 268.571 314.436 273.088C314.113 277.121 314.638 280.711 316.009 283.857C317.461 286.922 319.558 289.302 322.301 290.996C325.124 292.69 328.351 293.537 331.981 293.537C335.611 293.537 338.676 292.771 341.177 291.238C343.758 289.705 345.775 287.648 347.227 285.067L360.053 291.359C358.762 294.505 356.746 297.288 354.003 299.708C351.26 302.128 347.993 304.024 344.202 305.395C340.491 306.766 336.377 307.452 331.86 307.452ZM366.261 306V240.176H381.144V254.817L379.934 252.639C381.467 247.718 383.846 244.29 387.073 242.354C390.38 240.418 394.333 239.45 398.931 239.45H402.803V253.486H397.116C392.599 253.486 388.969 254.898 386.226 257.721C383.483 260.464 382.112 264.336 382.112 269.337V306H366.261ZM424.223 307.452C419.625 307.452 415.632 306.686 412.244 305.153C408.856 303.62 406.234 301.442 404.379 298.619C402.523 295.715 401.596 292.367 401.596 288.576C401.596 284.946 402.402 281.719 404.016 278.896C405.629 275.992 408.13 273.572 411.518 271.636C414.906 269.7 419.181 268.329 424.344 267.522L445.882 264.013V276.113L427.369 279.259C424.223 279.824 421.883 280.832 420.351 282.284C418.818 283.736 418.052 285.632 418.052 287.971C418.052 290.23 418.899 292.045 420.593 293.416C422.367 294.707 424.545 295.352 427.127 295.352C430.434 295.352 433.338 294.666 435.839 293.295C438.42 291.843 440.396 289.867 441.768 287.366C443.22 284.865 443.946 282.123 443.946 279.138V262.198C443.946 259.375 442.816 257.035 440.558 255.18C438.38 253.244 435.476 252.276 431.846 252.276C428.458 252.276 425.433 253.204 422.771 255.059C420.189 256.834 418.294 259.213 417.084 262.198L404.137 255.906C405.427 252.437 407.444 249.453 410.187 246.952C413.01 244.371 416.317 242.354 420.109 240.902C423.9 239.45 428.014 238.724 432.451 238.724C437.855 238.724 442.615 239.732 446.729 241.749C450.843 243.685 454.029 246.428 456.288 249.977C458.627 253.446 459.797 257.519 459.797 262.198V306H444.793V294.747L448.181 294.505C446.487 297.328 444.47 299.708 442.131 301.644C439.791 303.499 437.129 304.951 434.145 306C431.16 306.968 427.853 307.452 424.223 307.452Z"/>
</mask>
<path d="M136.053 307.452C129.438 307.452 123.267 306.282 117.54 303.943C111.812 301.604 106.811 298.337 102.536 294.142C98.2604 289.947 94.9128 285.027 92.4928 279.38C90.1534 273.653 88.9838 267.482 88.9838 260.867C88.9838 254.172 90.1534 248.001 92.4928 242.354C94.8321 236.707 98.1394 231.787 102.415 227.592C106.69 223.397 111.691 220.171 117.419 217.912C123.146 215.573 129.357 214.403 136.053 214.403C142.748 214.403 148.959 215.573 154.687 217.912C160.414 220.251 165.415 223.518 169.691 227.713C173.966 231.827 177.273 236.707 179.613 242.354C182.033 248.001 183.243 254.172 183.243 260.867C183.243 267.482 182.033 273.653 179.613 279.38C177.193 285.027 173.845 289.947 169.57 294.142C165.294 298.337 160.293 301.604 154.566 303.943C148.919 306.282 142.748 307.452 136.053 307.452ZM136.053 292.448C140.489 292.448 144.563 291.682 148.274 290.149C151.984 288.536 155.211 286.317 157.954 283.494C160.777 280.671 162.915 277.323 164.367 273.451C165.899 269.579 166.666 265.384 166.666 260.867C166.666 256.35 165.899 252.195 164.367 248.404C162.915 244.532 160.777 241.184 157.954 238.361C155.211 235.457 151.984 233.239 148.274 231.706C144.563 230.173 140.489 229.407 136.053 229.407C131.697 229.407 127.663 230.173 123.953 231.706C120.242 233.239 116.975 235.457 114.152 238.361C111.409 241.184 109.271 244.532 107.739 248.404C106.206 252.195 105.44 256.35 105.44 260.867C105.44 265.384 106.206 269.579 107.739 273.451C109.271 277.323 111.409 280.671 114.152 283.494C116.975 286.317 120.242 288.536 123.953 290.149C127.663 291.682 131.697 292.448 136.053 292.448ZM188.074 330.2V240.176H202.957V253.244L201.505 249.977C203.764 246.428 206.829 243.685 210.701 241.749C214.573 239.732 219.05 238.724 224.132 238.724C230.344 238.724 235.95 240.257 240.951 243.322C245.953 246.387 249.905 250.501 252.809 255.664C255.794 260.827 257.286 266.635 257.286 273.088C257.286 279.461 255.834 285.269 252.93 290.512C250.026 295.755 246.074 299.91 241.072 302.975C236.071 305.96 230.384 307.452 224.011 307.452C219.252 307.452 214.856 306.524 210.822 304.669C206.87 302.733 203.724 299.99 201.384 296.441L203.925 293.295V330.2H188.074ZM222.196 292.932C225.826 292.932 229.053 292.085 231.876 290.391C234.7 288.697 236.878 286.358 238.41 283.373C240.024 280.388 240.83 276.96 240.83 273.088C240.83 269.216 240.024 265.828 238.41 262.924C236.878 259.939 234.7 257.6 231.876 255.906C229.053 254.131 225.826 253.244 222.196 253.244C218.728 253.244 215.582 254.091 212.758 255.785C210.016 257.479 207.838 259.859 206.224 262.924C204.692 265.909 203.925 269.297 203.925 273.088C203.925 276.96 204.692 280.388 206.224 283.373C207.838 286.358 210.016 288.697 212.758 290.391C215.582 292.085 218.728 292.932 222.196 292.932ZM289.728 306.726C282.306 306.726 276.539 304.709 272.425 300.676C268.391 296.562 266.375 290.794 266.375 283.373V254.333H255.001V240.176H256.211C259.437 240.176 261.938 239.329 263.713 237.635C265.487 235.941 266.375 233.481 266.375 230.254V225.172H282.226V240.176H297.351V254.333H282.226V282.526C282.226 284.704 282.589 286.559 283.315 288.092C284.121 289.625 285.331 290.794 286.945 291.601C288.639 292.408 290.776 292.811 293.358 292.811C293.922 292.811 294.568 292.771 295.294 292.69C296.1 292.609 296.867 292.529 297.593 292.448V306C296.463 306.161 295.173 306.323 293.721 306.484C292.269 306.645 290.938 306.726 289.728 306.726ZM331.86 307.452C325.084 307.452 319.155 305.919 314.073 302.854C308.991 299.789 305.038 295.634 302.215 290.391C299.392 285.148 297.98 279.34 297.98 272.967C297.98 266.352 299.392 260.504 302.215 255.422C305.119 250.259 309.031 246.186 313.952 243.201C318.953 240.216 324.519 238.724 330.65 238.724C335.813 238.724 340.33 239.571 344.202 241.265C348.155 242.959 351.502 245.298 354.245 248.283C356.988 251.268 359.085 254.696 360.537 258.568C361.989 262.359 362.715 266.473 362.715 270.91C362.715 272.039 362.634 273.209 362.473 274.419C362.392 275.629 362.191 276.678 361.868 277.565H311.048V265.465H352.914L345.412 271.152C346.138 267.441 345.936 264.134 344.807 261.23C343.758 258.326 341.984 256.027 339.483 254.333C337.063 252.639 334.119 251.792 330.65 251.792C327.343 251.792 324.398 252.639 321.817 254.333C319.236 255.946 317.259 258.366 315.888 261.593C314.597 264.739 314.113 268.571 314.436 273.088C314.113 277.121 314.638 280.711 316.009 283.857C317.461 286.922 319.558 289.302 322.301 290.996C325.124 292.69 328.351 293.537 331.981 293.537C335.611 293.537 338.676 292.771 341.177 291.238C343.758 289.705 345.775 287.648 347.227 285.067L360.053 291.359C358.762 294.505 356.746 297.288 354.003 299.708C351.26 302.128 347.993 304.024 344.202 305.395C340.491 306.766 336.377 307.452 331.86 307.452ZM366.261 306V240.176H381.144V254.817L379.934 252.639C381.467 247.718 383.846 244.29 387.073 242.354C390.38 240.418 394.333 239.45 398.931 239.45H402.803V253.486H397.116C392.599 253.486 388.969 254.898 386.226 257.721C383.483 260.464 382.112 264.336 382.112 269.337V306H366.261ZM424.223 307.452C419.625 307.452 415.632 306.686 412.244 305.153C408.856 303.62 406.234 301.442 404.379 298.619C402.523 295.715 401.596 292.367 401.596 288.576C401.596 284.946 402.402 281.719 404.016 278.896C405.629 275.992 408.13 273.572 411.518 271.636C414.906 269.7 419.181 268.329 424.344 267.522L445.882 264.013V276.113L427.369 279.259C424.223 279.824 421.883 280.832 420.351 282.284C418.818 283.736 418.052 285.632 418.052 287.971C418.052 290.23 418.899 292.045 420.593 293.416C422.367 294.707 424.545 295.352 427.127 295.352C430.434 295.352 433.338 294.666 435.839 293.295C438.42 291.843 440.396 289.867 441.768 287.366C443.22 284.865 443.946 282.123 443.946 279.138V262.198C443.946 259.375 442.816 257.035 440.558 255.18C438.38 253.244 435.476 252.276 431.846 252.276C428.458 252.276 425.433 253.204 422.771 255.059C420.189 256.834 418.294 259.213 417.084 262.198L404.137 255.906C405.427 252.437 407.444 249.453 410.187 246.952C413.01 244.371 416.317 242.354 420.109 240.902C423.9 239.45 428.014 238.724 432.451 238.724C437.855 238.724 442.615 239.732 446.729 241.749C450.843 243.685 454.029 246.428 456.288 249.977C458.627 253.446 459.797 257.519 459.797 262.198V306H444.793V294.747L448.181 294.505C446.487 297.328 444.47 299.708 442.131 301.644C439.791 303.499 437.129 304.951 434.145 306C431.16 306.968 427.853 307.452 424.223 307.452Z" fill="#36322F"/>
<path d="M117.54 303.943L117.494 304.054L117.494 304.054L117.54 303.943ZM102.536 294.142L102.452 294.228L102.452 294.228L102.536 294.142ZM92.4928 279.38L92.3817 279.425L92.3825 279.427L92.4928 279.38ZM92.4928 242.354L92.6036 242.4L92.6036 242.4L92.4928 242.354ZM102.415 227.592L102.499 227.678L102.499 227.678L102.415 227.592ZM117.419 217.912L117.463 218.024L117.464 218.023L117.419 217.912ZM154.687 217.912L154.732 217.801L154.732 217.801L154.687 217.912ZM169.691 227.713L169.607 227.799L169.608 227.799L169.691 227.713ZM179.613 242.354L179.502 242.4L179.502 242.401L179.613 242.354ZM179.613 279.38L179.723 279.427L179.723 279.427L179.613 279.38ZM169.57 294.142L169.486 294.056L169.486 294.056L169.57 294.142ZM154.566 303.943L154.52 303.832L154.52 303.832L154.566 303.943ZM148.274 290.149L148.32 290.26L148.322 290.259L148.274 290.149ZM157.954 283.494L157.869 283.409L157.868 283.41L157.954 283.494ZM164.367 273.451L164.255 273.407L164.254 273.409L164.367 273.451ZM164.367 248.404L164.254 248.446L164.256 248.449L164.367 248.404ZM157.954 238.361L157.867 238.443L157.869 238.446L157.954 238.361ZM148.274 231.706L148.228 231.817L148.274 231.706ZM114.152 238.361L114.066 238.277L114.066 238.277L114.152 238.361ZM107.739 248.404L107.85 248.449L107.85 248.448L107.739 248.404ZM107.739 273.451L107.85 273.407L107.85 273.407L107.739 273.451ZM114.152 283.494L114.066 283.578L114.067 283.579L114.152 283.494ZM123.953 290.149L123.905 290.259L123.907 290.26L123.953 290.149ZM136.053 307.332C129.453 307.332 123.297 306.165 117.585 303.832L117.494 304.054C123.237 306.4 129.424 307.572 136.053 307.572V307.332ZM117.585 303.832C111.872 301.498 106.884 298.24 102.62 294.056L102.452 294.228C106.739 298.434 111.753 301.709 117.494 304.054L117.585 303.832ZM102.62 294.056C98.3559 289.873 95.0171 284.965 92.6031 279.333L92.3825 279.427C94.8085 285.088 98.1649 290.022 102.452 294.228L102.62 294.056ZM92.6039 279.335C90.2708 273.623 89.1038 267.467 89.1038 260.867H88.8638C88.8638 267.496 90.0361 273.683 92.3817 279.425L92.6039 279.335ZM89.1038 260.867C89.1038 254.186 90.2709 248.031 92.6036 242.4L92.3819 242.308C90.036 247.971 88.8638 254.157 88.8638 260.867H89.1038ZM92.6036 242.4C94.9369 236.768 98.2352 231.861 102.499 227.678L102.331 227.506C98.0436 231.713 94.7273 236.647 92.3819 242.308L92.6036 242.4ZM102.499 227.678C106.762 223.495 111.75 220.277 117.463 218.024L117.375 217.8C111.633 220.065 106.618 223.3 102.331 227.506L102.499 227.678ZM117.464 218.023C123.176 215.69 129.372 214.523 136.053 214.523V214.283C129.343 214.283 123.116 215.455 117.373 217.801L117.464 218.023ZM136.053 214.523C142.734 214.523 148.93 215.69 154.641 218.023L154.732 217.801C148.989 215.455 142.762 214.283 136.053 214.283V214.523ZM154.641 218.023C160.355 220.357 165.343 223.615 169.607 227.799L169.775 227.627C165.488 223.421 160.473 220.146 154.732 217.801L154.641 218.023ZM169.608 227.799C173.871 231.902 177.169 236.768 179.502 242.4L179.724 242.308C177.378 236.647 174.062 231.752 169.774 227.627L169.608 227.799ZM179.502 242.401C181.916 248.032 183.123 254.186 183.123 260.867H183.363C183.363 254.157 182.15 247.97 179.723 242.307L179.502 242.401ZM183.123 260.867C183.123 267.467 181.916 273.622 179.502 279.333L179.723 279.427C182.15 273.684 183.363 267.497 183.363 260.867H183.123ZM179.502 279.333C177.088 284.965 173.75 289.873 169.486 294.056L169.654 294.228C173.941 290.022 177.297 285.088 179.723 279.427L179.502 279.333ZM169.486 294.056C165.222 298.24 160.234 301.498 154.52 303.832L154.611 304.054C160.352 301.709 165.367 298.434 169.654 294.228L169.486 294.056ZM154.52 303.832C148.889 306.165 142.734 307.332 136.053 307.332V307.572C142.762 307.572 148.949 306.4 154.612 304.054L154.52 303.832ZM136.053 292.568C140.504 292.568 144.593 291.799 148.32 290.26L148.228 290.038C144.533 291.564 140.475 292.328 136.053 292.328V292.568ZM148.322 290.259C152.046 288.64 155.286 286.412 158.04 283.578L157.868 283.41C155.136 286.222 151.923 288.432 148.226 290.039L148.322 290.259ZM158.039 283.579C160.875 280.743 163.021 277.381 164.479 273.493L164.254 273.409C162.808 277.265 160.68 280.598 157.869 283.409L158.039 283.579ZM164.478 273.495C166.017 269.608 166.786 265.398 166.786 260.867H166.546C166.546 265.37 165.782 269.55 164.255 273.407L164.478 273.495ZM166.786 260.867C166.786 256.336 166.017 252.166 164.478 248.359L164.256 248.449C165.782 252.225 166.546 256.363 166.546 260.867H166.786ZM164.479 248.362C163.021 244.474 160.875 241.112 158.039 238.276L157.869 238.446C160.68 241.257 162.808 244.59 164.254 248.446L164.479 248.362ZM158.041 238.279C155.287 235.362 152.046 233.134 148.32 231.595L148.228 231.817C151.923 233.343 155.136 235.552 157.867 238.443L158.041 238.279ZM148.32 231.595C144.593 230.056 140.504 229.287 136.053 229.287V229.527C140.475 229.527 144.533 230.291 148.228 231.817L148.32 231.595ZM136.053 229.287C131.682 229.287 127.633 230.056 123.907 231.595L123.999 231.817C127.694 230.291 131.711 229.527 136.053 229.527V229.287ZM123.907 231.595C120.181 233.134 116.9 235.362 114.066 238.277L114.238 238.445C117.05 235.552 120.303 233.343 123.999 231.817L123.907 231.595ZM114.066 238.277C111.311 241.113 109.165 244.474 107.627 248.36L107.85 248.448C109.378 244.59 111.507 241.256 114.238 238.445L114.066 238.277ZM107.628 248.359C106.089 252.166 105.32 256.336 105.32 260.867H105.56C105.56 256.363 106.324 252.225 107.85 248.449L107.628 248.359ZM105.32 260.867C105.32 265.398 106.089 269.608 107.627 273.495L107.85 273.407C106.324 269.55 105.56 265.37 105.56 260.867H105.32ZM107.627 273.495C109.165 277.381 111.311 280.742 114.066 283.578L114.238 283.41C111.507 280.599 109.378 277.265 107.85 273.407L107.627 273.495ZM114.067 283.579C116.901 286.413 120.181 288.64 123.905 290.259L124.001 290.039C120.304 288.432 117.049 286.222 114.237 283.409L114.067 283.579ZM123.907 290.26C127.633 291.799 131.682 292.568 136.053 292.568V292.328C131.711 292.328 127.694 291.564 123.999 290.038L123.907 290.26ZM188.074 330.2H187.954V330.32H188.074V330.2ZM188.074 240.176V240.056H187.954V240.176H188.074ZM202.957 240.176H203.077V240.056H202.957V240.176ZM202.957 253.244L202.848 253.293L203.077 253.244H202.957ZM201.505 249.977L201.404 249.913L201.369 249.967L201.396 250.026L201.505 249.977ZM210.701 241.749L210.755 241.856L210.757 241.855L210.701 241.749ZM240.951 243.322L240.889 243.424L240.889 243.424L240.951 243.322ZM252.809 255.664L252.705 255.723L252.705 255.724L252.809 255.664ZM252.93 290.512L252.825 290.454L252.825 290.454L252.93 290.512ZM241.072 302.975L241.134 303.078L241.135 303.077L241.072 302.975ZM210.822 304.669L210.769 304.777L210.772 304.778L210.822 304.669ZM201.384 296.441L201.291 296.366L201.236 296.434L201.284 296.507L201.384 296.441ZM203.925 293.295H204.045V292.955L203.832 293.22L203.925 293.295ZM203.925 330.2V330.32H204.045V330.2H203.925ZM231.876 290.391L231.815 290.288L231.815 290.288L231.876 290.391ZM238.41 283.373L238.305 283.316L238.304 283.318L238.41 283.373ZM238.41 262.924L238.303 262.979L238.305 262.982L238.41 262.924ZM231.876 255.906L231.812 256.008L231.815 256.009L231.876 255.906ZM212.758 255.785L212.697 255.682L212.695 255.683L212.758 255.785ZM206.224 262.924L206.118 262.868L206.118 262.869L206.224 262.924ZM206.224 283.373L206.117 283.428L206.119 283.43L206.224 283.373ZM212.758 290.391L212.695 290.493L212.697 290.494L212.758 290.391ZM188.194 330.2V240.176H187.954V330.2H188.194ZM188.074 240.296H202.957V240.056H188.074V240.296ZM202.837 240.176V253.244H203.077V240.176H202.837ZM203.067 253.195L201.615 249.928L201.396 250.026L202.848 253.293L203.067 253.195ZM201.607 250.041C203.853 246.511 206.902 243.783 210.755 241.856L210.648 241.642C206.757 243.587 203.675 246.344 201.404 249.913L201.607 250.041ZM210.757 241.855C214.609 239.849 219.066 238.844 224.132 238.844V238.604C219.034 238.604 214.538 239.616 210.646 241.643L210.757 241.855ZM224.132 238.844C230.323 238.844 235.907 240.371 240.889 243.424L241.014 243.22C235.993 240.142 230.364 238.604 224.132 238.604V238.844ZM240.889 243.424C245.872 246.479 249.811 250.578 252.705 255.723L252.914 255.605C250 250.425 246.033 246.296 241.014 243.22L240.889 243.424ZM252.705 255.724C255.679 260.867 257.166 266.654 257.166 273.088H257.406C257.406 266.615 255.909 260.786 252.913 255.604L252.705 255.724ZM257.166 273.088C257.166 279.442 255.719 285.229 252.825 290.454L253.035 290.57C255.95 285.308 257.406 279.48 257.406 273.088H257.166ZM252.825 290.454C249.931 295.679 245.993 299.818 241.01 302.873L241.135 303.077C246.154 300.001 250.121 295.831 253.035 290.57L252.825 290.454ZM241.011 302.872C236.03 305.844 230.364 307.332 224.011 307.332V307.572C230.403 307.572 236.112 306.075 241.134 303.078L241.011 302.872ZM224.011 307.332C219.268 307.332 214.889 306.408 210.872 304.56L210.772 304.778C214.822 306.641 219.236 307.572 224.011 307.572V307.332ZM210.875 304.561C206.941 302.634 203.812 299.906 201.484 296.375L201.284 296.507C203.636 300.075 206.798 302.832 210.769 304.777L210.875 304.561ZM201.478 296.516L204.019 293.37L203.832 293.22L201.291 296.366L201.478 296.516ZM203.805 293.295V330.2H204.045V293.295H203.805ZM203.925 330.08H188.074V330.32H203.925V330.08ZM222.196 293.052C225.846 293.052 229.094 292.2 231.938 290.494L231.815 290.288C229.012 291.97 225.807 292.812 222.196 292.812V293.052ZM231.938 290.494C234.781 288.788 236.974 286.432 238.517 283.428L238.304 283.318C236.781 286.283 234.618 288.606 231.815 290.288L231.938 290.494ZM238.516 283.43C240.14 280.426 240.95 276.977 240.95 273.088H240.71C240.71 276.943 239.907 280.351 238.305 283.316L238.516 283.43ZM240.95 273.088C240.95 269.199 240.14 265.79 238.515 262.866L238.305 262.982C239.907 265.866 240.71 269.233 240.71 273.088H240.95ZM238.517 262.869C236.974 259.865 234.781 257.509 231.938 255.803L231.815 256.009C234.618 257.691 236.781 260.014 238.304 262.979L238.517 262.869ZM231.94 255.804C229.096 254.017 225.847 253.124 222.196 253.124V253.364C225.806 253.364 229.01 254.246 231.812 256.008L231.94 255.804ZM222.196 253.124C218.707 253.124 215.54 253.976 212.697 255.682L212.82 255.888C215.624 254.206 218.748 253.364 222.196 253.364V253.124ZM212.695 255.683C209.933 257.389 207.741 259.785 206.118 262.868L206.33 262.98C207.935 259.932 210.098 257.569 212.821 255.887L212.695 255.683ZM206.118 262.869C204.575 265.873 203.805 269.28 203.805 273.088H204.045C204.045 269.313 204.808 265.944 206.331 262.979L206.118 262.869ZM203.805 273.088C203.805 276.976 204.575 280.424 206.118 283.428L206.331 283.318C204.808 280.353 204.045 276.944 204.045 273.088H203.805ZM206.119 283.43C207.741 286.432 209.934 288.787 212.695 290.493L212.821 290.289C210.097 288.607 207.934 286.283 206.33 283.316L206.119 283.43ZM212.697 290.494C215.54 292.2 218.707 293.052 222.196 293.052V292.812C218.748 292.812 215.624 291.97 212.82 290.288L212.697 290.494ZM272.425 300.676L272.339 300.76L272.34 300.762L272.425 300.676ZM266.375 254.333H266.495V254.213H266.375V254.333ZM255.001 254.333H254.881V254.453H255.001V254.333ZM255.001 240.176V240.056H254.881V240.176H255.001ZM263.713 237.635L263.795 237.722L263.795 237.722L263.713 237.635ZM266.375 225.172V225.052H266.255V225.172H266.375ZM282.226 225.172H282.346V225.052H282.226V225.172ZM282.226 240.176H282.106V240.296H282.226V240.176ZM297.351 240.176H297.471V240.056H297.351V240.176ZM297.351 254.333V254.453H297.471V254.333H297.351ZM282.226 254.333V254.213H282.106V254.333H282.226ZM283.315 288.092L283.206 288.143L283.208 288.148L283.315 288.092ZM286.945 291.601L286.891 291.708L286.893 291.709L286.945 291.601ZM295.294 292.69L295.282 292.571L295.28 292.571L295.294 292.69ZM297.593 292.448H297.713V292.314L297.579 292.329L297.593 292.448ZM297.593 306L297.609 306.119L297.713 306.104V306H297.593ZM293.721 306.484L293.734 306.603L293.721 306.484ZM289.728 306.606C282.328 306.606 276.594 304.596 272.509 300.59L272.34 300.762C276.483 304.823 282.284 306.846 289.728 306.846V306.606ZM272.51 300.592C268.505 296.506 266.495 290.772 266.495 283.373H266.255C266.255 290.816 268.278 296.618 272.339 300.76L272.51 300.592ZM266.495 283.373V254.333H266.255V283.373H266.495ZM266.375 254.213H255.001V254.453H266.375V254.213ZM255.121 254.333V240.176H254.881V254.333H255.121ZM255.001 240.296H256.211V240.056H255.001V240.296ZM256.211 240.296C259.458 240.296 261.992 239.443 263.795 237.722L263.63 237.548C261.884 239.215 259.416 240.056 256.211 240.056V240.296ZM263.795 237.722C265.601 235.999 266.495 233.503 266.495 230.254H266.255C266.255 233.459 265.374 235.883 263.63 237.548L263.795 237.722ZM266.495 230.254V225.172H266.255V230.254H266.495ZM266.375 225.292H282.226V225.052H266.375V225.292ZM282.106 225.172V240.176H282.346V225.172H282.106ZM282.226 240.296H297.351V240.056H282.226V240.296ZM297.231 240.176V254.333H297.471V240.176H297.231ZM297.351 254.213H282.226V254.453H297.351V254.213ZM282.106 254.333V282.526H282.346V254.333H282.106ZM282.106 282.526C282.106 284.717 282.471 286.591 283.206 288.143L283.423 288.041C282.706 286.528 282.346 284.691 282.346 282.526H282.106ZM283.208 288.148C284.027 289.704 285.256 290.891 286.891 291.708L286.998 291.494C285.406 290.698 284.215 289.546 283.421 288.036L283.208 288.148ZM286.893 291.709C288.608 292.526 290.765 292.931 293.358 292.931V292.691C290.788 292.691 288.669 292.289 286.996 291.493L286.893 291.709ZM293.358 292.931C293.928 292.931 294.578 292.89 295.307 292.809L295.28 292.571C294.557 292.651 293.917 292.691 293.358 292.691V292.931ZM295.305 292.809C296.113 292.729 296.879 292.648 297.606 292.567L297.579 292.329C296.854 292.409 296.088 292.49 295.282 292.571L295.305 292.809ZM297.473 292.448V306H297.713V292.448H297.473ZM297.576 305.881C296.448 306.042 295.158 306.204 293.707 306.365L293.734 306.603C295.187 306.442 296.479 306.28 297.609 306.119L297.576 305.881ZM293.707 306.365C292.259 306.526 290.932 306.606 289.728 306.606V306.846C290.943 306.846 292.278 306.765 293.734 306.603L293.707 306.365ZM314.073 302.854L314.011 302.957L314.011 302.957L314.073 302.854ZM302.215 290.391L302.321 290.334L302.215 290.391ZM302.215 255.422L302.11 255.363L302.11 255.364L302.215 255.422ZM313.952 243.201L313.891 243.098L313.89 243.098L313.952 243.201ZM344.202 241.265L344.154 241.375L344.155 241.375L344.202 241.265ZM354.245 248.283L354.157 248.364L354.157 248.364L354.245 248.283ZM360.537 258.568L360.425 258.61L360.425 258.611L360.537 258.568ZM362.473 274.419L362.354 274.403L362.353 274.411L362.473 274.419ZM361.868 277.565V277.685H361.952L361.981 277.606L361.868 277.565ZM311.048 277.565H310.928V277.685H311.048V277.565ZM311.048 265.465V265.345H310.928V265.465H311.048ZM352.914 265.465L352.987 265.561L353.271 265.345H352.914V265.465ZM345.412 271.152L345.294 271.129L345.234 271.438L345.485 271.248L345.412 271.152ZM344.807 261.23L344.694 261.271L344.695 261.273L344.807 261.23ZM339.483 254.333L339.414 254.431L339.416 254.432L339.483 254.333ZM321.817 254.333L321.881 254.435L321.883 254.433L321.817 254.333ZM315.888 261.593L315.778 261.546L315.777 261.547L315.888 261.593ZM314.436 273.088L314.556 273.098L314.556 273.089L314.556 273.079L314.436 273.088ZM316.009 283.857L315.899 283.905L315.901 283.908L316.009 283.857ZM322.301 290.996L322.238 291.098L322.239 291.099L322.301 290.996ZM341.177 291.238L341.116 291.135L341.114 291.136L341.177 291.238ZM347.227 285.067L347.28 284.959L347.178 284.909L347.122 285.008L347.227 285.067ZM360.053 291.359L360.164 291.405L360.207 291.301L360.106 291.251L360.053 291.359ZM354.003 299.708L354.082 299.798L354.082 299.798L354.003 299.708ZM344.202 305.395L344.161 305.282L344.16 305.282L344.202 305.395ZM331.86 307.332C325.103 307.332 319.196 305.804 314.135 302.751L314.011 302.957C319.114 306.035 325.065 307.572 331.86 307.572V307.332ZM314.135 302.751C309.072 299.697 305.134 295.559 302.321 290.334L302.109 290.448C304.943 295.71 308.911 299.88 314.011 302.957L314.135 302.751ZM302.321 290.334C299.507 285.109 298.1 279.321 298.1 272.967H297.86C297.86 279.358 299.276 285.186 302.109 290.448L302.321 290.334ZM298.1 272.967C298.1 266.37 299.508 260.542 302.32 255.48L302.11 255.364C299.276 260.466 297.86 266.335 297.86 272.967H298.1ZM302.32 255.481C305.214 250.336 309.112 246.277 314.014 243.304L313.89 243.098C308.951 246.094 305.024 250.183 302.11 255.363L302.32 255.481ZM314.014 243.304C318.995 240.331 324.54 238.844 330.65 238.844V238.604C324.499 238.604 318.912 240.102 313.891 243.098L314.014 243.304ZM330.65 238.844C335.8 238.844 340.3 239.689 344.154 241.375L344.25 241.155C340.36 239.453 335.826 238.604 330.65 238.604V238.844ZM344.155 241.375C348.093 243.063 351.426 245.393 354.157 248.364L354.333 248.202C351.579 245.204 348.217 242.855 344.249 241.155L344.155 241.375ZM354.157 248.364C356.889 251.337 358.978 254.752 360.425 258.61L360.649 258.526C359.192 254.64 357.087 251.198 354.333 248.202L354.157 248.364ZM360.425 258.611C361.871 262.387 362.595 266.487 362.595 270.91H362.835C362.835 266.46 362.107 262.331 360.649 258.525L360.425 258.611ZM362.595 270.91C362.595 272.034 362.515 273.198 362.354 274.403L362.592 274.435C362.754 273.22 362.835 272.045 362.835 270.91H362.595ZM362.353 274.411C362.273 275.613 362.073 276.65 361.755 277.524L361.981 277.606C362.308 276.706 362.512 275.645 362.593 274.427L362.353 274.411ZM361.868 277.445H311.048V277.685H361.868V277.445ZM311.168 277.565V265.465H310.928V277.565H311.168ZM311.048 265.585H352.914V265.345H311.048V265.585ZM352.842 265.369L345.34 271.056L345.485 271.248L352.987 265.561L352.842 265.369ZM345.53 271.175C346.259 267.447 346.058 264.116 344.919 261.187L344.695 261.273C345.815 264.152 346.017 267.436 345.294 271.129L345.53 271.175ZM344.92 261.189C343.863 258.262 342.073 255.942 339.55 254.234L339.416 254.432C341.895 256.112 343.654 258.39 344.694 261.271L344.92 261.189ZM339.552 254.235C337.108 252.524 334.139 251.672 330.65 251.672V251.912C334.099 251.912 337.018 252.754 339.414 254.431L339.552 254.235ZM330.65 251.672C327.321 251.672 324.354 252.525 321.751 254.233L321.883 254.433C324.443 252.753 327.364 251.912 330.65 251.912V251.672ZM321.753 254.231C319.148 255.86 317.157 258.3 315.778 261.546L315.999 261.64C317.362 258.432 319.323 256.033 321.881 254.435L321.753 254.231ZM315.777 261.547C314.477 264.715 313.993 268.567 314.316 273.097L314.556 273.079C314.234 268.575 314.717 264.763 315.999 261.639L315.777 261.547ZM314.316 273.078C313.993 277.128 314.519 280.738 315.899 283.905L316.119 283.809C314.757 280.684 314.234 277.115 314.556 273.098L314.316 273.078ZM315.901 283.908C317.362 286.993 319.475 289.391 322.238 291.098L322.364 290.894C319.642 289.213 317.56 286.851 316.118 283.806L315.901 283.908ZM322.239 291.099C325.083 292.805 328.332 293.657 331.981 293.657V293.417C328.371 293.417 325.166 292.575 322.363 290.893L322.239 291.099ZM331.981 293.657C335.628 293.657 338.716 292.887 341.24 291.34L341.114 291.136C338.637 292.654 335.594 293.417 331.981 293.417V293.657ZM341.238 291.341C343.837 289.798 345.869 287.726 347.332 285.126L347.122 285.008C345.681 287.571 343.679 289.613 341.116 291.135L341.238 291.341ZM347.174 285.175L360 291.467L360.106 291.251L347.28 284.959L347.174 285.175ZM359.942 291.313C358.659 294.441 356.654 297.209 353.924 299.618L354.082 299.798C356.838 297.367 358.866 294.569 360.164 291.405L359.942 291.313ZM353.924 299.618C351.193 302.027 347.94 303.915 344.161 305.282L344.243 305.508C348.047 304.132 351.327 302.229 354.082 299.798L353.924 299.618ZM344.16 305.282C340.465 306.648 336.365 307.332 331.86 307.332V307.572C336.39 307.572 340.518 306.884 344.244 305.508L344.16 305.282ZM366.261 306H366.141V306.12H366.261V306ZM366.261 240.176V240.056H366.141V240.176H366.261ZM381.144 240.176H381.264V240.056H381.144V240.176ZM381.144 254.817L381.039 254.875L381.264 255.28V254.817H381.144ZM379.934 252.639L379.819 252.603L379.804 252.652L379.829 252.697L379.934 252.639ZM387.073 242.354L387.012 242.25L387.011 242.251L387.073 242.354ZM402.803 239.45H402.923V239.33H402.803V239.45ZM402.803 253.486V253.606H402.923V253.486H402.803ZM386.226 257.721L386.311 257.806L386.312 257.805L386.226 257.721ZM382.112 306V306.12H382.232V306H382.112ZM366.381 306V240.176H366.141V306H366.381ZM366.261 240.296H381.144V240.056H366.261V240.296ZM381.024 240.176V254.817H381.264V240.176H381.024ZM381.249 254.759L380.039 252.581L379.829 252.697L381.039 254.875L381.249 254.759ZM380.049 252.675C381.576 247.772 383.941 244.373 387.135 242.457L387.011 242.251C383.751 244.207 381.358 247.665 379.819 252.603L380.049 252.675ZM387.134 242.458C390.419 240.534 394.35 239.57 398.931 239.57V239.33C394.316 239.33 390.341 240.302 387.012 242.25L387.134 242.458ZM398.931 239.57H402.803V239.33H398.931V239.57ZM402.683 239.45V253.486H402.923V239.45H402.683ZM402.803 253.366H397.116V253.606H402.803V253.366ZM397.116 253.366C392.571 253.366 388.909 254.787 386.14 257.637L386.312 257.805C389.029 255.008 392.626 253.606 397.116 253.606V253.366ZM386.141 257.636C383.37 260.407 381.992 264.313 381.992 269.337H382.232C382.232 264.358 383.597 260.52 386.311 257.806L386.141 257.636ZM381.992 269.337V306H382.232V269.337H381.992ZM382.112 305.88H366.261V306.12H382.112V305.88ZM412.244 305.153L412.194 305.262L412.194 305.262L412.244 305.153ZM404.379 298.619L404.278 298.684L404.278 298.685L404.379 298.619ZM404.016 278.896L404.12 278.956L404.121 278.954L404.016 278.896ZM411.518 271.636L411.577 271.74L411.577 271.74L411.518 271.636ZM424.344 267.522L424.362 267.641L424.363 267.64L424.344 267.522ZM445.882 264.013H446.002V263.872L445.862 263.895L445.882 264.013ZM445.882 276.113L445.902 276.231L446.002 276.214V276.113H445.882ZM427.369 279.259L427.349 279.141L427.348 279.141L427.369 279.259ZM420.351 282.284L420.268 282.197L420.268 282.197L420.351 282.284ZM420.593 293.416L420.517 293.509L420.522 293.513L420.593 293.416ZM435.839 293.295L435.896 293.4L435.898 293.4L435.839 293.295ZM441.768 287.366L441.664 287.306L441.663 287.308L441.768 287.366ZM440.558 255.18L440.478 255.27L440.482 255.273L440.558 255.18ZM422.771 255.059L422.839 255.158L422.839 255.157L422.771 255.059ZM417.084 262.198L417.031 262.306L417.147 262.362L417.195 262.243L417.084 262.198ZM404.137 255.906L404.024 255.864L403.986 255.966L404.084 256.014L404.137 255.906ZM410.187 246.952L410.268 247.041L410.268 247.041L410.187 246.952ZM420.109 240.902L420.066 240.79L420.066 240.79L420.109 240.902ZM446.729 241.749L446.676 241.857L446.678 241.858L446.729 241.749ZM456.288 249.977L456.186 250.041L456.188 250.044L456.288 249.977ZM459.797 306V306.12H459.917V306H459.797ZM444.793 306H444.673V306.12H444.793V306ZM444.793 294.747L444.784 294.627L444.673 294.635V294.747H444.793ZM448.181 294.505L448.284 294.567L448.402 294.369L448.172 294.385L448.181 294.505ZM442.131 301.644L442.205 301.738L442.207 301.736L442.131 301.644ZM434.145 306L434.182 306.114L434.185 306.113L434.145 306ZM424.223 307.332C419.638 307.332 415.662 306.568 412.293 305.044L412.194 305.262C415.601 306.803 419.612 307.572 424.223 307.572V307.332ZM412.293 305.044C408.924 303.519 406.321 301.356 404.479 298.553L404.278 298.685C406.148 301.529 408.788 303.721 412.194 305.262L412.293 305.044ZM404.48 298.554C402.638 295.672 401.716 292.347 401.716 288.576H401.476C401.476 292.388 402.409 295.758 404.278 298.684L404.48 298.554ZM401.716 288.576C401.716 284.964 402.518 281.759 404.12 278.956L403.912 278.836C402.287 281.68 401.476 284.928 401.476 288.576H401.716ZM404.121 278.954C405.722 276.073 408.205 273.667 411.577 271.74L411.458 271.532C408.055 273.477 405.537 275.911 403.911 278.838L404.121 278.954ZM411.577 271.74C414.949 269.813 419.209 268.446 424.362 267.641L424.325 267.403C419.153 268.212 414.862 269.587 411.458 271.532L411.577 271.74ZM424.363 267.64L445.901 264.131L445.862 263.895L424.324 267.404L424.363 267.64ZM445.762 264.013V276.113H446.002V264.013H445.762ZM445.862 275.995L427.349 279.141L427.389 279.377L445.902 276.231L445.862 275.995ZM427.348 279.141C424.19 279.708 421.825 280.723 420.268 282.197L420.433 282.371C421.942 280.941 424.256 279.94 427.39 279.377L427.348 279.141ZM420.268 282.197C418.709 283.674 417.932 285.603 417.932 287.971H418.172C418.172 285.661 418.927 283.798 420.433 282.371L420.268 282.197ZM417.932 287.971C417.932 290.264 418.794 292.114 420.517 293.509L420.668 293.323C419.004 291.975 418.172 290.195 418.172 287.971H417.932ZM420.522 293.513C422.321 294.821 424.525 295.472 427.127 295.472V295.232C424.566 295.232 422.414 294.592 420.663 293.319L420.522 293.513ZM427.127 295.472C430.451 295.472 433.375 294.783 435.896 293.4L435.781 293.19C433.301 294.55 430.417 295.232 427.127 295.232V295.472ZM435.898 293.4C438.498 291.937 440.49 289.945 441.873 287.424L441.663 287.308C440.302 289.789 438.343 291.749 435.78 293.19L435.898 293.4ZM441.872 287.426C443.335 284.907 444.066 282.143 444.066 279.138H443.826C443.826 282.102 443.105 284.824 441.664 287.306L441.872 287.426ZM444.066 279.138V262.198H443.826V279.138H444.066ZM444.066 262.198C444.066 259.337 442.919 256.964 440.634 255.087L440.482 255.273C442.714 257.106 443.826 259.412 443.826 262.198H444.066ZM440.637 255.09C438.433 253.13 435.498 252.156 431.846 252.156V252.396C435.454 252.396 438.327 253.358 440.478 255.27L440.637 255.09ZM431.846 252.156C428.434 252.156 425.385 253.091 422.702 254.961L422.839 255.157C425.48 253.317 428.481 252.396 431.846 252.396V252.156ZM422.703 254.96C420.102 256.748 418.191 259.147 416.973 262.153L417.195 262.243C418.396 259.28 420.277 256.919 422.839 255.158L422.703 254.96ZM417.136 262.09L404.189 255.798L404.084 256.014L417.031 262.306L417.136 262.09ZM404.249 255.948C405.533 252.497 407.539 249.529 410.268 247.041L410.106 246.863C407.349 249.377 405.322 252.378 404.024 255.864L404.249 255.948ZM410.268 247.041C413.079 244.47 416.374 242.461 420.152 241.014L420.066 240.79C416.261 242.247 412.941 244.271 410.106 246.863L410.268 247.041ZM420.152 241.014C423.928 239.568 428.027 238.844 432.451 238.844V238.604C428.001 238.604 423.872 239.332 420.066 240.79L420.152 241.014ZM432.451 238.844C437.84 238.844 442.581 239.849 446.676 241.857L446.782 241.641C442.648 239.615 437.87 238.604 432.451 238.604V238.844ZM446.678 241.858C450.773 243.785 453.941 246.513 456.187 250.041L456.389 249.913C454.117 246.343 450.913 243.585 446.78 241.64L446.678 241.858ZM456.188 250.044C458.513 253.491 459.677 257.54 459.677 262.198H459.917C459.917 257.498 458.742 253.401 456.387 249.91L456.188 250.044ZM459.677 262.198V306H459.917V262.198H459.677ZM459.797 305.88H444.793V306.12H459.797V305.88ZM444.913 306V294.747H444.673V306H444.913ZM444.801 294.867L448.189 294.625L448.172 294.385L444.784 294.627L444.801 294.867ZM448.078 294.443C446.39 297.256 444.382 299.625 442.054 301.552L442.207 301.736C444.558 299.791 446.583 297.401 448.284 294.567L448.078 294.443ZM442.056 301.55C439.728 303.397 437.078 304.842 434.105 305.887L434.185 306.113C437.181 305.06 439.855 303.602 442.205 301.738L442.056 301.55ZM434.108 305.886C431.137 306.849 427.842 307.332 424.223 307.332V307.572C427.863 307.572 431.183 307.087 434.182 306.114L434.108 305.886Z" fill="#36322F" mask="url(#path-1-outside-1_74_56)"/>
</g>
<g id="Intersect">
<path fill-rule="evenodd" clip-rule="evenodd" d="M272.425 300.676C276.539 304.709 282.306 306.726 289.728 306.726C290.938 306.726 292.269 306.645 293.721 306.484C295.173 306.323 296.463 306.161 297.593 306V292.448C296.867 292.529 296.1 292.609 295.294 292.69C294.568 292.771 293.922 292.811 293.358 292.811C290.776 292.811 288.639 292.408 286.945 291.601C285.331 290.794 284.121 289.625 283.315 288.092C282.589 286.559 282.226 284.704 282.226 282.526V275.004C280.569 274.06 279.042 273.296 277.715 272.733C272.897 270.687 269.196 270.54 266.375 271.834V283.373C266.375 290.794 268.391 296.562 272.425 300.676Z" fill="url(#paint0_linear_74_56)"/>
<path d="M272.425 300.676L272.382 300.718L272.383 300.719L272.425 300.676ZM293.721 306.484L293.727 306.544L293.727 306.544L293.721 306.484ZM297.593 306L297.601 306.059L297.653 306.052V306H297.593ZM297.593 292.448H297.653V292.381L297.586 292.388L297.593 292.448ZM295.294 292.69L295.288 292.63L295.287 292.63L295.294 292.69ZM286.945 291.601L286.918 291.655L286.919 291.655L286.945 291.601ZM283.315 288.092L283.26 288.118L283.261 288.12L283.315 288.092ZM282.226 275.004H282.286V274.969L282.255 274.952L282.226 275.004ZM277.715 272.733L277.691 272.788L277.691 272.788L277.715 272.733ZM266.375 271.834L266.35 271.779L266.315 271.795V271.834H266.375ZM289.728 306.666C282.317 306.666 276.566 304.653 272.467 300.633L272.383 300.719C276.511 304.766 282.295 306.786 289.728 306.786V306.666ZM293.714 306.424C292.264 306.586 290.935 306.666 289.728 306.666V306.786C290.94 306.786 292.273 306.705 293.727 306.544L293.714 306.424ZM297.584 305.941C296.455 306.102 295.165 306.263 293.714 306.424L293.727 306.544C295.18 306.382 296.471 306.221 297.601 306.059L297.584 305.941ZM297.533 292.448V306H297.653V292.448H297.533ZM295.299 292.75C296.106 292.669 296.873 292.588 297.599 292.508L297.586 292.388C296.86 292.469 296.094 292.55 295.288 292.63L295.299 292.75ZM293.358 292.871C293.925 292.871 294.573 292.83 295.3 292.75L295.287 292.63C294.562 292.711 293.919 292.751 293.358 292.751V292.871ZM286.919 291.655C288.623 292.467 290.77 292.871 293.358 292.871V292.751C290.782 292.751 288.654 292.349 286.97 291.547L286.919 291.655ZM283.261 288.12C284.074 289.664 285.294 290.843 286.918 291.655L286.971 291.547C285.369 290.746 284.168 289.585 283.368 288.064L283.261 288.12ZM282.166 282.526C282.166 284.71 282.53 286.575 283.26 288.118L283.369 288.066C282.647 286.544 282.286 284.698 282.286 282.526H282.166ZM282.166 275.004V282.526H282.286V275.004H282.166ZM282.255 274.952C280.597 274.007 279.068 273.242 277.738 272.678L277.691 272.788C279.016 273.351 280.541 274.113 282.196 275.056L282.255 274.952ZM277.738 272.678C272.912 270.629 269.192 270.476 266.35 271.779L266.4 271.888C269.199 270.604 272.882 270.746 277.691 272.788L277.738 272.678ZM266.435 283.373V271.834H266.315V283.373H266.435ZM272.467 300.634C268.448 296.534 266.435 290.783 266.435 283.373H266.315C266.315 290.805 268.334 296.59 272.382 300.718L272.467 300.634Z" fill="#36322F"/>
</g>
<g id="Intersect_2">
<path fill-rule="evenodd" clip-rule="evenodd" d="M117.54 303.944C123.267 306.283 129.438 307.453 136.053 307.453C142.748 307.453 148.919 306.283 154.566 303.944C158.999 302.133 162.997 299.766 166.56 296.844C158.988 295.079 151.491 293.276 144.164 291.497C141.61 292.131 138.907 292.449 136.053 292.449C131.697 292.449 127.663 291.682 123.953 290.15C120.678 288.726 117.749 286.831 115.166 284.465C113.048 283.96 110.96 283.465 108.905 282.984C103.38 281.69 98.1135 280.978 93.1105 280.763C95.4713 285.834 98.6131 290.294 102.536 294.143C106.811 298.337 111.812 301.604 117.54 303.944ZM366.261 279.212C371.478 277.981 376.78 276.924 382.112 276.028V306.001H366.261V279.212ZM312.734 302.005C317.201 298.702 322.099 295.715 327.332 293.025C328.8 293.367 330.35 293.538 331.981 293.538C335.611 293.538 338.676 292.771 341.177 291.239C343.758 289.706 345.775 287.649 347.227 285.068L360.053 291.36C358.762 294.506 356.746 297.289 354.003 299.709C351.26 302.129 347.993 304.024 344.202 305.396C340.491 306.767 336.377 307.453 331.86 307.453C325.084 307.453 319.155 305.92 314.073 302.855C313.618 302.58 313.172 302.297 312.734 302.005ZM188.074 301.681C193.375 302.82 198.669 303.913 203.925 304.94V330.201H188.074V301.681ZM409.711 272.773C421.682 271.925 433.311 271.804 443.946 272.269C444.595 272.297 445.24 272.328 445.882 272.36C450.765 272.609 455.425 272.983 459.797 273.467V306.001H444.793V299.098C443.957 300.018 443.07 300.867 442.131 301.645C439.791 303.5 437.129 304.952 434.145 306.001C431.16 306.969 427.853 307.453 424.223 307.453C419.625 307.453 415.632 306.686 412.244 305.154C408.856 303.621 406.234 301.443 404.379 298.62C402.523 295.716 401.596 292.368 401.596 288.577C401.596 284.947 402.402 281.72 404.016 278.897C405.328 276.535 407.226 274.494 409.711 272.773ZM443.946 276.443L427.369 279.26C424.223 279.824 421.883 280.833 420.351 282.285C418.818 283.737 418.052 285.632 418.052 287.972C418.052 290.23 418.899 292.045 420.593 293.417C422.367 294.707 424.545 295.353 427.127 295.353C430.434 295.353 433.338 294.667 435.839 293.296C438.42 291.844 440.396 289.867 441.768 287.367C443.22 284.866 443.946 282.123 443.946 279.139V276.443Z" fill="url(#paint1_linear_74_56)"/>
<path d="M117.54 303.944L117.517 303.999L117.517 303.999L117.54 303.944ZM154.566 303.944L154.543 303.888L154.543 303.888L154.566 303.944ZM166.56 296.844L166.598 296.891L166.692 296.813L166.574 296.786L166.56 296.844ZM144.164 291.497L144.178 291.439L144.164 291.436L144.149 291.439L144.164 291.497ZM123.953 290.15L123.929 290.205L123.93 290.205L123.953 290.15ZM115.166 284.465L115.206 284.421L115.195 284.41L115.18 284.407L115.166 284.465ZM108.905 282.984L108.919 282.926L108.919 282.926L108.905 282.984ZM93.1105 280.763L93.1131 280.703L93.0144 280.699L93.0561 280.788L93.1105 280.763ZM102.536 294.143L102.494 294.185L102.494 294.185L102.536 294.143ZM382.112 276.028H382.172V275.958L382.102 275.969L382.112 276.028ZM366.261 279.212L366.247 279.154L366.201 279.165V279.212H366.261ZM382.112 306.001V306.061H382.172V306.001H382.112ZM366.261 306.001H366.201V306.061H366.261V306.001ZM327.332 293.025L327.346 292.966L327.324 292.961L327.305 292.971L327.332 293.025ZM312.734 302.005L312.699 301.956L312.63 302.007L312.701 302.054L312.734 302.005ZM341.177 291.239L341.146 291.187L341.146 291.187L341.177 291.239ZM347.227 285.068L347.254 285.014L347.203 284.989L347.175 285.038L347.227 285.068ZM360.053 291.36L360.109 291.382L360.13 291.33L360.08 291.306L360.053 291.36ZM354.003 299.709L353.963 299.664L353.963 299.664L354.003 299.709ZM344.202 305.396L344.182 305.339L344.181 305.339L344.202 305.396ZM314.073 302.855L314.104 302.803L314.104 302.803L314.073 302.855ZM203.925 304.94H203.985V304.89L203.937 304.881L203.925 304.94ZM188.074 301.681L188.087 301.622L188.014 301.606V301.681H188.074ZM203.925 330.201V330.261H203.985V330.201H203.925ZM188.074 330.201H188.014V330.261H188.074V330.201ZM443.946 272.269L443.948 272.209L443.948 272.209L443.946 272.269ZM409.711 272.773L409.707 272.713L409.691 272.714L409.677 272.723L409.711 272.773ZM445.882 272.36L445.885 272.3L445.885 272.3L445.882 272.36ZM459.797 273.467H459.857V273.413L459.803 273.407L459.797 273.467ZM459.797 306.001V306.061H459.857V306.001H459.797ZM444.793 306.001H444.733V306.061H444.793V306.001ZM444.793 299.098H444.853V298.942L444.748 299.057L444.793 299.098ZM442.131 301.645L442.168 301.692L442.169 301.691L442.131 301.645ZM434.145 306.001L434.163 306.058L434.165 306.057L434.145 306.001ZM412.244 305.154L412.219 305.208L412.219 305.208L412.244 305.154ZM404.379 298.62L404.328 298.652L404.329 298.653L404.379 298.62ZM404.016 278.897L404.068 278.926L404.068 278.926L404.016 278.897ZM443.946 276.443H444.006V276.372L443.936 276.383L443.946 276.443ZM427.369 279.26L427.359 279.2L427.358 279.201L427.369 279.26ZM420.593 293.417L420.555 293.463L420.557 293.465L420.593 293.417ZM435.839 293.296L435.868 293.348L435.868 293.348L435.839 293.296ZM441.768 287.367L441.716 287.336L441.715 287.338L441.768 287.367ZM136.053 307.393C129.445 307.393 123.282 306.224 117.562 303.888L117.517 303.999C123.252 306.342 129.431 307.513 136.053 307.513V307.393ZM154.543 303.888C148.904 306.224 142.741 307.393 136.053 307.393V307.513C142.755 307.513 148.934 306.342 154.589 303.999L154.543 303.888ZM166.522 296.798C162.964 299.716 158.971 302.08 154.543 303.888L154.588 303.999C159.027 302.186 163.03 299.817 166.598 296.891L166.522 296.798ZM166.574 296.786C159.002 295.02 151.505 293.217 144.178 291.439L144.15 291.556C151.477 293.334 158.974 295.137 166.547 296.903L166.574 296.786ZM136.053 292.509C138.911 292.509 141.62 292.191 144.178 291.556L144.149 291.439C141.601 292.072 138.902 292.389 136.053 292.389V292.509ZM123.93 290.205C127.648 291.741 131.69 292.509 136.053 292.509V292.389C131.704 292.389 127.679 291.624 123.976 290.094L123.93 290.205ZM115.125 284.509C117.714 286.88 120.648 288.778 123.929 290.205L123.977 290.095C120.708 288.673 117.785 286.782 115.206 284.421L115.125 284.509ZM115.18 284.407C113.062 283.901 110.974 283.407 108.919 282.926L108.891 283.043C110.946 283.524 113.034 284.018 115.152 284.524L115.18 284.407ZM108.919 282.926C103.39 281.63 98.12 280.918 93.1131 280.703L93.1079 280.823C98.1071 281.038 103.37 281.749 108.891 283.043L108.919 282.926ZM102.578 294.1C98.6603 290.256 95.5227 285.802 93.1649 280.738L93.0561 280.788C95.4199 285.866 98.5658 290.332 102.494 294.185L102.578 294.1ZM117.562 303.888C111.842 301.552 106.847 298.289 102.578 294.1L102.494 294.185C106.775 298.386 111.783 301.657 117.517 303.999L117.562 303.888ZM382.102 275.969C376.769 276.865 371.466 277.923 366.247 279.154L366.275 279.271C371.49 278.04 376.791 276.983 382.122 276.088L382.102 275.969ZM382.052 276.028V306.001H382.172V276.028H382.052ZM382.112 305.941H366.261V306.061H382.112V305.941ZM366.321 306.001V279.212H366.201V306.001H366.321ZM327.305 292.971C322.069 295.663 317.168 298.651 312.699 301.956L312.77 302.053C317.234 298.752 322.129 295.767 327.36 293.078L327.305 292.971ZM327.319 293.083C328.792 293.426 330.346 293.598 331.981 293.598V293.478C330.354 293.478 328.809 293.307 327.346 292.966L327.319 293.083ZM331.981 293.598C335.62 293.598 338.696 292.829 341.208 291.29L341.146 291.187C338.657 292.713 335.603 293.478 331.981 293.478V293.598ZM341.208 291.29C343.798 289.752 345.822 287.688 347.279 285.097L347.175 285.038C345.728 287.61 343.719 289.66 341.146 291.187L341.208 291.29ZM347.201 285.121L360.027 291.413L360.08 291.306L347.254 285.014L347.201 285.121ZM359.998 291.337C358.711 294.474 356.7 297.249 353.963 299.664L354.043 299.754C356.792 297.328 358.814 294.538 360.109 291.382L359.998 291.337ZM353.963 299.664C351.227 302.078 347.967 303.97 344.182 305.339L344.222 305.452C348.02 304.078 351.294 302.179 354.043 299.754L353.963 299.664ZM344.181 305.339C340.478 306.708 336.371 307.393 331.86 307.393V307.513C336.384 307.513 340.505 306.826 344.223 305.452L344.181 305.339ZM331.86 307.393C325.093 307.393 319.175 305.862 314.104 302.803L314.042 302.906C319.135 305.978 325.075 307.513 331.86 307.513V307.393ZM314.104 302.803C313.65 302.529 313.204 302.246 312.768 301.955L312.701 302.054C313.139 302.347 313.586 302.631 314.042 302.906L314.104 302.803ZM203.937 304.881C198.681 303.854 193.387 302.761 188.087 301.622L188.062 301.739C193.363 302.879 198.657 303.972 203.914 304.998L203.937 304.881ZM203.865 304.94V330.201H203.985V304.94H203.865ZM203.925 330.141H188.074V330.261H203.925V330.141ZM188.134 330.201V301.681H188.014V330.201H188.134ZM443.948 272.209C433.311 271.744 421.68 271.865 409.707 272.713L409.715 272.833C421.684 271.985 433.31 271.864 443.943 272.329L443.948 272.209ZM445.885 272.3C445.243 272.268 444.598 272.237 443.948 272.209L443.943 272.329C444.592 272.357 445.237 272.387 445.879 272.42L445.885 272.3ZM459.803 273.407C455.43 272.923 450.769 272.549 445.885 272.3L445.879 272.42C450.761 272.669 455.42 273.043 459.79 273.527L459.803 273.407ZM459.737 273.467V306.001H459.857V273.467H459.737ZM459.797 305.941H444.793V306.061H459.797V305.941ZM444.853 306.001V299.098H444.733V306.001H444.853ZM444.748 299.057C443.915 299.976 443.03 300.823 442.093 301.598L442.169 301.691C443.111 300.912 444 300.061 444.837 299.138L444.748 299.057ZM442.093 301.598C439.76 303.449 437.104 304.897 434.125 305.944L434.165 306.057C437.155 305.006 439.823 303.551 442.168 301.692L442.093 301.598ZM434.126 305.944C431.148 306.909 427.847 307.393 424.223 307.393V307.513C427.858 307.513 431.172 307.028 434.163 306.058L434.126 305.944ZM424.223 307.393C419.631 307.393 415.647 306.627 412.269 305.099L412.219 305.208C415.616 306.745 419.618 307.513 424.223 307.513V307.393ZM412.269 305.099C408.89 303.57 406.277 301.4 404.429 298.587L404.329 298.653C406.191 301.486 408.822 303.671 412.219 305.208L412.269 305.099ZM404.429 298.587C402.581 295.694 401.656 292.358 401.656 288.577H401.536C401.536 292.378 402.466 295.737 404.328 298.652L404.429 298.587ZM401.656 288.577C401.656 284.956 402.46 281.74 404.068 278.926L403.964 278.867C402.345 281.7 401.536 284.937 401.536 288.577H401.656ZM404.068 278.926C405.375 276.573 407.267 274.539 409.745 272.822L409.677 272.723C407.185 274.449 405.28 276.497 403.963 278.867L404.068 278.926ZM443.936 276.383L427.359 279.2L427.379 279.319L443.956 276.502L443.936 276.383ZM427.358 279.201C424.206 279.766 421.854 280.778 420.31 282.241L420.392 282.328C421.913 280.887 424.239 279.882 427.379 279.319L427.358 279.201ZM420.31 282.241C418.764 283.706 417.992 285.618 417.992 287.972H418.112C418.112 285.647 418.873 283.768 420.392 282.328L420.31 282.241ZM417.992 287.972C417.992 290.248 418.846 292.08 420.555 293.463L420.631 293.37C418.951 292.01 418.112 290.213 418.112 287.972H417.992ZM420.557 293.465C422.344 294.764 424.535 295.413 427.127 295.413V295.293C424.556 295.293 422.391 294.65 420.628 293.368L420.557 293.465ZM427.127 295.413C430.443 295.413 433.357 294.725 435.868 293.348L435.81 293.243C433.319 294.609 430.426 295.293 427.127 295.293V295.413ZM435.868 293.348C438.459 291.891 440.443 289.906 441.82 287.395L441.715 287.338C440.349 289.828 438.381 291.797 435.809 293.243L435.868 293.348ZM441.82 287.397C443.277 284.887 444.006 282.133 444.006 279.139H443.886C443.886 282.113 443.162 284.845 441.716 287.336L441.82 287.397ZM444.006 279.139V276.443H443.886V279.139H444.006Z" fill="#36322F"/>
</g>
</g>
<defs>
<linearGradient id="paint0_linear_74_56" x1="294.715" y1="220.931" x2="373.495" y2="303.236" gradientUnits="userSpaceOnUse">
<stop offset="0.2" stop-color="#36322F"/>
<stop offset="1" stop-color="#E0762D"/>
</linearGradient>
<linearGradient id="paint1_linear_74_56" x1="272.215" y1="-1.63559" x2="539.241" y2="518.301" gradientUnits="userSpaceOnUse">
<stop offset="0.2" stop-color="#36322F"/>
<stop offset="1" stop-color="#2DD4E0"/>
</linearGradient>
</defs>


</svg>
