<svg width="79" height="36" viewBox="0 0 79 36" fill="none" xmlns="http://www.w3.org/2000/svg"><mask id="a" maskUnits="userSpaceOnUse" x="1" y="6" width="75" height="24" fill="#000"><path fill="#fff" d="M1 6h75v24H1z"/><path d="M11.44 25.288q-1.968 0-3.672-.696a9.1 9.1 0 0 1-2.976-1.944A9.1 9.1 0 0 1 2.8 19.72q-.696-1.704-.696-3.672 0-1.992.696-3.672a8.7 8.7 0 0 1 1.968-2.928 8.8 8.8 0 0 1 2.976-1.92q1.704-.696 3.696-.696t3.696.696a9.1 9.1 0 0 1 2.976 1.944 8.5 8.5 0 0 1 1.968 2.904q.72 1.68.72 3.672 0 1.968-.72 3.672a9.1 9.1 0 0 1-1.992 2.928 9.1 9.1 0 0 1-2.976 1.944q-1.68.696-3.672.696m0-2.976q1.32 0 2.424-.456a6 6 0 0 0 1.92-1.32 5.5 5.5 0 0 0 1.272-1.992 6.7 6.7 0 0 0 .456-2.496q0-1.344-.456-2.472a5.5 5.5 0 0 0-1.272-1.992 5.5 5.5 0 0 0-1.92-1.32q-1.104-.456-2.424-.456-1.296 0-2.4.456a5.7 5.7 0 0 0-1.944 1.32 6 6 0 0 0-1.272 1.992q-.456 1.128-.456 2.472t.456 2.496a6 6 0 0 0 1.272 1.992q.84.84 1.944 1.32a6.2 6.2 0 0 0 2.4.456M21.76 29.8V11.944h2.951v2.592l-.288-.648a4.5 4.5 0 0 1 1.825-1.632q1.152-.6 2.663-.6 1.849 0 3.336.912a6.64 6.64 0 0 1 2.352 2.448q.89 1.536.889 3.456 0 1.896-.864 3.456A6.6 6.6 0 0 1 32.27 24.4q-1.488.888-3.384.888a6.2 6.2 0 0 1-2.617-.552 4.64 4.64 0 0 1-1.872-1.632l.505-.624v7.32zm6.767-7.392q1.08 0 1.92-.504a3.4 3.4 0 0 0 1.296-1.392q.48-.888.48-2.04t-.48-2.016a3.4 3.4 0 0 0-1.296-1.392q-.84-.528-1.92-.528-1.03 0-1.872.504a3.6 3.6 0 0 0-1.296 1.416q-.455.888-.456 2.016 0 1.152.456 2.04.48.888 1.296 1.392.84.504 1.872.504m13.395 2.736q-2.208 0-3.432-1.2-1.2-1.224-1.2-3.432v-5.76h-2.256v-2.808h.24q.96 0 1.488-.504t.528-1.464V8.968h3.144v2.976h3v2.808h-3v5.592q0 .648.216 1.104.24.456.72.696.504.24 1.272.24.168 0 .384-.024l.456-.048V25q-.336.048-.768.096a7 7 0 0 1-.792.048m8.357.144q-2.016 0-3.528-.912a6.35 6.35 0 0 1-2.352-2.472q-.84-1.56-.84-3.456 0-1.968.84-3.48a6.5 6.5 0 0 1 2.328-2.424q1.488-.888 3.312-.888 1.536 0 2.688.504 1.176.504 1.992 1.392t1.248 2.04q.432 1.128.432 2.448 0 .336-.048.696-.024.36-.12.624H46.15v-2.4h8.304l-1.488 1.128q.216-1.104-.12-1.968a2.73 2.73 0 0 0-1.056-1.368q-.72-.504-1.752-.504-.984 0-1.752.504-.768.48-1.176 1.44-.384.936-.288 2.28-.096 1.2.312 2.136.432.912 1.248 1.416.84.504 1.92.504t1.824-.456a3.26 3.26 0 0 0 1.2-1.224l2.544 1.248a4.45 4.45 0 0 1-1.2 1.656 6 6 0 0 1-1.944 1.128q-1.104.408-2.448.408M57.101 25V11.944h2.952v2.904l-.24-.432q.456-1.464 1.416-2.04.984-.576 2.352-.576h.768v2.784h-1.128q-1.344 0-2.16.84-.816.816-.816 2.304V25zm11.497.288q-1.368 0-2.376-.456t-1.56-1.296q-.552-.864-.552-1.992 0-1.08.48-1.92.48-.864 1.488-1.44t2.544-.816l4.272-.696v2.4l-3.672.624q-.936.168-1.392.6t-.456 1.128q0 .672.504 1.08.528.384 1.296.384.984 0 1.728-.408a2.97 2.97 0 0 0 1.176-1.176q.432-.744.432-1.632v-3.36q0-.84-.672-1.392-.648-.576-1.728-.576-1.008 0-1.8.552a3.1 3.1 0 0 0-1.128 1.416l-2.568-1.248a4.5 4.5 0 0 1 1.2-1.776 6.1 6.1 0 0 1 1.968-1.2 6.8 6.8 0 0 1 2.448-.432q1.608 0 2.832.6 1.224.576 1.896 1.632.696 1.032.696 2.424V25h-2.976v-2.232l.672-.048a5.5 5.5 0 0 1-1.2 1.416 5.4 5.4 0 0 1-1.584.864 6.4 6.4 0 0 1-1.968.288"/></mask><path d="M11.44 25.288q-1.968 0-3.672-.696a9.1 9.1 0 0 1-2.976-1.944A9.1 9.1 0 0 1 2.8 19.72q-.696-1.704-.696-3.672 0-1.992.696-3.672a8.7 8.7 0 0 1 1.968-2.928 8.8 8.8 0 0 1 2.976-1.92q1.704-.696 3.696-.696t3.696.696a9.1 9.1 0 0 1 2.976 1.944 8.5 8.5 0 0 1 1.968 2.904q.72 1.68.72 3.672 0 1.968-.72 3.672a9.1 9.1 0 0 1-1.992 2.928 9.1 9.1 0 0 1-2.976 1.944q-1.68.696-3.672.696m0-2.976q1.32 0 2.424-.456a6 6 0 0 0 1.92-1.32 5.5 5.5 0 0 0 1.272-1.992 6.7 6.7 0 0 0 .456-2.496q0-1.344-.456-2.472a5.5 5.5 0 0 0-1.272-1.992 5.5 5.5 0 0 0-1.92-1.32q-1.104-.456-2.424-.456-1.296 0-2.4.456a5.7 5.7 0 0 0-1.944 1.32 6 6 0 0 0-1.272 1.992q-.456 1.128-.456 2.472t.456 2.496a6 6 0 0 0 1.272 1.992q.84.84 1.944 1.32a6.2 6.2 0 0 0 2.4.456M21.76 29.8V11.944h2.951v2.592l-.288-.648a4.5 4.5 0 0 1 1.825-1.632q1.152-.6 2.663-.6 1.849 0 3.336.912a6.64 6.64 0 0 1 2.352 2.448q.89 1.536.889 3.456 0 1.896-.864 3.456A6.6 6.6 0 0 1 32.27 24.4q-1.488.888-3.384.888a6.2 6.2 0 0 1-2.617-.552 4.64 4.64 0 0 1-1.872-1.632l.505-.624v7.32zm6.767-7.392q1.08 0 1.92-.504a3.4 3.4 0 0 0 1.296-1.392q.48-.888.48-2.04t-.48-2.016a3.4 3.4 0 0 0-1.296-1.392q-.84-.528-1.92-.528-1.03 0-1.872.504a3.6 3.6 0 0 0-1.296 1.416q-.455.888-.456 2.016 0 1.152.456 2.04.48.888 1.296 1.392.84.504 1.872.504m13.395 2.736q-2.208 0-3.432-1.2-1.2-1.224-1.2-3.432v-5.76h-2.256v-2.808h.24q.96 0 1.488-.504t.528-1.464V8.968h3.144v2.976h3v2.808h-3v5.592q0 .648.216 1.104.24.456.72.696.504.24 1.272.24.168 0 .384-.024l.456-.048V25q-.336.048-.768.096a7 7 0 0 1-.792.048m8.357.144q-2.016 0-3.528-.912a6.35 6.35 0 0 1-2.352-2.472q-.84-1.56-.84-3.456 0-1.968.84-3.48a6.5 6.5 0 0 1 2.328-2.424q1.488-.888 3.312-.888 1.536 0 2.688.504 1.176.504 1.992 1.392t1.248 2.04q.432 1.128.432 2.448 0 .336-.048.696-.024.36-.12.624H46.15v-2.4h8.304l-1.488 1.128q.216-1.104-.12-1.968a2.73 2.73 0 0 0-1.056-1.368q-.72-.504-1.752-.504-.984 0-1.752.504-.768.48-1.176 1.44-.384.936-.288 2.28-.096 1.2.312 2.136.432.912 1.248 1.416.84.504 1.92.504t1.824-.456a3.26 3.26 0 0 0 1.2-1.224l2.544 1.248a4.45 4.45 0 0 1-1.2 1.656 6 6 0 0 1-1.944 1.128q-1.104.408-2.448.408M57.101 25V11.944h2.952v2.904l-.24-.432q.456-1.464 1.416-2.04.984-.576 2.352-.576h.768v2.784h-1.128q-1.344 0-2.16.84-.816.816-.816 2.304V25zm11.497.288q-1.368 0-2.376-.456t-1.56-1.296q-.552-.864-.552-1.992 0-1.08.48-1.92.48-.864 1.488-1.44t2.544-.816l4.272-.696v2.4l-3.672.624q-.936.168-1.392.6t-.456 1.128q0 .672.504 1.08.528.384 1.296.384.984 0 1.728-.408a2.97 2.97 0 0 0 1.176-1.176q.432-.744.432-1.632v-3.36q0-.84-.672-1.392-.648-.576-1.728-.576-1.008 0-1.8.552a3.1 3.1 0 0 0-1.128 1.416l-2.568-1.248a4.5 4.5 0 0 1 1.2-1.776 6.1 6.1 0 0 1 1.968-1.2 6.8 6.8 0 0 1 2.448-.432q1.608 0 2.832.6 1.224.576 1.896 1.632.696 1.032.696 2.424V25h-2.976v-2.232l.672-.048a5.5 5.5 0 0 1-1.2 1.416 5.4 5.4 0 0 1-1.584.864 6.4 6.4 0 0 1-1.968.288" fill="#36322F"/><path d="m7.768 24.592-.045.111zm-2.976-1.944-.084.086zM2.8 19.72l-.11.045v.002zm0-7.344.111.046zm1.968-2.928.084.086zm2.976-1.92.044.112h.002zm7.392 0 .046-.111zm2.976 1.944-.084.086h.001zm1.968 2.904-.11.046v.001zm0 7.344.11.047zm-1.992 2.928-.084-.086zm-2.976 1.944-.045-.111zm-1.248-2.736.046.11h.002zm1.92-1.32-.085-.085v.001zm1.272-1.992-.111-.044-.001.002zm0-4.968-.112.042.001.003zm-1.272-1.992-.087.082.002.003zm-8.688 0L7.01 11.5zm-1.272 1.992.111.045zm0 4.968.112-.044zm1.272 1.992-.086.084h.001zm1.944 1.32-.048.11h.002zm2.4 3.312q-1.946 0-3.626-.687l-.091.222q1.726.705 3.717.705zm-3.626-.687a9 9 0 0 1-2.938-1.919l-.168.172q1.29 1.265 3.015 1.97zm-2.938-1.919a8.9 8.9 0 0 1-1.965-2.89l-.221.095a9.2 9.2 0 0 0 2.018 2.967zm-1.965-2.887q-.686-1.681-.687-3.627h-.24q0 1.99.705 3.717zm-.687-3.627q0-1.97.687-3.626l-.222-.092q-.705 1.704-.705 3.718zm.687-3.626a8.6 8.6 0 0 1 1.941-2.888l-.168-.172A8.9 8.9 0 0 0 2.69 12.33zm1.941-2.888A8.7 8.7 0 0 1 7.788 7.64L7.7 7.416a8.9 8.9 0 0 0-3.016 1.946zM7.79 7.639q1.68-.687 3.65-.687v-.24q-2.014 0-3.741.705zm3.65-.687q1.97 0 3.65.687l.092-.222q-1.729-.705-3.742-.705zm3.65.687a9 9 0 0 1 2.938 1.919l.168-.172a9.3 9.3 0 0 0-3.014-1.97zm2.939 1.92a8.4 8.4 0 0 1 1.94 2.863l.222-.092a8.6 8.6 0 0 0-1.996-2.944zm1.94 2.864q.711 1.656.711 3.625h.24q0-2.014-.73-3.72zm.711 3.625q0 1.945-.71 3.625l.22.094q.73-1.728.73-3.719zm-.71 3.625a8.9 8.9 0 0 1-1.966 2.89l.168.17a9.2 9.2 0 0 0 2.018-2.966zm-1.966 2.89a9 9 0 0 1-2.937 1.918l.09.222a9.3 9.3 0 0 0 3.015-1.97zm-2.938 1.918q-1.655.687-3.626.687v.24q2.014 0 3.718-.705zm-3.626-2.049q1.342 0 2.47-.465l-.092-.222q-1.08.446-2.378.447zm2.472-.466a6.1 6.1 0 0 0 1.958-1.346l-.172-.168a5.8 5.8 0 0 1-1.882 1.294zm1.957-1.345a5.6 5.6 0 0 0 1.3-2.035l-.225-.084a5.4 5.4 0 0 1-1.245 1.95zm1.299-2.033q.464-1.175.464-2.54h-.24a6.6 6.6 0 0 1-.447 2.452zm.464-2.54q0-1.366-.465-2.517l-.222.09q.447 1.104.447 2.427zm-.463-2.514a5.6 5.6 0 0 0-1.3-2.035l-.17.17a5.4 5.4 0 0 1 1.245 1.95zm-1.298-2.032a5.6 5.6 0 0 0-1.961-1.349l-.092.222q1.08.446 1.879 1.291zm-1.961-1.349q-1.129-.465-2.47-.465v.24q1.298 0 2.378.447zm-2.47-.465q-1.317 0-2.446.465l.092.222a6.1 6.1 0 0 1 2.354-.447zm-2.446.465Q7.868 10.62 7.01 11.5l.172.168a5.6 5.6 0 0 1 1.904-1.293zM7.01 11.5a6.1 6.1 0 0 0-1.297 2.032l.223.088a5.9 5.9 0 0 1 1.246-1.952zm-1.297 2.031q-.465 1.152-.465 2.517h.24q0-1.322.447-2.427zm-.465 2.517q0 1.365.465 2.54l.223-.088a6.6 6.6 0 0 1-.448-2.452zm.465 2.54q.465 1.174 1.297 2.032l.172-.168A5.9 5.9 0 0 1 5.936 18.5zm1.298 2.033q.857.856 1.981 1.345l.096-.22a6.1 6.1 0 0 1-1.907-1.295zm1.983 1.346q1.129.465 2.446.465v-.24q-1.274 0-2.354-.447zM21.76 29.8h-.12v.12h.12zm0-17.856v-.12h-.12v.12zm2.951 0h.12v-.12h-.12zm0 2.592-.11.049.23-.049zm-.288-.648-.1-.064-.035.054.026.059zm1.825-1.632.053.107h.002zm6 .312-.063.102zm2.352 2.448-.105.059v.001zm.024 6.912-.105-.058zM32.27 24.4l.061.103h.001zm-6 .336-.053.108.002.001zm-1.873-1.632-.093-.075-.055.068.048.073zm.505-.624h.12v-.34l-.214.265zm0 7.32v.12h.12v-.12zm5.544-7.896-.062-.103zm1.296-1.392-.106-.057-.001.002zm0-4.056-.107.055.002.003zm-1.296-1.392-.064.102h.002zm-3.793-.024-.061-.103h-.002zm-1.296 1.416-.106-.056v.001zm0 4.056-.106.055.001.002zm1.296 1.392-.062.102zM21.879 29.8V11.944h-.24V29.8zm-.12-17.736h2.953v-.24H21.76zm2.832-.12v2.592h.24v-2.592zm.23 2.543-.288-.648-.22.098.289.648zm-.296-.535a4.4 4.4 0 0 1 1.776-1.589l-.107-.214a4.6 4.6 0 0 0-1.872 1.675zm1.778-1.59q1.122-.586 2.608-.586v-.24q-1.537-.001-2.719.614zm2.608-.586q1.817 0 3.274.894l.125-.204q-1.519-.93-3.398-.93zm3.274.894a6.5 6.5 0 0 1 2.31 2.405l.21-.118a6.76 6.76 0 0 0-2.395-2.491zm2.31 2.406q.872 1.505.873 3.396h.24q0-1.95-.905-3.516zm.873 3.396q0 1.867-.85 3.398l.21.116q.88-1.589.88-3.514zm-.85 3.398a6.47 6.47 0 0 1-2.31 2.428l.126.204a6.7 6.7 0 0 0 2.395-2.516zm-2.308 2.427q-1.457.87-3.323.871v.24q1.927.001 3.446-.905zm-3.323.871q-1.39 0-2.565-.541l-.1.218a6.3 6.3 0 0 0 2.666.563zm-2.563-.54a4.5 4.5 0 0 1-1.824-1.59l-.2.132a4.76 4.76 0 0 0 1.919 1.674zm-1.831-1.449.504-.624-.187-.15-.504.624zm.29-.699v7.32h.24v-7.32zm.12 7.2H21.76v.24h3.143zm3.624-7.152q1.111 0 1.982-.521l-.123-.206q-.809.486-1.859.487zm1.982-.521a3.5 3.5 0 0 0 1.341-1.44l-.213-.11a3.3 3.3 0 0 1-1.251 1.344zm1.34-1.438q.495-.919.495-2.097h-.24q-.001 1.124-.466 1.983zm.495-2.097q.001-1.179-.496-2.074l-.21.116q.465.833.465 1.958zm-.494-2.07a3.5 3.5 0 0 0-1.34-1.44l-.124.205q.81.485 1.25 1.344zm-1.339-1.44q-.871-.547-1.984-.546v.24q1.048 0 1.857.51zm-1.984-.546q-1.063 0-1.933.521l.123.206a3.45 3.45 0 0 1 1.81-.487zm-1.934.522a3.7 3.7 0 0 0-1.34 1.462l.213.112q.465-.884 1.253-1.37zm-1.34 1.463q-.47.917-.47 2.071h.24q.002-1.102.443-1.961zm-.47 2.071q0 1.177.47 2.095l.213-.11q-.442-.857-.442-1.985zm.471 2.097q.495.916 1.338 1.437l.127-.204a3.5 3.5 0 0 1-1.254-1.347zm1.34 1.438q.87.521 1.933.521v-.24q-1 0-1.81-.487zm11.896 1.937-.085.084.001.002zm-1.2-9.192h.12v-.12h-.12zm-2.256 0h-.12v.12h.12zm0-2.808v-.12h-.12v.12zm1.728-.504.083.087zm.528-2.472v-.12h-.12v.12zm3.144 0h.12v-.12h-.12zm0 2.976h-.12v.12h.12zm3 0h.12v-.12h-.12zm0 2.808v.12h.12v-.12zm-3 0v-.12h-.12v.12zm.216 6.696-.108.051.002.005zm.72.696-.053.107.002.001zm1.656.216-.012-.12h-.001zm.456-.048h.12v-.134l-.133.015zm0 2.688.017.119.103-.015V25zm-.768.096.013.12zm-.792-.072c-1.45 0-2.56-.393-3.348-1.166l-.168.172c.844.828 2.022 1.234 3.516 1.234zm-3.346-1.164c-.772-.788-1.166-1.898-1.166-3.348h-.24c0 1.494.407 2.672 1.235 3.516zm-1.166-3.348v-5.76h-.24v5.76zm-.12-5.88h-2.256v.24h2.256zm-2.136.12v-2.808h-.24v2.808zm-.12-2.688h.24v-.24h-.24zm.24 0c.661 0 1.19-.174 1.571-.537l-.166-.174c-.323.309-.786.471-1.405.471zm1.571-.537c.383-.365.565-.889.565-1.551h-.24c0 .618-.17 1.07-.49 1.377zm.565-1.551V8.968h-.24v1.008zm-.12-.888h3.144v-.24H37.29zm3.024-.12v2.976h.24V8.968zm.12 3.096h3v-.24h-3zm2.88-.12v2.808h.24v-2.808zm.12 2.688h-3v.24h3zm-3.12.12v5.592h.24v-5.592zm0 5.592q-.002.668.228 1.155l.217-.102q-.204-.425-.205-1.053zm.23 1.16q.259.491.773.747l.107-.214a1.48 1.48 0 0 1-.668-.645zm.775.748q.537.253 1.323.252v-.24q-.749-.002-1.22-.228zm1.323.252q.177 0 .397-.025l-.026-.238q-.21.023-.37.023zm.396-.025.457-.048-.026-.238-.455.048zm.324-.167V25h.24v-2.688zm.103 2.57q-.333.047-.764.095l.026.238q.435-.048.772-.096zm-.764.095a7 7 0 0 1-.779.047v.24q.368 0 .805-.049zm4.05-.601-.062.103zm-2.352-2.472.106-.057zm0-6.936-.105-.059zm2.328-2.424-.062-.103zm6-.384-.048.11zm1.992 1.392-.088.081zm1.248 2.04-.112.042zm.384 3.144-.12-.016v.008zm-.12.624v.12h.084l.029-.079zm-10.08 0h-.12v.12h.12zm0-2.4v-.12h-.12v.12zm8.304 0 .072.096.285-.216h-.357zm-1.488 1.128-.118-.023-.06.309.25-.19zm-.12-1.968-.113.04.001.003zm-1.056-1.368-.069.098.002.001zm-3.504 0 .064.102.002-.002zm-1.176 1.44-.11-.047-.001.002zm-.288 2.28.12.01v-.019zm.312 2.136-.11.048.002.003zm1.248 1.416-.063.102h.001zm3.744.048-.061-.103h-.002zm1.2-1.224.053-.108-.102-.05-.056.1zm2.544 1.248.111.046.043-.104-.101-.05zm-1.2 1.656.08.09zm-1.944 1.128-.04-.113h-.002zm-2.448.288q-1.987-.001-3.466-.895l-.124.206q1.545.93 3.59.929zm-3.466-.895a6.23 6.23 0 0 1-2.308-2.426l-.212.114a6.47 6.47 0 0 0 2.396 2.518zm-2.308-2.426q-.825-1.53-.826-3.399h-.24q0 1.924.854 3.513zm-.826-3.399q0-1.94.825-3.422l-.21-.116q-.856 1.543-.855 3.538zm.825-3.421a6.4 6.4 0 0 1 2.285-2.38l-.124-.206a6.64 6.64 0 0 0-2.37 2.468zm2.285-2.38q1.458-.87 3.25-.871v-.24q-1.855 0-3.373.905zm3.25-.871q1.516.001 2.64.494l.096-.22q-1.18-.515-2.736-.514zm2.64.494q1.155.495 1.952 1.363l.176-.162a5.85 5.85 0 0 0-2.033-1.421zm1.952 1.363q.8.87 1.224 2.001l.224-.084a6.3 6.3 0 0 0-1.272-2.08zm1.224 2.002q.424 1.105.424 2.405h.24q0-1.34-.44-2.49zm.424 2.405q0 .327-.047.68l.238.032q.05-.367.049-.712zm-.048.688a2.2 2.2 0 0 1-.113.591l.226.082q.103-.285.127-.657zm0 .512H46.15v.24h10.08zm-9.96.12v-2.4h-.24v2.4zm-.12-2.28h8.304v-.24H46.15zm8.232-.216-1.488 1.128.145.192 1.487-1.128zm-1.298 1.247c.147-.753.108-1.433-.126-2.035l-.224.087c.214.551.255 1.183.114 1.902zm-.125-2.032a2.85 2.85 0 0 0-1.102-1.426l-.134.198q.71.482 1.01 1.31zm-1.1-1.425q-.758-.528-1.821-.526v.24q1 .002 1.683.482zm-1.821-.526a3.24 3.24 0 0 0-1.818.524l.132.2a3 3 0 0 1 1.686-.484zm-1.816.522q-.802.505-1.222 1.495l.22.094q.397-.93 1.13-1.385zM47 16.146q-.396.97-.297 2.334l.24-.017q-.093-1.323.28-2.226zm-.297 2.316q-.1 1.226.322 2.194l.22-.096q-.395-.904-.302-2.078zm.324 2.197a3.4 3.4 0 0 0 1.293 1.467l.126-.204a3.14 3.14 0 0 1-1.203-1.365zm1.294 1.468q.872.522 1.982.521v-.24q-1.05 0-1.858-.487zm1.982.521q1.107.002 1.887-.474l-.126-.204q-.708.436-1.761.438zm1.885-.473q.795-.472 1.244-1.268l-.21-.118a3.14 3.14 0 0 1-1.156 1.18zm1.086-1.22 2.544 1.249.106-.216-2.544-1.248zm2.486 1.096a4.3 4.3 0 0 1-1.168 1.611l.158.18a4.6 4.6 0 0 0 1.232-1.7zm-1.168 1.611a5.9 5.9 0 0 1-1.906 1.105l.082.226a6.1 6.1 0 0 0 1.982-1.151zm-1.907 1.105q-1.08.4-2.406.401v.24q1.363 0 2.49-.415zm4.417.233h-.12v.12h.12zm0-13.056v-.12h-.12v.12zm2.952 0h.12v-.12h-.12zm0 2.904-.105.058.225.405v-.463zm-.24-.432-.114-.036-.015.05.024.044zm1.416-2.04-.06-.104-.001.001zm3.12-.576h.12v-.12h-.12zm0 2.784v.12h.12v-.12zm-3.288.84.085.085.001-.001zM60.245 25v.12h.12V25zm-3.024 0V11.944h-.24V25zm-.12-12.936h2.952v-.24h-2.952zm2.832-.12v2.904h.24v-2.904zm.225 2.846-.24-.432-.21.116.24.432zm-.23-.338c.298-.959.756-1.61 1.363-1.973l-.123-.206c-.674.404-1.16 1.114-1.47 2.107zm1.362-1.972q.95-.559 2.291-.56v-.24q-1.395-.001-2.412.592zm2.291-.56h.768v-.24h-.768zm.648-.12v2.784h.24V11.8zm.12 2.664h-1.128v.24h1.128zm-1.128 0c-.923 0-1.676.29-2.246.876l.172.168c.518-.534 1.206-.804 2.074-.804zm-2.244.875c-.573.573-.852 1.375-.852 2.389h.24c0-.97.266-1.704.781-2.22zm-.852 2.389V25h.24v-7.272zm.12 7.152h-3.144v.24h3.144zm5.977-.048-.05.11zm-1.56-1.296-.101.065zm-.072-3.912.104.06v-.002zm1.488-1.44.06.104zm2.544-.816.018.119h.001zm4.272-.696h.12v-.141l-.14.023zm0 2.4.02.118.1-.017v-.101zm-3.672.624-.02-.118H69.2zm-1.392.6-.083-.087zm.048 2.208-.076.093.005.004zm3.024-.024.058.105zm1.176-1.176-.104-.06-.001.002zm-.24-6.384-.08.09.004.003zm-3.528-.024.068.099zm-1.128 1.416-.053.108.116.056.048-.119zm-2.568-1.248-.113-.042-.038.102.099.048zm1.2-1.776.08.089zm1.968-1.2-.043-.112zm5.28.168-.053.108h.002zm1.896 1.632-.101.064.001.003zM75.654 25v.12h.12V25zm-2.976 0h-.12v.12h.12zm0-2.232-.009-.12-.111.008v.112zm.672-.048.103.062.118-.198-.23.016zm-1.2 1.416.075.094.001-.002zM70.566 25l.037.114h.003zm-1.968.168q-1.347-.001-2.327-.445l-.099.218q1.037.468 2.426.467zm-2.327-.445q-.978-.444-1.509-1.253l-.2.132q.573.87 1.61 1.34zm-1.508-1.252q-.532-.83-.533-1.927h-.24q0 1.16.57 2.057zm-.533-1.927q.001-1.052.464-1.86l-.208-.12q-.497.872-.496 1.98zm.465-1.862q.46-.83 1.442-1.394l-.119-.208q-1.032.588-1.533 1.486zm1.442-1.394q.984-.563 2.503-.801l-.037-.238q-1.55.242-2.585.83zm2.504-.802 4.272-.696-.038-.236-4.272.696zm4.133-.814v2.4h.24v-2.4zm.1 2.282-3.672.624.04.236 3.672-.624zm-3.673.624c-.636.114-1.126.32-1.454.63l.165.175c.28-.265.72-.459 1.331-.569zm-1.454.63c-.33.314-.493.723-.493 1.216h.24c0-.435.141-.778.418-1.04zm-.493 1.216c0 .483.183.878.548 1.173l.151-.186a1.2 1.2 0 0 1-.46-.987zm.553 1.177q.566.409 1.367.407v-.24q-.735-.002-1.226-.361zm1.367.407q1.01 0 1.786-.423l-.116-.21q-.712.392-1.67.393zm1.787-.423a3.1 3.1 0 0 0 1.222-1.223l-.21-.116a2.85 2.85 0 0 1-1.13 1.13zm1.22-1.22q.45-.774.449-1.693h-.24q0 .857-.416 1.572zm.449-1.693v-3.36h-.24v3.36zm0-3.36c0-.597-.241-1.095-.716-1.485l-.152.186c.421.346.628.776.628 1.299zm-.712-1.482c-.46-.408-1.066-.606-1.808-.606v.24c.698 0 1.243.186 1.648.546zm-1.808-.606q-1.044-.001-1.869.574l.138.196a2.95 2.95 0 0 1 1.73-.53zm-1.868.573a3.2 3.2 0 0 0-1.171 1.47l.222.09a2.96 2.96 0 0 1 1.085-1.362zm-1.008 1.407-2.568-1.248-.105.216 2.568 1.248zm-2.508-1.098q.374-1.005 1.169-1.73l-.162-.177a4.6 4.6 0 0 0-1.232 1.823zm1.169-1.73a6 6 0 0 1 1.93-1.176l-.086-.224q-1.148.439-2.006 1.223zm1.93-1.176a6.7 6.7 0 0 1 2.405-.424v-.24q-1.34 0-2.491.44zm2.405-.424q1.584 0 2.78.588l.105-.216q-1.254-.614-2.885-.612zm2.78.589q1.196.563 1.847 1.587l.202-.128q-.692-1.088-1.946-1.677zm1.848 1.59q.675.998.676 2.357h.24q0-1.425-.717-2.491zm.676 2.357V25h.24v-8.688zm.12 8.568h-2.976v.24h2.976zm-2.856.12v-2.232h-.24V25zm-.112-2.112.672-.048-.017-.24-.672.048zm.561-.23a5.4 5.4 0 0 1-1.174 1.386l.153.184a5.6 5.6 0 0 0 1.227-1.446zm-1.172 1.384q-.68.539-1.549.845l.08.226a5.5 5.5 0 0 0 1.619-.883zm-1.546.844a6.2 6.2 0 0 1-1.931.282v.24q1.096 0 2.005-.294z" fill="#36322F" mask="url(#a)"/><path fill-rule="evenodd" clip-rule="evenodd" d="M38.49 23.944q1.224 1.2 3.431 1.2.36 0 .792-.048t.768-.096v-2.688l-.456.048a4 4 0 0 1-.384.024q-.768 0-1.272-.24-.48-.24-.72-.696-.216-.456-.216-1.104v-1.607A7 7 0 0 0 40 18.5c-1.208-.604-2.084-.543-2.71-.008v2.02q0 2.208 1.2 3.432" fill="url(#b)"/><path d="m38.49 23.944-.044.042h.001zm4.223 1.152.007.06zm.768-.096.009.06.051-.008V25zm0-2.688h.06v-.067l-.066.007zm-.456.048-.006-.06zm-1.656-.216-.027.054h.001zm-.72-.696-.054.026.001.002zm-.216-2.711h.06v-.034l-.03-.018zM40 18.5l.027-.054zm-2.71-.008-.04-.045-.02.018v.027zm4.631 6.592q-2.189-.002-3.39-1.183l-.084.086c.83.814 1.991 1.217 3.474 1.217zm.785-.048a7 7 0 0 1-.785.048v.12q.364 0 .799-.048zm.767-.095q-.335.047-.767.095l.014.12q.432-.048.77-.097zm-.052-2.629V25h.12v-2.688zm-.39.108.457-.048-.014-.12-.455.048zm-.39.024q.172 0 .39-.024l-.012-.12a4 4 0 0 1-.378.024zm-1.298-.246q.52.247 1.298.246v-.12q-.758-.001-1.246-.234zm-.747-.722q.25.473.746.722l.054-.108a1.54 1.54 0 0 1-.694-.67zm-.223-1.132q0 .658.222 1.13l.108-.052q-.21-.44-.21-1.078zm0-1.607v1.607h.12v-1.607zm.09-.052q-.231-.135-.436-.239l-.054.108q.202.1.43.235zm-.436-.239c-.61-.304-1.14-.444-1.601-.437a1.8 1.8 0 0 0-1.176.438l.078.09a1.68 1.68 0 0 1 1.1-.408c.435-.007.947.125 1.545.425zm-2.678 2.066v-2.02h-.12v2.02zm1.183 3.39c-.786-.802-1.183-1.929-1.183-3.39h-.12c0 1.483.403 2.644 1.217 3.474z" fill="#36322F"/><path fill-rule="evenodd" clip-rule="evenodd" d="M7.768 24.592q1.704.696 3.672.696 1.992 0 3.672-.696a9.2 9.2 0 0 0 2.789-1.765c-.998-.312-1.981-.625-2.942-.93l-.709-.224a6 6 0 0 1-.386.183q-1.104.456-2.424.456a6.2 6.2 0 0 1-2.4-.456 6.2 6.2 0 0 1-1.944-1.32 6 6 0 0 1-.46-.535 9.4 9.4 0 0 0-3.29.797q.6 1.02 1.446 1.85a9.1 9.1 0 0 0 2.976 1.944m49.333-5.517a38 38 0 0 1 3.144-.603V25h-3.144zM21.76 24.007c1.045.31 2.096.612 3.143.9V29.8H21.76zm24.65.149a19.4 19.4 0 0 1 2.553-1.854q.615.225 1.34.226 1.08 0 1.824-.456a3.26 3.26 0 0 0 1.2-1.224l2.544 1.248a4.45 4.45 0 0 1-1.2 1.656 6 6 0 0 1-1.944 1.128q-1.104.408-2.448.408-2.016 0-3.528-.912a7 7 0 0 1-.341-.22m9.571-4.796.275-.074-.025.074zm10.392-1.331c2.289.007 4.396.213 6.138.565q.195.04.384.082c1.021.226 1.903.505 2.606.824l.154.07V25h-2.976v-1.37a5 5 0 0 1-.528.506 5.4 5.4 0 0 1-1.584.864 6.4 6.4 0 0 1-1.968.288q-1.368 0-2.376-.456t-1.56-1.296q-.552-.864-.552-1.992 0-1.08.48-1.92.48-.864 1.488-1.44.141-.081.294-.155m6.138 1.108-3.288.559q-.936.168-1.392.6t-.456 1.128q0 .672.504 1.08.528.384 1.296.384.984 0 1.728-.408a2.97 2.97 0 0 0 1.176-1.176q.432-.744.432-1.632z" fill="url(#c)"/><path d="m7.768 24.592-.022.056zm7.344 0-.023-.056zm2.789-1.765.04.044.076-.07-.098-.031zm-2.942-.93-.019.058zm-.709-.224.018-.057-.023-.008-.022.011zm-.386.183.023.055h.001zm-4.824 0-.024.055h.001zm-1.944-1.32-.043.042zm-.46-.535.048-.037-.019-.025-.032.002zm-3.29.797-.025-.054-.062.027.035.058zm1.446 1.85.042-.043zm55.453-4.176h.06v-.07l-.069.01zm-3.144.602-.014-.058-.046.011v.047zM60.245 25v.06h.06V25zm-3.144 0h-.06v.06h.06zm-32.199-.094h.06v-.046l-.044-.011zm-3.143-.899.017-.057-.078-.023v.08zm3.143 5.793v.06h.06v-.06zm-3.143 0h-.06v.06h.06zm27.203-7.498.02-.057-.026-.01-.025.015zm-2.553 1.854-.04-.045-.058.05.064.044zm5.717-2.084-.03-.052h-.001zm1.2-1.224.026-.054-.05-.025-.028.05zm2.544 1.248.056.023.02-.052-.05-.025zm-1.2 1.656.04.045zm-1.944 1.128-.02-.056zm-5.976-.504-.031.051zm9.505-5.09.057.018.032-.103-.105.027zm-.275.074-.015-.058.015.118zm.25 0v.06h.042l.014-.04zm16.28-.766.012-.059zm-6.138-.565v-.06h-.014l-.013.006zm6.522.647.013-.059zm2.606.824.025-.055zm.154.07h.06v-.038l-.035-.016zm0 5.43v.06h.06V25zm-2.976 0h-.06v.06h.06zm0-1.37h.06v-.155l-.105.115zm-.528.506.037.047h.001zM70.566 25l.018.057h.002zm-4.344-.168-.025.055zm-1.56-1.296-.05.032zm-.072-3.912.052.03zm1.488-1.44.03.052zm6.432.953h.06v-.07l-.07.011zm-3.288.559-.01-.06zm-1.392.6-.041-.044zm.048 2.208-.038.047.003.002zm3.024-.024.029.053zm1.176-1.176-.052-.03v.001zM11.44 25.228q-1.955 0-3.65-.692l-.044.111q1.715.702 3.694.701zm3.65-.691q-1.669.69-3.65.691v.12q2.003 0 3.695-.7zm2.77-1.754a9.1 9.1 0 0 1-2.77 1.753l.045.111a9.2 9.2 0 0 0 2.806-1.776zm.059-.013q-1.499-.471-2.942-.93l-.037.115q1.444.459 2.943.93zm-2.942-.93-.709-.224-.036.114.708.225zm-1.089.071a6 6 0 0 0 .39-.185l-.056-.107a6 6 0 0 1-.382.182zm-2.448.461q1.33 0 2.447-.46l-.046-.111q-1.092.45-2.4.451zm-2.423-.46q1.116.46 2.423.46v-.12q-1.285 0-2.377-.451zm-1.963-1.334a6.3 6.3 0 0 0 1.962 1.333l.048-.11a6.2 6.2 0 0 1-1.925-1.307zm-.465-.541q.215.285.464.54l.086-.083a6 6 0 0 1-.455-.53zm.044-.096a9.5 9.5 0 0 0-3.312.803l.049.11a9.4 9.4 0 0 1 3.27-.793zm-1.799 2.664a9 9 0 0 1-1.437-1.837l-.103.061q.605 1.027 1.456 1.862zm2.957 1.931a9.1 9.1 0 0 1-2.957-1.93l-.084.085a9.2 9.2 0 0 0 2.996 1.957zm52.445-6.124a38 38 0 0 0-3.148.604l.027.117a38 38 0 0 1 3.14-.602zm-.05.06V25h.12v-6.528zm.06 6.468H57.1v.12h3.144zM57.16 25v-5.925h-.12V25zm-32.243-.151a155 155 0 0 1-3.142-.9l-.035.116q1.572.466 3.146.9zm-.075.057V29.8h.12v-4.894zm.06 4.834h-3.144v.12h3.143zm-3.084.06v-5.793h-.12V29.8zm27.112-7.55a19.4 19.4 0 0 0-2.561 1.86l.078.091a19.3 19.3 0 0 1 2.545-1.848zm.01.108q.627.23 1.361.23v-.12q-.714 0-1.32-.223zm1.361.23q1.094 0 1.855-.465l-.062-.102q-.726.446-1.793.447zm1.855-.464q.78-.465 1.221-1.247l-.104-.058a3.2 3.2 0 0 1-1.179 1.201zm1.143-1.222 2.544 1.248.053-.108-2.544-1.248zm2.515 1.171a4.4 4.4 0 0 1-1.185 1.634l.08.09a4.5 4.5 0 0 0 1.215-1.678zm-1.185 1.634a5.9 5.9 0 0 1-1.924 1.117l.04.112a6 6 0 0 0 1.964-1.139zm-1.925 1.117q-1.092.404-2.427.404v.12q1.353 0 2.469-.412zm-2.427.404q-2.002 0-3.497-.903l-.062.102q1.529.922 3.559.921zm-3.497-.903a7 7 0 0 1-.338-.218l-.068.098q.167.116.344.222zm9.459-5.097-.275.074.031.116.274-.074zm-.043.04-.023.072.112.04q.014-.037.026-.076zm.033.032h-.25v.12h.25zm16.292-.765c-1.747-.353-3.858-.559-6.15-.566v.12c2.285.007 4.388.213 6.126.564zm.385.082-.385-.082-.024.118q.195.039.383.081zm2.618.828c-.708-.321-1.594-.601-2.618-.828l-.026.117c1.018.226 1.896.503 2.594.82zm.154.07-.154-.07-.05.11.154.07zm-.085.055V25h.12v-5.43zm.06 5.37h-2.976v.12h2.976zm-2.916.06v-1.37h-.12V25zm-.105-1.41a5 5 0 0 1-.521.5l.076.092q.284-.234.534-.51zm-.52.499q-.687.546-1.567.854l.04.114a5.5 5.5 0 0 0 1.601-.874zm-1.566.854a6.3 6.3 0 0 1-1.95.285v.12q1.09 0 1.987-.29zm-1.95.285q-1.356 0-2.35-.45l-.05.109q1.023.461 2.4.461zm-2.35-.45q-.994-.45-1.535-1.275l-.1.066q.563.855 1.585 1.318zm-1.534-1.274q-.543-.848-.543-1.96h-.12q0 1.144.561 2.024zm-.543-1.96q0-1.065.472-1.89l-.104-.06q-.488.855-.488 1.95zm.472-1.89q.47-.849 1.466-1.418l-.06-.104q-1.02.582-1.51 1.463zm1.466-1.418q.14-.08.29-.153l-.053-.108q-.153.075-.297.157zm6.392.842-3.288.559.02.118 3.288-.559zm-3.289.559q-.946.168-1.422.615l.082.088q.436-.417 1.362-.585zm-1.422.615q-.476.453-.475 1.172h.12q.001-.674.437-1.084zm-.475 1.172q0 .7.526 1.127l.076-.094q-.483-.388-.482-1.033zm.529 1.128q.547.397 1.33.396v-.12q-.75 0-1.26-.372zm1.33.396q.998 0 1.758-.415l-.058-.106q-.728.4-1.7.401zm1.758-.416a3.03 3.03 0 0 0 1.2-1.2l-.106-.057a2.9 2.9 0 0 1-1.153 1.153zm1.199-1.198q.44-.758.44-1.662h-.12q0 .872-.424 1.602zm.44-1.662v-.535h-.12v.535z" fill="#36322F"/><defs><linearGradient id="b" x1="40.417" y1="11.78" x2="52.166" y2="20.477" gradientUnits="userSpaceOnUse"><stop offset=".2" stop-color="#36322F"/><stop offset="1" stop-color="#E0762D"/></linearGradient><linearGradient id="c" x1="39" y1="-32" x2="89" y2="68" gradientUnits="userSpaceOnUse"><stop offset=".2" stop-color="#36322F"/><stop offset="1" stop-color="#2DD4E0"/></linearGradient></defs></svg>