<svg viewBox="0 0 100 74" xmlns="http://www.w3.org/2000/svg">
  <path style="display:inline;fill:#000;fill-opacity:1;stroke-width:.989735" d="M64.008 6.147c-9.847.256-17.852 3.095-17.852 3.095L5.761 44.365S2.714 57.594 18.034 63.566c22.131 8.628 49.247-5.683 49.247-5.683l24.756-23.674s8.167-15.909-9.579-24.561c-5.904-2.877-12.475-3.654-18.383-3.501m15.098 7.749c10.244 5.791 8.414 15.487-6.375 29.364s-42.7 20.848-52.959 12.79 2.33-22.071 11.77-30.921C43.932 13.575 66.912 6.965 79.173 13.896"/>
  <path style="display:inline;fill:#e0762d;fill-opacity:1;stroke-width:.989735" d="M92.038 34.209 67.282 57.884s-8.857 4.674-20.578 7.07c15.242-10.962 30.583-22.867 45.334-30.743"/>
  <path style="display:inline;fill:#2dd4e0;fill-opacity:1;stroke-width:.989735" d="M93.829 24.076c.551 5.569-1.792 10.133-1.792 10.133L72.01 53.361c5.514-9.12 16.229-22.977 21.819-29.286"/>
</svg>
