<svg width="78" height="36" viewBox="0 0 78 36" fill="none" xmlns="http://www.w3.org/2000/svg"><g clip-path="url(#a)"><mask id="c" style="mask-type:alpha" maskUnits="userSpaceOnUse" x="2" y="6" width="74" height="24"><mask id="b" fill="#fff"><path d="M11.56 25.288q-1.968 0-3.672-.696a9.1 9.1 0 0 1-2.976-1.944A9.1 9.1 0 0 1 2.92 19.72q-.696-1.704-.696-3.672 0-1.992.696-3.672a8.7 8.7 0 0 1 1.968-2.928 8.8 8.8 0 0 1 2.976-1.92q1.704-.696 3.696-.696t3.696.696a9.1 9.1 0 0 1 2.976 1.944 8.5 8.5 0 0 1 1.968 2.904q.72 1.68.72 3.672 0 1.968-.72 3.672a9.1 9.1 0 0 1-1.992 2.928 9.1 9.1 0 0 1-2.976 1.944q-1.68.696-3.672.696m0-2.976q1.32 0 2.424-.456a6 6 0 0 0 1.92-1.32 5.5 5.5 0 0 0 1.272-1.992 6.7 6.7 0 0 0 .456-2.496q0-1.344-.456-2.472a5.5 5.5 0 0 0-1.272-1.992 5.5 5.5 0 0 0-1.92-1.32q-1.104-.456-2.424-.456-1.296 0-2.4.456a5.7 5.7 0 0 0-1.944 1.32 6 6 0 0 0-1.272 1.992q-.456 1.128-.456 2.472t.456 2.496a6 6 0 0 0 1.272 1.992q.84.84 1.944 1.32a6.2 6.2 0 0 0 2.4.456M21.878 29.8V11.944h2.953v2.592l-.288-.648a4.5 4.5 0 0 1 1.823-1.632q1.152-.6 2.665-.6 1.848 0 3.336.912a6.64 6.64 0 0 1 2.352 2.448q.887 1.536.887 3.456 0 1.896-.864 3.456a6.6 6.6 0 0 1-2.351 2.472q-1.488.888-3.384.888a6.2 6.2 0 0 1-2.617-.552 4.64 4.64 0 0 1-1.872-1.632l.505-.624v7.32zm6.768-7.392q1.08 0 1.92-.504a3.4 3.4 0 0 0 1.297-1.392q.48-.888.48-2.04t-.48-2.016a3.4 3.4 0 0 0-1.296-1.392q-.84-.528-1.92-.528-1.032 0-1.872.504a3.6 3.6 0 0 0-1.296 1.416q-.457.888-.456 2.016 0 1.152.456 2.04.48.888 1.296 1.392.84.504 1.872.504m13.395 2.736q-2.208 0-3.432-1.2-1.2-1.224-1.2-3.432v-5.76h-2.256v-2.808h.24q.96 0 1.488-.504t.528-1.464V8.968h3.144v2.976h3v2.808h-3v5.592q0 .648.216 1.104.24.456.72.696.504.24 1.272.24.168 0 .384-.024l.456-.048V25q-.336.048-.768.096a7 7 0 0 1-.792.048m8.357.144q-2.016 0-3.528-.912a6.35 6.35 0 0 1-2.352-2.472q-.84-1.56-.84-3.456 0-1.968.84-3.48a6.5 6.5 0 0 1 2.328-2.424q1.488-.888 3.312-.888 1.536 0 2.688.504 1.176.504 1.992 1.392t1.248 2.04q.432 1.128.432 2.448 0 .336-.048.696-.024.36-.12.624H46.27v-2.4h8.304l-1.488 1.128q.216-1.104-.12-1.968a2.73 2.73 0 0 0-1.056-1.368q-.72-.504-1.752-.504-.984 0-1.752.504-.768.48-1.176 1.44-.384.936-.288 2.28-.096 1.2.312 2.136.432.912 1.248 1.416.84.504 1.92.504t1.824-.456a3.26 3.26 0 0 0 1.2-1.224l2.544 1.248a4.45 4.45 0 0 1-1.2 1.656 6 6 0 0 1-1.944 1.128q-1.104.408-2.448.408M57.221 25V11.944h2.952v2.904l-.24-.432q.456-1.464 1.416-2.04.984-.576 2.352-.576h.768v2.784h-1.128q-1.344 0-2.16.84-.816.816-.816 2.304V25zm11.257.288q-1.368 0-2.376-.456t-1.56-1.296q-.552-.864-.552-1.992 0-1.08.48-1.92.48-.864 1.488-1.44t2.544-.816l4.272-.696v2.4l-3.672.624q-.936.168-1.392.6t-.456 1.128q0 .672.504 1.08.528.384 1.296.384.984 0 1.728-.408a2.97 2.97 0 0 0 1.176-1.176q.432-.744.432-1.632v-3.36q0-.84-.672-1.392-.648-.576-1.728-.576-1.008 0-1.8.552a3.1 3.1 0 0 0-1.128 1.416l-2.568-1.248a4.5 4.5 0 0 1 1.2-1.776 6.1 6.1 0 0 1 1.968-1.2 6.8 6.8 0 0 1 2.448-.432q1.608 0 2.832.6 1.224.576 1.896 1.632.696 1.032.696 2.424V25h-2.976v-2.232l.672-.048a5.5 5.5 0 0 1-1.2 1.416 5.4 5.4 0 0 1-1.584.864 6.4 6.4 0 0 1-1.968.288"/></mask><path d="M11.56 25.288q-1.968 0-3.672-.696a9.1 9.1 0 0 1-2.976-1.944A9.1 9.1 0 0 1 2.92 19.72q-.696-1.704-.696-3.672 0-1.992.696-3.672a8.7 8.7 0 0 1 1.968-2.928 8.8 8.8 0 0 1 2.976-1.92q1.704-.696 3.696-.696t3.696.696a9.1 9.1 0 0 1 2.976 1.944 8.5 8.5 0 0 1 1.968 2.904q.72 1.68.72 3.672 0 1.968-.72 3.672a9.1 9.1 0 0 1-1.992 2.928 9.1 9.1 0 0 1-2.976 1.944q-1.68.696-3.672.696m0-2.976q1.32 0 2.424-.456a6 6 0 0 0 1.92-1.32 5.5 5.5 0 0 0 1.272-1.992 6.7 6.7 0 0 0 .456-2.496q0-1.344-.456-2.472a5.5 5.5 0 0 0-1.272-1.992 5.5 5.5 0 0 0-1.92-1.32q-1.104-.456-2.424-.456-1.296 0-2.4.456a5.7 5.7 0 0 0-1.944 1.32 6 6 0 0 0-1.272 1.992q-.456 1.128-.456 2.472t.456 2.496a6 6 0 0 0 1.272 1.992q.84.84 1.944 1.32a6.2 6.2 0 0 0 2.4.456M21.878 29.8V11.944h2.953v2.592l-.288-.648a4.5 4.5 0 0 1 1.823-1.632q1.152-.6 2.665-.6 1.848 0 3.336.912a6.64 6.64 0 0 1 2.352 2.448q.887 1.536.887 3.456 0 1.896-.864 3.456a6.6 6.6 0 0 1-2.351 2.472q-1.488.888-3.384.888a6.2 6.2 0 0 1-2.617-.552 4.64 4.64 0 0 1-1.872-1.632l.505-.624v7.32zm6.768-7.392q1.08 0 1.92-.504a3.4 3.4 0 0 0 1.297-1.392q.48-.888.48-2.04t-.48-2.016a3.4 3.4 0 0 0-1.296-1.392q-.84-.528-1.92-.528-1.032 0-1.872.504a3.6 3.6 0 0 0-1.296 1.416q-.457.888-.456 2.016 0 1.152.456 2.04.48.888 1.296 1.392.84.504 1.872.504m13.395 2.736q-2.208 0-3.432-1.2-1.2-1.224-1.2-3.432v-5.76h-2.256v-2.808h.24q.96 0 1.488-.504t.528-1.464V8.968h3.144v2.976h3v2.808h-3v5.592q0 .648.216 1.104.24.456.72.696.504.24 1.272.24.168 0 .384-.024l.456-.048V25q-.336.048-.768.096a7 7 0 0 1-.792.048m8.357.144q-2.016 0-3.528-.912a6.35 6.35 0 0 1-2.352-2.472q-.84-1.56-.84-3.456 0-1.968.84-3.48a6.5 6.5 0 0 1 2.328-2.424q1.488-.888 3.312-.888 1.536 0 2.688.504 1.176.504 1.992 1.392t1.248 2.04q.432 1.128.432 2.448 0 .336-.048.696-.024.36-.12.624H46.27v-2.4h8.304l-1.488 1.128q.216-1.104-.12-1.968a2.73 2.73 0 0 0-1.056-1.368q-.72-.504-1.752-.504-.984 0-1.752.504-.768.48-1.176 1.44-.384.936-.288 2.28-.096 1.2.312 2.136.432.912 1.248 1.416.84.504 1.92.504t1.824-.456a3.26 3.26 0 0 0 1.2-1.224l2.544 1.248a4.45 4.45 0 0 1-1.2 1.656 6 6 0 0 1-1.944 1.128q-1.104.408-2.448.408M57.221 25V11.944h2.952v2.904l-.24-.432q.456-1.464 1.416-2.04.984-.576 2.352-.576h.768v2.784h-1.128q-1.344 0-2.16.84-.816.816-.816 2.304V25zm11.257.288q-1.368 0-2.376-.456t-1.56-1.296q-.552-.864-.552-1.992 0-1.08.48-1.92.48-.864 1.488-1.44t2.544-.816l4.272-.696v2.4l-3.672.624q-.936.168-1.392.6t-.456 1.128q0 .672.504 1.08.528.384 1.296.384.984 0 1.728-.408a2.97 2.97 0 0 0 1.176-1.176q.432-.744.432-1.632v-3.36q0-.84-.672-1.392-.648-.576-1.728-.576-1.008 0-1.8.552a3.1 3.1 0 0 0-1.128 1.416l-2.568-1.248a4.5 4.5 0 0 1 1.2-1.776 6.1 6.1 0 0 1 1.968-1.2 6.8 6.8 0 0 1 2.448-.432q1.608 0 2.832.6 1.224.576 1.896 1.632.696 1.032.696 2.424V25h-2.976v-2.232l.672-.048a5.5 5.5 0 0 1-1.2 1.416 5.4 5.4 0 0 1-1.584.864 6.4 6.4 0 0 1-1.968.288" fill="#36322F"/><path d="m7.888 24.592-.378.926zm-2.976-1.944-.7.714zM2.92 19.72l-.926.378.004.008.003.008zm0-7.344.924.383zm1.968-2.928.7.714zm2.976-1.92.367.93.011-.004zm7.392 0 .378-.926zm2.976 1.944-.7.714.007.007zm1.968 2.904-.924.383.005.01zm0 7.344.92.394.001-.005zm-1.992 2.928-.7-.714zm-2.976 1.944-.378-.926-.004.002zm-1.248-2.736.382.924.008-.003.009-.004zm1.92-1.32-.707-.707-.005.005-.005.005zm1.272-1.992-.93-.368-.003.008-.003.009zm0-4.968-.936.351.004.012.005.012zm-1.272-1.992-.727.687.01.01.01.01zm-8.688 0-.717-.697zm-1.272 1.992.927.375.003-.007zm0 4.968.93-.368zm1.272 1.992-.717.697.005.005.005.005zm1.944 1.32-.399.917.009.004.008.003zm2.4 2.432c-1.191 0-2.286-.21-3.294-.622l-.756 1.852c1.264.516 2.618.77 4.05.77zm-3.294-.622a8.1 8.1 0 0 1-2.653-1.732l-1.401 1.428a10.1 10.1 0 0 0 3.298 2.156zm-2.653-1.732a8.1 8.1 0 0 1-1.774-2.608l-1.838.788a10.1 10.1 0 0 0 2.21 3.248zm-1.767-2.592c-.412-1.008-.622-2.103-.622-3.294h-2c0 1.433.254 2.786.77 4.05zm-.622-3.294c0-1.21.21-2.302.62-3.29l-1.848-.765c-.519 1.253-.772 2.608-.772 4.055zm.62-3.29a7.75 7.75 0 0 1 1.745-2.596L4.188 8.734a9.7 9.7 0 0 0-2.192 3.26zm1.745-2.596A7.8 7.8 0 0 1 8.23 8.458l-.734-1.86a9.8 9.8 0 0 0-3.31 2.136zm2.653-1.708c1.007-.411 2.11-.622 3.318-.622v-2c-1.447 0-2.808.253-4.074.77zm3.318-.622c1.21 0 2.312.21 3.318.622l.756-1.852c-1.265-.517-2.627-.77-4.074-.77zm3.318.622a8.1 8.1 0 0 1 2.654 1.732l1.4-1.428a10.1 10.1 0 0 0-3.298-2.156zm2.66 1.739a7.5 7.5 0 0 1 1.738 2.566l1.848-.766a9.5 9.5 0 0 0-2.198-3.242zm1.743 2.577c.422.985.64 2.073.64 3.278h2c0-1.451-.264-2.81-.802-4.066zm.64 3.278c0 1.187-.217 2.278-.642 3.283l1.842.778c.536-1.267.8-2.624.8-4.061zm-.64 3.278a8.1 8.1 0 0 1-1.773 2.608l1.4 1.428a10.1 10.1 0 0 0 2.211-3.248zm-1.773 2.608a8.1 8.1 0 0 1-2.654 1.732l.756 1.852a10.1 10.1 0 0 0 3.299-2.156zm-2.658 1.734c-.988.41-2.08.62-3.29.62v2c1.447 0 2.803-.253 4.055-.772zm-3.29-.356c.997 0 1.937-.173 2.806-.532l-.764-1.848c-.602.249-1.279.38-2.042.38zm2.823-.539a7 7 0 0 0 2.239-1.54l-1.435-1.394a5 5 0 0 1-1.601 1.1zm2.228-1.53a6.5 6.5 0 0 0 1.502-2.348l-1.873-.702c-.24.64-.587 1.18-1.043 1.636zm1.495-2.331a7.7 7.7 0 0 0 .526-2.864h-2c0 .78-.132 1.487-.386 2.128zm.526-2.864c0-1.011-.172-1.964-.529-2.847l-1.854.75c.251.62.383 1.316.383 2.097zm-.52-2.823a6.5 6.5 0 0 0-1.5-2.348l-1.415 1.414c.456.455.803.997 1.043 1.636zm-1.48-2.328a6.5 6.5 0 0 0-2.266-1.557l-.764 1.848a4.5 4.5 0 0 1 1.575 1.083zM14.365 9.34c-.87-.36-1.809-.532-2.806-.532v2c.763 0 1.44.131 2.042.38zm-2.806-.532c-.984 0-1.915.174-2.782.532l.764 1.848a5.2 5.2 0 0 1 2.018-.38zm-2.782.532A6.7 6.7 0 0 0 6.5 10.887l1.434 1.394q.697-.717 1.609-1.093zm-2.28 1.547a7 7 0 0 0-1.484 2.321l1.86.736a5 5 0 0 1 1.06-1.663zm-1.48 2.314c-.358.883-.53 1.836-.53 2.847h2c0-.781.132-1.476.383-2.097zm-.53 2.847c0 1.011.172 1.97.526 2.864l1.86-.736a5.7 5.7 0 0 1-.386-2.128zm.526 2.864c.35.883.844 1.66 1.485 2.32l1.435-1.393a5 5 0 0 1-1.06-1.663zm1.495 2.331q.977.975 2.252 1.53l.798-1.834a5.2 5.2 0 0 1-1.636-1.11zm2.27 1.537a7.2 7.2 0 0 0 2.781.532v-2c-.744 0-1.413-.13-2.018-.38zm13.1 7.02h-1v1h1zm0-17.856v-1h-1v1zm2.951 0h1v-1h-1zm0 2.592-.913.406 1.913-.406zm-.287-.648-.844-.537-.288.453.218.49zm1.823-1.632.448.894.007-.003.007-.004zm6 .312-.522.853zm2.352 2.448-.871.49.006.01zm.024 6.912-.874-.485zM32.392 24.4l.512.859.01-.006zm-6 .336-.44.898.01.005.012.006zm-1.872-1.632-.778-.628-.46.568.403.61zm.504-.624h1v-2.83l-1.778 2.202zm0 7.32v1h1v-1zm5.544-7.896-.515-.857zm1.296-1.392-.88-.476-.005.01-.005.01zm0-4.056-.89.457.007.014.008.015zm-1.296-1.392-.533.847.01.005.008.005zm-3.793-.024-.514-.858-.011.007zm-1.296 1.416-.884-.466-.005.01zm0 4.056-.889.457.005.01.005.009zm1.296 1.392-.525.85.011.008zM22.879 29.8V11.944h-2V29.8zm-1-16.856h2.953v-2h-2.953zm1.953-1v2.592h2v-2.592zm1.913 2.186-.288-.648-1.827.812.288.648zm-.358.295a3.5 3.5 0 0 1 1.428-1.275l-.895-1.788a5.5 5.5 0 0 0-2.22 1.99zm1.442-1.282c.604-.315 1.329-.487 2.203-.487v-2c-1.143 0-2.194.227-3.126.713zm2.203-.487c1.058 0 1.988.259 2.813.765l1.045-1.706c-1.159-.71-2.453-1.059-3.859-1.059zm2.813.765a5.64 5.64 0 0 1 2.003 2.085l1.743-.98a7.64 7.64 0 0 0-2.7-2.81zm2.009 2.096c.497.859.753 1.836.753 2.955h2c0-1.44-.335-2.768-1.022-3.957zm.753 2.955c0 1.106-.25 2.09-.738 2.971l1.75.97c.663-1.198.988-2.519.988-3.941zm-.738 2.971a5.6 5.6 0 0 1-2 2.104l1.045 1.706a7.6 7.6 0 0 0 2.704-2.84zm-1.99 2.098c-.823.491-1.77.747-2.872.747v2c1.427 0 2.736-.336 3.897-1.03zm-2.872.747c-.81 0-1.538-.157-2.198-.46l-.835 1.817a7.2 7.2 0 0 0 3.034.643zm-2.176-.45a3.64 3.64 0 0 1-1.476-1.284l-1.67 1.1a5.64 5.64 0 0 0 2.267 1.98zm-1.533-.106.503-.624-1.555-1.256-.504.624zm-1.274-1.252v7.32h2v-7.32zm1 6.32h-3.145v2h3.145zm3.624-5.392c.882 0 1.703-.208 2.434-.646l-1.029-1.715c-.389.233-.848.361-1.405.361zm2.434-.646a4.4 4.4 0 0 0 1.671-1.793l-1.779-.914a2.4 2.4 0 0 1-.921.992zm1.661-1.774c.41-.758.6-1.606.6-2.516h-2c0 .626-.129 1.138-.36 1.564zm.6-2.516c0-.91-.19-1.754-.605-2.502l-1.749.972c.225.404.355.904.355 1.53zm-.59-2.473a4.4 4.4 0 0 0-1.671-1.793l-1.029 1.716c.397.238.7.561.921.99zM31.1 14.217c-.734-.46-1.561-.681-2.453-.681v2c.55 0 1.002.132 1.388.375zm-2.453-.681a4.57 4.57 0 0 0-2.386.646l1.029 1.716a2.57 2.57 0 0 1 1.357-.362zm-2.397.653a4.6 4.6 0 0 0-1.655 1.801l1.77.932a2.6 2.6 0 0 1 .936-1.031zM24.589 16c-.386.751-.566 1.583-.566 2.473h2c0-.614.123-1.126.345-1.56zm-.566 2.473c0 .902.179 1.743.566 2.497l1.78-.914c-.222-.43-.346-.95-.346-1.583zm.576 2.515c.398.738.95 1.335 1.65 1.768l1.051-1.702a2.63 2.63 0 0 1-.942-1.017zm1.661 1.775a4.57 4.57 0 0 0 2.386.646v-2a2.57 2.57 0 0 1-1.357-.361zm12.35 1.182-.715.7.007.007.007.007zm-1.2-9.192h1v-1h-1zm-2.257 0h-1v1h1zm0-2.808v-1h-1v1zm1.728-.504.69.723zm.528-2.472v-1h-1v1zm3.144 0h1v-1h-1zm0 2.976h-1v1h1zm3 0h1v-1h-1zm0 2.808v1h1v-1zm-3 0v-1h-1v1zm.216 6.696-.904.428.01.02.01.018zm.72.696-.447.894.008.005.01.004zm1.656.216-.1-.995-.01.001zm.456-.048h1v-1.117l-1.11.123zm0 2.688.142.99.858-.123V25zm-.768.096.11.994zm-.792-.952c-1.289 0-2.152-.346-2.732-.914l-1.4 1.428c1.053 1.032 2.477 1.486 4.132 1.486zm-2.718-.9c-.568-.58-.914-1.443-.914-2.732h-2c0 1.655.454 3.08 1.486 4.132zm-.914-2.732v-5.76h-2v5.76zm-1-6.76h-2.256v2h2.256zm-1.256 1v-2.808h-2v2.808zm-1-1.808h.24v-2h-.24zm.24 0c.814 0 1.588-.217 2.179-.78l-1.381-1.447c-.114.108-.332.227-.798.227zm2.179-.78c.606-.58.837-1.365.837-2.188h-2c0 .457-.12.648-.218.74zm.837-2.188V8.968h-2v1.008zm-1-.008h3.144v-2H37.41zm2.144-1v2.976h2V8.968zm1 3.976h3v-2h-3zm2-1v2.808h2v-2.808zm1 1.808h-3v2h3zm-4 1v5.592h2v-5.592zm0 5.592c0 .54.09 1.062.312 1.532l1.808-.856c-.065-.138-.12-.351-.12-.676zm.331 1.57a2.6 2.6 0 0 0 1.158 1.124l.894-1.788a.6.6 0 0 1-.282-.268zm1.175 1.133c.511.243 1.094.337 1.702.337v-2c-.416 0-.68-.066-.842-.143zm1.702.337q.238 0 .495-.03l-.221-1.988a3 3 0 0 1-.274.018zm.484-.029q.245-.024.467-.05l-.221-1.987-.445.047zm-.644-1.043V25h2v-2.688zm.859 1.698q-.318.045-.737.092l.22 1.988q.444-.05.8-.1zm-.737.092a6 6 0 0 1-.682.042v2q.426 0 .903-.054zm4.147.274-.517.856zm-2.352-2.472.88-.474zm0-6.936-.872-.49-.002.004zm2.328-2.424-.512-.859-.007.004zm6-.384-.4.916.006.003zm1.992 1.392-.736.677zm1.248 2.04-.936.351.002.007zm.384 3.144-.991-.132-.005.033-.002.032zm-.12.624v1h.7l.24-.658zm-10.08 0h-1v1h1zm0-2.4v-1h-1v1zm8.304 0 .604.797 2.37-1.797h-2.974zm-1.488 1.128-.981-.192-.504 2.572 2.09-1.583zm-.12-1.968-.94.34.004.011.004.011zm-1.056-1.368-.573.82.006.004.006.004zm-3.504 0 .53.848.01-.006.009-.006zm-1.176 1.44-.92-.391-.005.011zm-.288 2.28.997.08.006-.076-.005-.075zm.312 2.136-.917.4.007.014.006.014zm1.248 1.416-.526.85.011.008zm3.744.048-.51-.86-.012.007zm1.2-1.224.44-.898-.848-.416-.463.824zm2.544 1.248.925.38.355-.866-.84-.412zm-1.2 1.656.662.75zm-1.944 1.128-.34-.94-.007.002zm-2.448-.592c-1.188 0-2.18-.267-3.012-.768l-1.033 1.712c1.185.715 2.545 1.056 4.045 1.056zm-3.012-.768a5.35 5.35 0 0 1-1.988-2.09l-1.76.948a7.35 7.35 0 0 0 2.715 2.854zm-1.988-2.09c-.476-.884-.72-1.872-.72-2.982h-2c0 1.418.316 2.734.96 3.93zm-.72-2.982c0-1.166.248-2.154.714-2.994l-1.748-.972c-.654 1.176-.966 2.508-.966 3.966zm.712-2.99a5.5 5.5 0 0 1 1.975-2.059l-1.038-1.71a7.5 7.5 0 0 0-2.68 2.789zm1.968-2.055c.83-.495 1.755-.747 2.8-.747v-2c-1.386 0-2.67.34-3.824 1.03zm2.8-.747c.916 0 1.67.15 2.287.42l.802-1.832c-.92-.402-1.957-.588-3.089-.588zm2.294.423a4.7 4.7 0 0 1 1.65 1.15l1.472-1.354a6.7 6.7 0 0 0-2.334-1.634zm1.65 1.15a5.2 5.2 0 0 1 1.048 1.714l1.872-.702a7.2 7.2 0 0 0-1.448-2.366zm1.05 1.72a5.8 5.8 0 0 1 .366 2.091h2c0-.99-.163-1.93-.498-2.806zm.366 2.091q0 .264-.04.564l1.983.264a6 6 0 0 0 .057-.828zm-.046.63a1.3 1.3 0 0 1-.062.348l1.88.684c.104-.286.157-.59.178-.9zm.878-.31H46.27v2h10.08zm-9.08 1v-2.4h-2v2.4zm-1-1.4h8.304v-2H46.27zm7.7-1.797-1.488 1.128 1.208 1.594 1.488-1.128zm.097 2.117c.173-.882.137-1.736-.169-2.522l-1.864.724c.142.366.186.824.07 1.414zm-.16-2.5a3.73 3.73 0 0 0-1.436-1.856l-1.122 1.656c.317.215.539.498.677.88zm-1.423-1.847c-.676-.473-1.47-.685-2.326-.685v2c.52 0 .894.124 1.179.323zm-2.326-.685a4.1 4.1 0 0 0-2.3.668l1.097 1.672c.337-.221.727-.34 1.203-.34zm-2.282.656c-.711.444-1.227 1.098-1.566 1.897l1.84.782c.205-.48.473-.787.786-.983zm-1.571 1.908c-.33.806-.432 1.73-.36 2.731l1.995-.142c-.057-.791.034-1.387.215-1.83zm-.36 2.58c-.075.935.044 1.816.392 2.616l1.834-.8c-.196-.448-.285-.99-.232-1.656zm.405 2.644c.366.773.91 1.396 1.627 1.839l1.05-1.702a2.27 2.27 0 0 1-.87-.993zm1.637 1.845c.732.44 1.553.647 2.435.647v-2c-.558 0-1.016-.128-1.405-.361zm2.435.647c.86 0 1.66-.182 2.347-.603l-1.045-1.706c-.306.188-.723.309-1.302.309zm2.335-.596a4.26 4.26 0 0 0 1.56-1.594l-1.742-.98a2.26 2.26 0 0 1-.84.854zm.249-1.186 2.544 1.248.88-1.796-2.544-1.248zm2.059-.03c-.194.472-.499.9-.937 1.286l1.324 1.5a5.45 5.45 0 0 0 1.463-2.026zm-.937 1.286c-.44.389-.976.704-1.622.938l.68 1.88a7 7 0 0 0 2.266-1.318zm-1.629.94c-.61.226-1.307.346-2.101.346v2c.998 0 1.933-.152 2.795-.47zM57.221 25h-1v1h1zm0-13.056v-1h-1v1zm2.952 0h1v-1h-1zm0 2.904-.874.486 1.874 3.373v-3.859zm-.24-.432-.954-.297-.128.408.208.375zm1.416-2.04-.505-.863-.01.005zm3.12-.576h1v-1h-1zm0 2.784v1h1v-1zm-3.288.84.708.707.005-.005.005-.005zM60.365 25v1h1v-1zm-2.144 0V11.944h-2V25zm-1-12.056h2.952v-2h-2.952zm1.952-1v2.904h2v-2.904zm1.874 2.418-.24-.432-1.748.972.24.432zm-.159.351c.258-.828.613-1.262.976-1.48l-1.03-1.715c-.917.551-1.506 1.477-1.855 2.6zm.967-1.474c.474-.278 1.076-.439 1.846-.439v-2c-1.054 0-2.02.223-2.857.713zM63.7 12.8h.768v-2H63.7zm-.232-1v2.784h2V11.8zm1 1.784H63.34v2h1.128zm-1.128 0c-1.122 0-2.116.36-2.877 1.143l1.435 1.394c.327-.337.773-.537 1.442-.537zm-2.867 1.133c-.781.781-1.109 1.834-1.109 3.011h2c0-.807.217-1.29.523-1.597zm-1.109 3.011V25h2v-7.272zm1 6.272H57.22v2h3.144zm5.737.832-.412.911zm-1.56-1.296-.843.538.007.011zm-.072-3.912.868.496.006-.01zm1.488-1.44.496.868zm2.544-.816.154.988.007-.001zm4.272-.696h1v-1.176l-1.16.189zm0 2.4.167.986.833-.142v-.844zm-3.672.624-.168-.986-.009.002zm-1.392.6-.688-.726zm.048 2.208-.63.777.02.017.022.015zm3.024-.024.48.877.01-.005zm1.176-1.176-.865-.502-.006.01-.006.011zm-.24-6.384-.665.747.015.013.015.013zm-3.528-.024.566.824.006-.004zm-1.128 1.416-.437.9.962.467.402-.991zm-2.568-1.248-.937-.349-.317.851.817.397zm1.2-1.776.674.739v-.001zm1.968-1.2-.358-.934zm5.28.168-.44.898.007.003.007.004zm1.896 1.632-.844.537.007.011.008.011zM75.534 25v1h1v-1zm-2.976 0h-1v1h1zm0-2.232-.071-.998-.93.067v.931zm.672-.048.857.515.99-1.65-1.918.137zm-1.2 1.416.621.784.008-.007.008-.007zM70.446 25l.308.951.012-.003.011-.005zm-1.968-.712c-.803 0-1.448-.134-1.964-.367l-.824 1.822c.828.375 1.767.545 2.788.545zm-1.964-.367c-.517-.234-.883-.548-1.136-.934l-1.672 1.098c.483.734 1.157 1.284 1.984 1.658zm-1.13-.923c-.255-.4-.394-.873-.394-1.454h-2c0 .923.228 1.778.71 2.53zm-.394-1.454c0-.567.124-1.032.348-1.424l-1.736-.992c-.416.728-.612 1.543-.612 2.416zm.354-1.434c.217-.39.569-.748 1.11-1.058l-.992-1.736c-.803.458-1.443 1.06-1.866 1.822zm1.11-1.058c.537-.307 1.26-.549 2.202-.696l-.309-1.976c-1.105.173-2.078.475-2.885.936zm2.209-.697 4.272-.696-.322-1.974-4.272.696zm3.11-1.683v2.4h2v-2.4zm.833 1.414-3.672.624.335 1.972 3.672-.624zm-3.68.626c-.725.13-1.403.384-1.904.858l1.376 1.452c.107-.102.356-.248.88-.342zm-1.904.858c-.526.498-.768 1.148-.768 1.854h2c0-.222.062-.324.144-.402zm-.768 1.854c0 .737.294 1.387.875 1.857l1.258-1.554c-.092-.075-.133-.144-.133-.303zm.916 1.889c.551.4 1.199.575 1.884.575v-2c-.34 0-.555-.082-.708-.193zm1.884.575c.797 0 1.543-.166 2.209-.531l-.962-1.754c-.326.18-.732.285-1.247.285zm2.218-.536a3.97 3.97 0 0 0 1.563-1.567l-1.754-.962a1.97 1.97 0 0 1-.79.785zm1.55-1.546c.38-.653.568-1.372.568-2.134h-2c0 .422-.1.791-.297 1.13zm.568-2.134v-3.36h-2v3.36zm0-3.36c0-.871-.368-1.615-1.037-2.165l-1.27 1.546c.226.186.307.37.307.619zm-1.008-2.14c-.657-.583-1.49-.828-2.392-.828v2c.538 0 .857.14 1.064.323zm-2.392-.828c-.867 0-1.668.241-2.372.732l1.144 1.64a2.07 2.07 0 0 1 1.228-.372zm-2.367.728a4.1 4.1 0 0 0-1.488 1.864l1.854.752c.168-.416.422-.73.767-.968zm-.124 1.34-2.568-1.247-.874 1.798 2.568 1.248zm-2.068 0c.2-.538.51-.996.937-1.385l-1.348-1.478a5.5 5.5 0 0 0-1.463 2.166zm.938-1.386a5.1 5.1 0 0 1 1.65-1.004l-.715-1.868a7.1 7.1 0 0 0-2.285 1.396zm1.65-1.004a5.8 5.8 0 0 1 2.09-.366v-2c-.99 0-1.928.162-2.805.498zm2.09-.366c.948 0 1.736.176 2.393.498l.88-1.796c-.976-.478-2.075-.702-3.272-.702zm2.407.505c.66.31 1.14.732 1.478 1.264l1.688-1.074c-.558-.876-1.341-1.542-2.314-2zm1.493 1.286c.34.504.525 1.112.525 1.865h2c0-1.103-.279-2.11-.867-2.983zm.525 1.865V25h2v-8.688zm1 7.688h-2.976v2h2.976zm-1.976 1v-2.232h-2V25zm-.929-1.235.672-.047-.142-1.995-.672.047zm-.257-1.56a4.4 4.4 0 0 1-.98 1.16l1.276 1.541a6.5 6.5 0 0 0 1.42-1.671zm-.963 1.148q-.556.442-1.295.703l.663 1.887a6.4 6.4 0 0 0 1.874-1.024zm-1.272.696a5.4 5.4 0 0 1-1.66.239v2c.81 0 1.572-.108 2.277-.337z" fill="#36322F" mask="url(#b)"/></mask><g mask="url(#c)"><path fill-rule="evenodd" clip-rule="evenodd" d="M0 0h78v20.473c-.813-.486-1.805-.965-3-1.473-5.236-2.226-22.362.366-29.36 5.126C43.53 21.115 40.45 18.725 39 18c-3.787-1.894-3.657 3.185-3.003 8.824-6.463-.46-14.857-3.174-22.06-5.503a345 345 0 0 0-5.46-1.734C4.686 18.43 1.937 19.494 0 21.439zm0 31.552V36h37c-.03-1.163-.177-2.582-.364-4.11-12.863.22-26.239.114-36.636-.338m47.615.064A6 6 0 0 1 47.5 32c-.774 2.321-2.592 3.489-4.583 4H78v-6.887c-5.113 1.209-16.816 2.052-30.385 2.503" fill="#36322F"/><path d="M8.478 19.587C-.803 16.756-3.832 27.225-4 31.353c27.573 1.572 83.93.236 84.737-3.539C81.745 23.097 80.548 21.36 75 19s-24.447.692-30.5 6-24.422-1.875-36.022-5.413Z" fill="#fff" stroke="#000" stroke-width=".1"/><path d="M8.478 20.587C-.803 17.756-3.832 28.225-4 32.353c27.573 1.572 83.93.236 84.737-3.539C81.745 24.097 80.548 22.36 75 20s-24.447.692-30.5 6-24.422-1.875-36.022-5.413Z" fill="#fff" stroke="#000" stroke-width=".1"/><path d="M8.478 21.587C-.803 18.756-3.832 29.225-4 33.353c27.573 1.572 83.93.236 84.737-3.539C81.745 25.097 80.548 23.36 75 21s-24.447.692-30.5 6-24.422-1.875-36.022-5.413Z" fill="#fff" stroke="#000" stroke-width=".1"/><path d="M8.478 22.587C-.803 19.756-3.832 30.225-4 34.353c27.573 1.572 83.93.236 84.737-3.539C81.745 26.097 80.548 24.36 75 22s-24.447.692-30.5 6-24.422-1.875-36.022-5.413Z" fill="#fff" stroke="#000" stroke-width=".1"/><path d="M8.478 23.587C-.803 20.756-3.832 31.225-4 35.353c27.573 1.572 83.93.236 84.737-3.539C81.745 27.097 80.548 25.36 75 23s-24.447.692-30.5 6-24.422-1.875-36.022-5.413Z" fill="#fff" stroke="#000" stroke-width=".1"/><path d="M8.478 24.587C-.803 21.756-3.832 32.225-4 36.353c27.573 1.572 83.93.236 84.737-3.539C81.745 28.097 80.548 26.36 75 24s-24.447.692-30.5 6-24.422-1.875-36.022-5.413Z" fill="#fff" stroke="#000" stroke-width=".1"/><path d="M8.478 25.587C-.803 22.756-3.832 33.225-4 37.353c27.573 1.572 83.93.236 84.737-3.539C81.745 29.097 80.548 27.36 75 25s-24.447.692-30.5 6-24.422-1.875-36.022-5.413Z" fill="#fff" stroke="#000" stroke-width=".1"/><path d="M39 18c-6-3-2.167 11.5-2 18 2.833.667 8.9.8 10.5-4 2-6-5.892-12.696-8.5-14Z" fill="#fff" stroke="#36322F" stroke-width=".1"/><path d="M39 19c-6-3-2.167 11.5-2 18 2.833.667 8.9.8 10.5-4 2-6-5.892-12.696-8.5-14Z" fill="#fff" stroke="#36322F" stroke-width=".1"/><path d="M39 20c-6-3-2.167 11.5-2 18 2.833.667 8.9.8 10.5-4 2-6-5.892-12.696-8.5-14Z" fill="#fff" stroke="#36322F" stroke-width=".1"/><path d="M39 21c-6-3-2.167 11.5-2 18 2.833.667 8.9.8 10.5-4 2-6-5.892-12.696-8.5-14Z" fill="#fff" stroke="#36322F" stroke-width=".1"/><path d="M39 22c-6-3-2.167 11.5-2 18 2.833.667 8.9.8 10.5-4 2-6-5.892-12.696-8.5-14Z" fill="#fff" stroke="#36322F" stroke-width=".1"/><path d="M39 23c-6-3-2.167 11.5-2 18 2.833.667 8.9.8 10.5-4 2-6-5.892-12.696-8.5-14Z" fill="#fff" stroke="#36322F" stroke-width=".1"/><path d="M39 24c-6-3-2.167 11.5-2 18 2.833.667 8.9.8 10.5-4 2-6-5.892-12.696-8.5-14Z" fill="#fff" stroke="#36322F" stroke-width=".1"/></g><mask id="d" maskUnits="userSpaceOnUse" x="2" y="6" width="74" height="24" fill="#000"><path fill="#fff" d="M2 6h74v24H2z"/><path d="M11.56 25.288q-1.968 0-3.672-.696a9.1 9.1 0 0 1-2.976-1.944A9.1 9.1 0 0 1 2.92 19.72q-.696-1.704-.696-3.672 0-1.992.696-3.672a8.7 8.7 0 0 1 1.968-2.928 8.8 8.8 0 0 1 2.976-1.92q1.704-.696 3.696-.696t3.696.696a9.1 9.1 0 0 1 2.976 1.944 8.5 8.5 0 0 1 1.968 2.904q.72 1.68.72 3.672 0 1.968-.72 3.672a9.1 9.1 0 0 1-1.992 2.928 9.1 9.1 0 0 1-2.976 1.944q-1.68.696-3.672.696m0-2.976q1.32 0 2.424-.456a6 6 0 0 0 1.92-1.32 5.5 5.5 0 0 0 1.272-1.992 6.7 6.7 0 0 0 .456-2.496q0-1.344-.456-2.472a5.5 5.5 0 0 0-1.272-1.992 5.5 5.5 0 0 0-1.92-1.32q-1.104-.456-2.424-.456-1.296 0-2.4.456a5.7 5.7 0 0 0-1.944 1.32 6 6 0 0 0-1.272 1.992q-.456 1.128-.456 2.472t.456 2.496a6 6 0 0 0 1.272 1.992q.84.84 1.944 1.32a6.2 6.2 0 0 0 2.4.456M21.878 29.8V11.944h2.953v2.592l-.288-.648a4.5 4.5 0 0 1 1.823-1.632q1.152-.6 2.665-.6 1.848 0 3.336.912a6.64 6.64 0 0 1 2.352 2.448q.887 1.536.887 3.456 0 1.896-.864 3.456a6.6 6.6 0 0 1-2.351 2.472q-1.488.888-3.384.888a6.2 6.2 0 0 1-2.617-.552 4.64 4.64 0 0 1-1.872-1.632l.505-.624v7.32zm6.768-7.392q1.08 0 1.92-.504a3.4 3.4 0 0 0 1.297-1.392q.48-.888.48-2.04t-.48-2.016a3.4 3.4 0 0 0-1.296-1.392q-.84-.528-1.92-.528-1.032 0-1.872.504a3.6 3.6 0 0 0-1.296 1.416q-.457.888-.456 2.016 0 1.152.456 2.04.48.888 1.296 1.392.84.504 1.872.504m13.395 2.736q-2.208 0-3.432-1.2-1.2-1.224-1.2-3.432v-5.76h-2.256v-2.808h.24q.96 0 1.488-.504t.528-1.464V8.968h3.144v2.976h3v2.808h-3v5.592q0 .648.216 1.104.24.456.72.696.504.24 1.272.24.168 0 .384-.024l.456-.048V25q-.336.048-.768.096a7 7 0 0 1-.792.048m8.357.144q-2.016 0-3.528-.912a6.35 6.35 0 0 1-2.352-2.472q-.84-1.56-.84-3.456 0-1.968.84-3.48a6.5 6.5 0 0 1 2.328-2.424q1.488-.888 3.312-.888 1.536 0 2.688.504 1.176.504 1.992 1.392t1.248 2.04q.432 1.128.432 2.448 0 .336-.048.696-.024.36-.12.624H46.27v-2.4h8.304l-1.488 1.128q.216-1.104-.12-1.968a2.73 2.73 0 0 0-1.056-1.368q-.72-.504-1.752-.504-.984 0-1.752.504-.768.48-1.176 1.44-.384.936-.288 2.28-.096 1.2.312 2.136.432.912 1.248 1.416.84.504 1.92.504t1.824-.456a3.26 3.26 0 0 0 1.2-1.224l2.544 1.248a4.45 4.45 0 0 1-1.2 1.656 6 6 0 0 1-1.944 1.128q-1.104.408-2.448.408M57.221 25V11.944h2.952v2.904l-.24-.432q.456-1.464 1.416-2.04.984-.576 2.352-.576h.768v2.784h-1.128q-1.344 0-2.16.84-.816.816-.816 2.304V25zm11.257.288q-1.368 0-2.376-.456t-1.56-1.296q-.552-.864-.552-1.992 0-1.08.48-1.92.48-.864 1.488-1.44t2.544-.816l4.272-.696v2.4l-3.672.624q-.936.168-1.392.6t-.456 1.128q0 .672.504 1.08.528.384 1.296.384.984 0 1.728-.408a2.97 2.97 0 0 0 1.176-1.176q.432-.744.432-1.632v-3.36q0-.84-.672-1.392-.648-.576-1.728-.576-1.008 0-1.8.552a3.1 3.1 0 0 0-1.128 1.416l-2.568-1.248a4.5 4.5 0 0 1 1.2-1.776 6.1 6.1 0 0 1 1.968-1.2 6.8 6.8 0 0 1 2.448-.432q1.608 0 2.832.6 1.224.576 1.896 1.632.696 1.032.696 2.424V25h-2.976v-2.232l.672-.048a5.5 5.5 0 0 1-1.2 1.416 5.4 5.4 0 0 1-1.584.864 6.4 6.4 0 0 1-1.968.288"/></mask><path d="m7.888 24.592-.038.093zm-2.976-1.944-.07.071zM2.92 19.72l-.092.038v.001zm0-7.344.093.038zm1.968-2.928.07.071zm2.976-1.92.037.093h.001zm7.392 0 .038-.093zm2.976 1.944-.07.071v.001zm1.968 2.904-.092.038v.001zm0 7.344.092.04v-.001zm-1.992 2.928-.07-.071zm-2.976 1.944-.038-.093zm-1.248-2.736.038.092h.002zm1.92-1.32-.07-.07h-.002zm1.272-1.992-.093-.037v.002zm0-4.968-.093.035v.002zm-1.272-1.992-.072.069.002.002zm-8.688 0-.071-.07zm-1.272 1.992.093.037zm0 4.968.093-.037zm1.272 1.992-.072.07h.002zm1.944 1.32-.04.092h.002zm2.4 3.332q-1.949 0-3.634-.689l-.076.186q1.724.703 3.71.703zm-3.634-.689a9 9 0 0 1-2.944-1.922l-.14.142a9.2 9.2 0 0 0 3.008 1.966zm-2.944-1.922a9 9 0 0 1-1.97-2.896l-.184.078a9.2 9.2 0 0 0 2.014 2.96zm-1.97-2.895q-.688-1.684-.688-3.634h-.2q0 1.986.704 3.71zm-.688-3.634q0-1.974.689-3.634l-.185-.076q-.705 1.7-.704 3.71zm.689-3.634A8.6 8.6 0 0 1 4.958 9.52l-.14-.142a8.8 8.8 0 0 0-1.99 2.96zM4.958 9.52a8.7 8.7 0 0 1 2.943-1.898l-.073-.186a8.9 8.9 0 0 0-3.01 1.942zm2.944-1.898q1.684-.69 3.658-.689v-.2q-2.01 0-3.734.703zm3.658-.689q1.974 0 3.658.689l.076-.186q-1.724-.703-3.734-.703zm3.658.689a9 9 0 0 1 2.944 1.922l.14-.142a9.2 9.2 0 0 0-3.008-1.966zm2.945 1.923a8.4 8.4 0 0 1 1.945 2.87l.185-.076A8.6 8.6 0 0 0 18.302 9.4zm1.945 2.871q.711 1.66.712 3.633h.2q0-2.01-.728-3.711zm.712 3.633q0 1.95-.712 3.633l.184.078q.729-1.725.728-3.711zm-.712 3.633a9 9 0 0 1-1.97 2.896l.14.142a9.2 9.2 0 0 0 2.014-2.96zm-1.97 2.896a9 9 0 0 1-2.944 1.922l.076.186a9.2 9.2 0 0 0 3.008-1.966zM15.194 24.5q-1.66.687-3.634.688v.2q2.01 0 3.71-.704zm-3.634-2.088q1.338 0 2.462-.464l-.076-.184q-1.083.447-2.386.448zm2.464-.464a6.1 6.1 0 0 0 1.952-1.342l-.144-.14a5.9 5.9 0 0 1-1.888 1.298zm1.95-1.341a5.6 5.6 0 0 0 1.296-2.028l-.187-.07a5.4 5.4 0 0 1-1.25 1.956zm1.295-2.026q.464-1.17.463-2.533h-.2a6.6 6.6 0 0 1-.449 2.46zm.463-2.533q0-1.36-.463-2.51l-.185.075q.447 1.109.448 2.435zm-.462-2.507a5.6 5.6 0 0 0-1.295-2.028l-.141.142q.824.824 1.249 1.956zm-1.293-2.026a5.6 5.6 0 0 0-1.955-1.343l-.076.184q1.084.449 1.886 1.297zm-1.955-1.343q-1.124-.465-2.462-.464v.2q1.302 0 2.386.448zm-2.462-.464q-1.314 0-2.438.464l.076.184a6.1 6.1 0 0 1 2.362-.448zm-2.438.464a5.8 5.8 0 0 0-1.977 1.342l.143.14a5.6 5.6 0 0 1 1.91-1.298zm-1.978 1.342a6.1 6.1 0 0 0-1.293 2.025l.186.074q.45-1.135 1.251-1.96zM5.852 13.54q-.465 1.147-.464 2.509h.2q0-1.326.449-2.434zm-.464 2.509q0 1.362.463 2.533l.186-.074a6.6 6.6 0 0 1-.449-2.459zm.463 2.533q.463 1.17 1.293 2.025l.144-.14a5.9 5.9 0 0 1-1.25-1.959zm1.295 2.026a6.3 6.3 0 0 0 1.974 1.34l.08-.183a6.2 6.2 0 0 1-1.913-1.299zm1.976 1.341q1.125.465 2.438.464v-.2q-1.278 0-2.362-.448zM21.878 29.8h-.1v.1h.1zm0-17.856v-.1h-.1v.1zm2.953 0h.1v-.1h-.1zm0 2.592-.092.04.191-.04zm-.288-.648-.085-.054-.029.046.022.049zm1.823-1.632.045.09.002-.001zm6 .312-.052.085zm2.352 2.448-.087.049.001.001zm.024 6.912-.087-.049zm-2.35 2.472.05.086h.002zm-6 .336-.044.09h.002zm-1.872-1.632-.078-.063-.046.057.04.061zm.504-.624h.1v-.283l-.178.22zm0 7.32v.1h.1v-.1zm5.544-7.896-.052-.086zm1.296-1.392-.088-.048-.001.002zm0-4.056-.09.046.002.003zm-1.296-1.392-.054.085h.002zm-3.793-.024-.05-.086h-.002zm-1.296 1.416-.088-.047v.001zm0 4.056-.088.046v.002zm1.296 1.392-.052.085h.001zM21.979 29.8V11.944h-.2V29.8zm-.1-17.756h2.953v-.2h-2.953zm2.852-.1v2.592h.2v-2.592zm.192 2.551-.288-.648-.183.082.288.648zm-.295-.553a4.4 4.4 0 0 1 1.784-1.597l-.09-.178a4.6 4.6 0 0 0-1.863 1.667zm1.786-1.597q1.126-.588 2.617-.589v-.2q-1.531 0-2.71.611zm2.617-.589q1.822 0 3.284.897l.105-.17q-1.515-.928-3.388-.927zm3.284.897a6.54 6.54 0 0 1 2.317 2.412l.175-.098a6.74 6.74 0 0 0-2.387-2.484zm2.318 2.413q.874 1.511.875 3.406h.2q0-1.945-.902-3.506zm.875 3.406q0 1.871-.852 3.407l.175.097q.877-1.583.877-3.504zm-.852 3.407a6.5 6.5 0 0 1-2.317 2.436l.105.17a6.7 6.7 0 0 0 2.387-2.509zm-2.316 2.435q-1.462.874-3.332.874v.2q1.92 0 3.435-.902zm-3.332.874q-1.396 0-2.575-.543l-.083.182q1.221.561 2.657.561zm-2.573-.542a4.54 4.54 0 0 1-1.832-1.597l-.167.11a4.74 4.74 0 0 0 1.912 1.667zm-1.838-1.48.504-.623-.155-.126-.504.624zm.326-.686v7.32h.2v-7.32zm.1 7.22H21.88v.2h3.143zm3.625-7.192q1.105 0 1.971-.518l-.103-.172q-.814.49-1.869.49zm1.971-.518a3.5 3.5 0 0 0 1.334-1.432l-.178-.092a3.3 3.3 0 0 1-1.259 1.352zm1.333-1.43q.492-.914.492-2.088h-.2q0 1.13-.468 1.992zm.492-2.088q.001-1.173-.493-2.065l-.175.098q.466.837.468 1.967zm-.491-2.062a3.5 3.5 0 0 0-1.334-1.432l-.103.172q.816.488 1.259 1.352zm-1.332-1.43q-.867-.545-1.974-.544v.2q1.054 0 1.867.513zm-1.974-.544q-1.058 0-1.923.518l.103.172a3.47 3.47 0 0 1 1.82-.49zm-1.924.519a3.7 3.7 0 0 0-1.332 1.454l.177.094a3.5 3.5 0 0 1 1.26-1.378zM25.39 16.41q-.469.913-.468 2.062h.2q.001-1.106.445-1.97zm-.468 2.062q0 1.172.468 2.086l.177-.092q-.444-.863-.445-1.994zm.469 2.088a3.7 3.7 0 0 0 1.331 1.43l.105-.171a3.5 3.5 0 0 1-1.26-1.355zm1.332 1.43a3.67 3.67 0 0 0 1.924.518v-.2q-1.006 0-1.821-.49zm11.886 1.954-.071.07.001.001zm-1.2-9.192h.1v-.1h-.1zm-2.256 0h-.1v.1h.1zm0-2.808v-.1h-.1v.1zm1.728-.504.07.072zm.528-2.472v-.1h-.1v.1zm3.144 0h.1v-.1h-.1zm0 2.976h-.1v.1h.1zm3 0h.1v-.1h-.1zm0 2.808v.1h.1v-.1zm-3 0v-.1h-.1v.1zm.216 6.696-.09.043.002.004zm.72.696-.045.09h.002zm1.656.216-.01-.1zm.456-.048h.1V22.2l-.11.013zm0 2.688.014.099.086-.012V25zm-.768.096.011.1zm-.792-.052c-1.453 0-2.57-.395-3.362-1.171l-.14.142c.84.824 2.012 1.229 3.502 1.229zm-3.36-1.17c-.777-.792-1.172-1.908-1.172-3.362h-.2c0 1.49.406 2.662 1.229 3.502zm-1.172-3.362v-5.76h-.2v5.76zm-.1-5.86h-2.256v.2h2.256zm-2.156.1v-2.808h-.2v2.808zm-.1-2.708h.24v-.2h-.24zm.24 0c.657 0 1.181-.173 1.557-.532l-.138-.144c-.328.313-.796.476-1.419.476zm1.557-.532c.378-.36.56-.878.56-1.536h-.2c0 .622-.171 1.08-.498 1.392zm.56-1.536V8.968h-.2v1.008zm-.1-.908h3.143v-.2H37.41zm3.043-.1v2.976h.2V8.968zm.1 3.076h3v-.2h-3zm2.9-.1v2.808h.2v-2.808zm.1 2.708h-3v.2h3zm-3.1.1v5.592h.2v-5.592zm0 5.592q-.001.665.226 1.147l.18-.086q-.205-.43-.206-1.061zm.228 1.15q.255.486.763.74l.09-.18a1.5 1.5 0 0 1-.676-.653zm.765.74q.532.252 1.315.25v-.2q-.752-.002-1.229-.23zm1.315.25q.175 0 .395-.025l-.022-.198a3 3 0 0 1-.373.023zm.394-.025q.24-.023.457-.048l-.022-.198-.455.047zm.346-.147V25h.2v-2.688zm.086 2.589q-.335.048-.765.096l.022.198q.434-.048.771-.096zm-.765.096a7 7 0 0 1-.78.047v.2q.365 0 .802-.049zm4.048-.621-.052.086zm-2.352-2.472.088-.047zm0-6.936-.087-.049zm2.328-2.424-.051-.086zm6-.384-.04.092zm1.992 1.392-.074.068zm1.248 2.04-.094.035zm.384 3.144-.1-.013v.006zm-.12.624v.1h.07l.024-.066zm-10.08 0h-.1v.1h.1zm0-2.4v-.1h-.1v.1zm8.304 0 .06.08.237-.18h-.297zm-1.488 1.128-.098-.02-.05.258.208-.158zm-.12-1.968-.094.034v.002zm-1.056-1.368-.057.082zm-3.504 0 .053.085.002-.001zm-1.176 1.44-.092-.04v.002zm-.288 2.28.1.008v-.015zm.312 2.136-.092.04.002.003zm1.248 1.416-.053.085h.002zm3.744.048-.051-.086h-.001zm1.2-1.224.044-.09-.085-.041-.046.082zm2.544 1.248.093.038.035-.087-.084-.04zm-1.2 1.656.066.075zm-1.944 1.128-.034-.094zm-2.448.308q-1.991 0-3.476-.898l-.104.172q1.54.927 3.58.926zm-3.476-.898a6.25 6.25 0 0 1-2.316-2.433l-.176.094a6.45 6.45 0 0 0 2.388 2.51zm-2.316-2.433q-.828-1.537-.828-3.409h-.2q0 1.92.852 3.503zm-.828-3.409q.001-1.945.827-3.431l-.174-.098q-.854 1.538-.853 3.529zm.827-3.431a6.4 6.4 0 0 1 2.293-2.387l-.104-.171a6.6 6.6 0 0 0-2.363 2.46zm2.292-2.387q1.463-.873 3.261-.874v-.2q-1.85 0-3.363.902zm3.261-.874q1.519 0 2.648.496l.08-.184q-1.175-.512-2.728-.512zm2.649.496q1.156.496 1.957 1.368l.148-.136a5.8 5.8 0 0 0-2.027-1.416zm1.957 1.368a6.1 6.1 0 0 1 1.228 2.007l.188-.07a6.3 6.3 0 0 0-1.268-2.073zm1.229 2.008q.425 1.11.425 2.412h.2q0-1.337-.439-2.484zm.425 2.412q0 .33-.047.683l.198.026q.05-.366.049-.709zm-.048.69a2.2 2.2 0 0 1-.114.596l.188.068q.102-.28.126-.651zm-.02.53H46.27v.2h10.08zm-9.98.1v-2.4h-.2v2.4zm-.1-2.3h8.304v-.2H46.27zm8.244-.18-1.488 1.128.12.16 1.488-1.128zm-1.33 1.227q.222-1.126-.125-2.023l-.186.072q.325.831.115 1.913zm-.124-2.021a2.83 2.83 0 0 0-1.094-1.417l-.112.166q.717.485 1.018 1.319zm-1.093-1.416q-.75-.523-1.809-.522v.2q1.005.002 1.695.486zm-1.809-.522a3.2 3.2 0 0 0-1.807.52l.11.168a3 3 0 0 1 1.697-.488zm-1.805.52q-.797.5-1.215 1.485l.184.078q.398-.935 1.137-1.394zm-1.215 1.486q-.394.965-.296 2.325l.2-.014q-.094-1.328.28-2.235zm-.296 2.31q-.099 1.221.32 2.184l.184-.08q-.398-.909-.304-2.088zm.322 2.187a3.36 3.36 0 0 0 1.285 1.458l.106-.17a3.16 3.16 0 0 1-1.21-1.374zm1.287 1.459q.866.518 1.971.518v-.2q-1.056 0-1.868-.49zm1.971.518q1.102.001 1.876-.47l-.104-.171q-.714.44-1.772.441zm1.875-.47q.791-.47 1.236-1.261l-.174-.098q-.42.745-1.164 1.187zm1.105-1.22 2.544 1.248.088-.18-2.544-1.248zm2.496 1.12a4.35 4.35 0 0 1-1.174 1.619l.132.15a4.55 4.55 0 0 0 1.227-1.693zm-1.174 1.619q-.8.705-1.912 1.109l.068.188a6.1 6.1 0 0 0 1.976-1.147zm-1.913 1.11q-1.084.4-2.413.401v.2q1.36 0 2.483-.414zm4.41.213h-.1v.1h.1zm0-13.056v-.1h-.1v.1zm2.952 0h.1v-.1h-.1zm0 2.904-.087.049.187.337v-.386zm-.24-.432-.095-.03-.013.041.02.038zm1.416-2.04-.05-.086h-.001zm3.12-.576h.1v-.1h-.1zm0 2.784v.1h.1v-.1zm-3.288.84.071.07h.001zM60.365 25v.1h.1V25zm-3.044 0V11.944h-.2V25zm-.1-12.956h2.952v-.2h-2.952zm2.852-.1v2.904h.2v-2.904zm.188 2.855-.24-.432-.175.098.24.432zm-.232-.353c.3-.961.76-1.617 1.372-1.984l-.103-.172c-.668.4-1.151 1.106-1.46 2.096zm1.37-1.984q.957-.56 2.302-.562v-.2q-1.39-.001-2.402.59zm2.302-.562h.768v-.2h-.768zm.668-.1v2.784h.2V11.8zm.1 2.684h-1.128v.2h1.128zm-1.128 0c-.918 0-1.666.288-2.231.87l.143.14c.522-.538 1.215-.81 2.088-.81zm-2.23.87c-.568.567-.846 1.364-.846 2.374h.2c0-.974.267-1.713.787-2.233zm-.846 2.374V25h.2v-7.272zm.1 7.172h-3.144v.2h3.144zm5.737-.068-.041.091zm-1.56-1.296-.084.054zm-.072-3.912.087.05v-.001zm1.488-1.44.05.087zm2.544-.816.015.099h.001zm4.272-.696h.1v-.118l-.116.02zm0 2.4.017.099.083-.015v-.084zm-3.672.624-.017-.099zm-1.392.6-.069-.073zm.048 2.208-.063.078.004.003zm3.024-.024.048.088zm1.176-1.176-.087-.05v.002zm-.24-6.384-.067.075.003.002zm-3.528-.024.057.082zm-1.128 1.416-.044.09.096.047.04-.1zm-2.568-1.248-.094-.035-.032.085.082.04zm1.2-1.776.067.074zm1.968-1.2-.036-.093zm5.28.168-.044.09h.001zm1.896 1.632-.084.054.001.002zM75.534 25v.1h.1V25zm-2.976 0h-.1v.1h.1zm0-2.232-.007-.1-.093.007v.093zm.672-.048.086.051.099-.164-.192.013zm-1.2 1.416.062.078.002-.001zM70.446 25l.03.095h.003zm-1.968.188q-1.35 0-2.335-.447l-.082.182q1.031.466 2.417.465zm-2.335-.447q-.984-.445-1.517-1.26l-.168.11q.57.866 1.603 1.332zm-1.517-1.259q-.536-.836-.536-1.938h-.2q-.001 1.155.568 2.046zm-.536-1.938q0-1.056.467-1.87l-.174-.1q-.494.867-.493 1.97zm.467-1.871q.464-.837 1.45-1.402l-.099-.174q-1.028.587-1.526 1.478zm1.45-1.402q.987-.566 2.51-.804l-.03-.198q-1.55.242-2.579.828zm2.511-.804 4.272-.696-.032-.198-4.272.696zm4.156-.795v2.4h.2v-2.4zm.083 2.301-3.672.624.034.198 3.672-.624zm-3.673.625c-.634.113-1.12.319-1.443.625l.138.146c.284-.27.727-.464 1.34-.575zm-1.443.625q-.488.467-.487 1.201h.2c0-.44.143-.788.425-1.055zm-.487 1.201c0 .477.18.866.541 1.158l.126-.156c-.312-.252-.467-.583-.467-1.002zm.545 1.16q.56.405 1.355.404v-.2q-.74-.001-1.237-.365zm1.355.404q1.006 0 1.776-.42l-.096-.176q-.719.395-1.68.396zm1.777-.42a3.07 3.07 0 0 0 1.215-1.216l-.176-.096q-.392.719-1.137 1.137zm1.213-1.214a3.3 3.3 0 0 0 .446-1.682h-.2q0 .861-.419 1.582zm.446-1.682v-3.36h-.2v3.36zm0-3.36q-.001-.888-.709-1.47l-.127.155q.638.523.636 1.315zm-.706-1.467c-.454-.404-1.056-.601-1.794-.601v.2c.702 0 1.252.187 1.662.55zm-1.794-.601q-1.039 0-1.857.57l.114.164a2.97 2.97 0 0 1 1.743-.534zm-1.857.57a3.2 3.2 0 0 0-1.164 1.46l.186.076a3 3 0 0 1 1.092-1.372zm-1.027 1.408-2.568-1.248-.088.18 2.568 1.248zM64.588 15.1a4.4 4.4 0 0 1 1.173-1.737l-.135-.148A4.6 4.6 0 0 0 64.4 15.03zm1.173-1.737a6 6 0 0 1 1.937-1.18l-.072-.187a6.2 6.2 0 0 0-2 1.22zm1.937-1.18a6.7 6.7 0 0 1 2.412-.426v-.2a6.9 6.9 0 0 0-2.484.439zm2.412-.426q1.589.001 2.788.59l.088-.18q-1.249-.611-2.876-.61zm2.79.59q1.199.566 1.853 1.596l.17-.108q-.69-1.081-1.939-1.668zm1.855 1.598q.678 1.003.679 2.368h.2q0-1.42-.713-2.48zm.679 2.368V25h.2v-8.688zm.1 8.588h-2.976v.2h2.976zm-2.876.1v-2.232h-.2V25zm-.093-2.132.672-.048-.014-.2-.672.048zm.58-.2a5.4 5.4 0 0 1-1.179 1.391l.128.154a5.6 5.6 0 0 0 1.222-1.442zm-1.177 1.39a5.3 5.3 0 0 1-1.555.848l.066.188a5.5 5.5 0 0 0 1.613-.88zm-1.553.847a6.3 6.3 0 0 1-1.937.283v.2q1.093 0 1.999-.293z" fill="#36322F" mask="url(#d)"/></g><defs><clipPath id="a"><path fill="#fff" d="M0 0h78v36H0z"/></clipPath></defs></svg>