<?xml version="1.0" encoding="UTF-8" standalone="no"?>
<!-- Created with Inkscape (http://www.inkscape.org/) -->

<svg
   version="1.1"
   id="svg1"
   width="500.36365"
   height="455.27274"
   viewBox="0 0 500.36365 455.27274"
   sodipodi:docname="optera logo.svg"
   inkscape:version="1.3.2 (091e20e, 2023-11-25)"
   xmlns:inkscape="http://www.inkscape.org/namespaces/inkscape"
   xmlns:sodipodi="http://sodipodi.sourceforge.net/DTD/sodipodi-0.dtd"
   xmlns="http://www.w3.org/2000/svg"
   xmlns:svg="http://www.w3.org/2000/svg">
  <defs
     id="defs1" />
  <sodipodi:namedview
     id="namedview1"
     pagecolor="#ffffff"
     bordercolor="#000000"
     borderopacity="0.25"
     inkscape:showpageshadow="2"
     inkscape:pageopacity="0.0"
     inkscape:pagecheckerboard="0"
     inkscape:deskcolor="#d1d1d1"
     inkscape:zoom="1.202934"
     inkscape:cx="185.79573"
     inkscape:cy="208.6565"
     inkscape:window-width="1216"
     inkscape:window-height="847"
     inkscape:window-x="0"
     inkscape:window-y="25"
     inkscape:window-maximized="0"
     inkscape:current-layer="g1" />
  <g
     inkscape:groupmode="layer"
     inkscape:label="Image"
     id="g1">
    <path
       id="path1"
       style="display:inline;fill:#000000;fill-opacity:1;stroke-width:0.989735"
       inkscape:label="basis"
       d="m 320.56342,30.752482 c -49.2655,1.278004 -89.31464,15.483679 -89.31464,15.483679 L 28.820522,221.95723 c 0,0 -15.236336,66.18713 61.408127,96.06731 110.718531,43.1641 246.381371,-28.4337 246.381371,-28.4337 L 460.4633,171.1533 c 0,0 40.86318,-79.589292 -47.92874,-122.880636 C 382.99892,33.872276 350.12272,29.985679 320.56342,30.752482 Z m 75.53637,38.767034 c 51.2494,28.96949 42.0945,77.481454 -31.89173,146.908214 C 290.22182,285.85451 150.58294,320.73632 99.255496,280.42106 47.928052,240.10578 110.91291,169.99816 158.13467,125.72287 219.7899,67.914666 334.75949,34.846001 396.09979,69.519516 Z"
       sodipodi:nodetypes="sccsccsssssss" />
    <path
       style="display:inline;fill:#e0762d;fill-opacity:1;stroke-width:0.989735"
       d="M 460.46373,171.15329 336.61056,289.59063 c 0,0 -44.31012,23.38502 -102.95061,35.36855 76.25231,-54.84137 153.00448,-114.40057 226.80378,-153.80589 z"
       id="path4"
       sodipodi:nodetypes="cccc"
       inkscape:label="rood" />
    <path
       style="display:inline;fill:#2dd4e0;fill-opacity:1;stroke-width:0.989735"
       d="m 469.43027,120.45291 c 2.75916,27.86263 -8.96654,50.70038 -8.96654,50.70038 L 360.26824,266.96745 C 387.85339,221.33861 441.45998,152.016 469.43027,120.45291 Z"
       id="path3"
       sodipodi:nodetypes="cccc"
       inkscape:label="blauw" />
    <text
       xml:space="preserve"
       style="font-size:137.65px;letter-spacing:-7.16929px;word-spacing:0px;fill:#000000;fill-opacity:1;stroke-width:1.43386"
       x="19.911348"
       y="425.44714"
       id="text5"><tspan
         id="tspan5"
         x="19.911348"
         y="425.44714"
         style="font-style:normal;font-variant:normal;font-weight:normal;font-stretch:normal;font-size:137.65px;font-family:Copperplate;-inkscape-font-specification:Copperplate;letter-spacing:-7.16929px;word-spacing:0px;fill:#000000;fill-opacity:1;stroke-width:1.43386"
         sodipodi:role="line">Optera</tspan></text>
  </g>
</svg>
